{"glyphs":{"0":{"ha":429,"x_min":0,"x_max":0,"o":"m 384 378 b 382 396 384 384 383 390 b 380 413 382 401 381 407 b 378 475 378 436 377 459 b 375 521 380 490 379 506 b 358 559 371 536 365 550 b 348 569 354 563 351 567 b 341 572 345 571 343 572 b 337 566 339 571 338 569 b 338 550 337 562 337 557 b 340 536 339 545 339 541 b 328 565 336 546 332 556 b 323 574 326 568 325 571 b 334 569 327 571 331 569 b 339 583 338 569 340 574 b 324 615 339 591 334 603 b 307 631 320 621 314 626 b 284 643 300 636 292 640 b 263 648 277 645 270 647 b 252 650 259 649 255 649 b 249 650 251 650 250 650 b 247 650 248 650 247 650 b 244 650 246 650 245 650 l 243 650 b 243 650 243 650 243 650 l 241 651 b 235 653 239 652 237 652 b 221 653 230 654 226 654 b 215 652 219 653 217 653 b 212 651 214 652 213 652 b 210 651 211 651 210 651 b 200 647 207 650 204 649 b 164 631 188 643 176 638 b 131 607 152 624 141 617 b 106 576 121 598 113 587 b 89 539 99 564 93 551 b 76 500 84 526 80 513 b 60 419 69 473 65 446 b 38 232 51 356 40 297 b 45 127 37 198 38 163 b 61 74 48 110 53 92 b 66 61 62 70 64 66 b 73 48 68 57 71 53 b 92 23 78 39 85 31 b 116 4 99 16 107 10 b 142 -8 124 -1 133 -5 b 197 -15 161 -14 179 -16 b 293 23 233 -13 266 1 b 323 56 304 33 314 44 b 343 96 331 69 338 83 b 360 139 350 112 355 126 b 374 179 365 152 370 165 b 383 218 378 192 381 205 b 389 260 386 232 388 246 b 388 348 391 289 390 318 b 384 378 387 357 386 367 z m 281 135 b 279 128 281 132 280 130 b 274 136 278 132 276 135 b 261 133 271 138 266 137 b 249 118 257 129 252 124 b 243 110 247 115 245 112 b 238 100 242 107 240 104 b 233 92 237 97 235 94 b 223 84 230 89 227 87 b 198 75 216 80 207 76 b 171 82 189 74 180 76 b 152 106 163 87 156 96 b 134 171 143 126 137 149 b 132 240 131 194 130 217 b 142 308 134 264 138 286 b 149 342 145 320 147 331 b 155 377 151 354 153 365 b 164 448 158 401 161 425 b 170 482 166 459 168 471 b 177 514 172 493 174 504 b 187 539 180 524 183 532 b 195 548 189 542 192 545 b 201 551 197 549 199 550 b 202 552 201 552 202 552 l 203 553 b 205 554 204 553 204 554 l 206 554 b 207 555 206 554 206 555 l 208 555 b 214 556 210 555 212 556 l 216 557 l 217 557 l 218 557 b 221 558 219 558 220 558 b 233 559 225 560 229 560 b 259 542 242 557 251 550 b 274 516 265 534 270 525 b 281 485 277 506 279 495 b 274 421 283 460 277 443 b 271 392 272 412 271 402 b 270 362 270 382 270 372 b 273 300 270 341 272 321 b 275 252 273 287 275 269 b 268 209 275 236 273 219 b 260 152 259 191 257 167 b 281 148 262 137 270 130 b 286 158 283 151 284 155 b 281 135 284 150 283 142 z "},"1":{"ha":322,"x_min":0,"x_max":0,"o":"m 26 7 b 36 -13 28 0 31 -7 b 55 -27 41 -19 47 -24 b 78 -31 62 -30 70 -31 l 80 -31 l 82 -30 l 85 -30 l 90 -29 b 103 -27 94 -28 98 -27 b 127 -23 111 -25 119 -24 b 178 -16 144 -20 161 -18 b 231 -11 195 -14 213 -12 b 258 -8 240 -10 249 -9 l 265 -8 b 273 -7 268 -8 270 -7 b 286 0 277 -5 282 -3 b 297 26 293 7 297 17 b 287 52 297 36 294 46 b 275 59 284 55 279 58 b 260 60 270 60 265 60 b 232 59 251 60 242 60 l 219 59 l 212 59 l 210 59 l 209 59 b 209 60 209 59 209 60 l 210 64 l 211 91 b 215 147 212 109 213 128 b 232 374 220 225 228 296 b 235 435 234 394 234 415 b 235 496 235 455 235 476 b 230 619 235 538 233 579 l 229 625 b 228 632 229 627 229 629 b 223 646 227 636 225 641 b 205 665 219 654 213 661 b 174 682 197 674 186 680 b 136 676 160 685 147 682 b 121 667 131 674 126 670 b 111 655 117 663 113 658 b 96 633 105 648 100 640 b 70 587 86 618 78 603 b 58 564 66 580 62 572 b 52 551 56 560 54 557 b 49 535 50 546 49 541 b 64 509 50 525 55 515 b 92 500 72 503 82 499 b 119 514 103 500 112 506 l 121 517 l 123 520 l 126 525 b 130 530 128 527 129 529 b 121 468 127 509 124 490 b 116 266 112 405 113 336 b 118 112 118 223 125 149 b 116 100 117 108 116 104 l 115 93 l 115 90 b 114 89 115 90 114 89 l 114 88 b 114 87 114 88 113 88 b 113 85 114 86 114 86 b 113 84 113 85 113 85 l 112 84 l 112 84 b 111 84 112 84 111 84 b 101 82 108 83 104 82 b 102 60 77 76 70 67 b 111 58 105 59 108 59 b 119 57 114 58 117 57 b 81 57 106 57 94 57 b 69 55 76 57 73 56 b 71 56 70 55 70 56 b 80 63 75 59 78 61 b 78 69 81 65 81 68 b 64 72 76 71 71 73 b 39 61 57 72 47 69 b 24 28 31 53 25 41 b 24 18 24 25 24 22 b 26 7 24 15 25 11 z "},"2":{"ha":383,"x_min":0,"x_max":0,"o":"m 329 595 b 302 636 321 612 311 626 b 235 674 287 656 261 670 b 170 667 210 678 186 674 b 146 648 154 660 145 652 b 153 645 146 646 148 645 b 176 647 158 645 165 646 b 196 646 182 647 189 647 b 151 635 181 645 166 642 b 139 629 147 633 143 631 b 148 641 144 634 147 638 b 131 646 149 646 143 648 b 86 621 119 643 102 635 b 48 564 70 607 56 587 b 36 501 41 544 37 522 l 36 492 b 36 484 36 490 36 487 b 36 476 36 482 36 479 l 37 468 l 37 464 b 38 459 37 462 38 460 b 41 449 39 455 40 452 b 54 433 44 442 49 437 b 93 426 66 425 80 423 b 109 436 99 428 105 431 b 118 453 114 440 117 446 b 119 462 119 456 119 459 b 118 466 119 464 119 465 b 118 470 118 468 118 469 b 119 486 118 476 118 481 b 126 518 120 497 123 507 b 165 571 134 538 146 558 b 195 583 174 577 184 582 b 212 583 201 584 207 584 b 229 579 218 582 223 581 b 252 556 239 574 247 566 b 259 523 256 546 258 534 b 251 457 260 501 256 479 b 200 333 239 412 221 372 b 167 275 190 313 179 294 b 132 215 156 255 144 236 b 60 88 108 173 83 131 l 42 56 b 35 41 41 54 37 47 b 33 33 34 39 33 36 b 32 24 32 30 32 27 b 42 -11 32 11 35 -1 b 69 -34 49 -21 59 -29 b 102 -39 79 -38 91 -40 l 106 -38 l 108 -38 b 109 -38 109 -38 109 -38 l 114 -37 b 122 -35 116 -36 119 -36 b 139 -32 128 -34 134 -33 b 205 -24 161 -28 183 -26 b 238 -23 216 -23 227 -23 b 254 -23 244 -23 249 -23 l 263 -23 l 267 -23 l 269 -23 l 272 -23 b 291 -20 279 -23 285 -23 b 307 -9 297 -17 302 -13 b 320 26 315 1 320 13 b 307 55 320 37 315 47 b 294 63 304 58 299 61 b 280 67 289 65 285 67 b 274 68 278 68 275 68 l 267 68 b 255 69 263 68 259 68 b 231 69 247 69 239 69 b 212 69 225 69 218 69 l 207 69 l 203 68 l 196 68 b 163 66 185 67 174 67 b 163 67 161 65 163 67 l 164 70 l 167 74 l 172 84 b 183 102 176 90 179 96 b 191 117 186 107 189 112 b 200 131 194 122 197 127 b 218 157 206 141 212 149 b 251 207 229 174 240 190 b 308 314 272 240 291 275 b 329 374 316 333 323 353 b 344 439 336 395 341 416 b 345 541 349 465 352 504 b 329 595 342 560 337 579 z "},"3":{"ha":378,"x_min":0,"x_max":0,"o":"m 48 548 b 37 502 42 530 39 515 b 35 465 35 490 34 478 b 37 455 35 462 36 458 l 38 449 l 38 447 b 39 443 38 446 39 444 b 56 417 42 433 48 424 b 82 404 63 411 72 406 b 110 406 91 403 101 403 b 122 411 114 407 118 409 b 132 417 125 413 129 415 b 145 434 138 422 142 428 b 150 464 152 446 151 457 b 143 475 148 472 145 475 b 138 467 141 476 140 473 b 127 445 137 462 135 453 b 109 435 121 440 115 436 b 129 472 122 440 133 454 b 126 487 128 477 127 482 b 128 484 127 486 127 485 b 135 475 130 478 133 475 b 141 477 137 474 139 475 b 143 481 142 478 142 480 b 145 487 144 483 144 485 b 156 521 148 496 151 509 b 167 537 159 527 163 533 b 182 549 171 542 175 546 b 200 554 188 552 194 554 b 219 548 207 554 213 552 b 235 529 226 543 231 537 b 239 516 236 525 238 521 b 242 501 241 511 242 506 b 240 440 246 482 245 460 b 212 380 234 419 225 398 b 165 331 199 361 183 345 b 150 322 160 328 155 325 b 138 310 145 319 140 315 b 134 293 135 305 133 299 b 140 277 134 287 137 282 b 170 261 146 267 158 261 b 187 263 176 262 182 263 b 204 259 193 262 199 261 b 228 238 214 255 222 247 b 242 208 235 229 239 218 b 246 141 248 185 249 162 b 237 111 244 130 241 120 b 218 89 232 103 226 95 b 195 77 211 83 203 79 b 183 76 191 76 187 76 b 173 79 180 77 176 78 b 159 92 167 82 162 86 b 158 94 158 92 158 93 b 157 96 157 95 157 95 b 156 98 157 97 156 97 l 156 99 b 156 101 156 100 156 100 b 155 105 155 102 155 103 b 152 113 154 107 153 110 b 145 127 151 118 148 122 b 116 146 138 136 128 143 b 81 145 105 149 93 149 b 65 138 75 143 70 141 b 51 126 60 135 56 131 b 42 111 47 122 44 117 b 37 93 39 105 38 99 b 38 75 36 87 37 80 l 38 73 l 38 71 l 39 68 l 41 62 b 45 51 42 58 43 55 b 50 40 46 47 48 43 b 79 1 57 25 67 12 b 165 -38 102 -21 133 -35 b 212 -34 180 -39 197 -38 b 254 -17 227 -30 241 -24 b 313 44 279 -1 299 20 b 329 82 320 56 325 69 b 331 91 330 85 330 88 l 333 101 b 335 120 334 107 335 114 b 328 196 337 146 334 172 b 297 266 321 221 311 245 b 291 274 295 269 293 271 b 286 281 290 276 288 278 b 274 294 282 285 278 290 l 270 297 l 268 299 l 262 304 b 249 313 258 307 253 310 b 249 313 249 313 249 313 l 251 315 l 253 317 l 257 322 b 265 332 260 325 263 328 l 267 334 l 270 337 b 274 344 271 339 273 341 b 283 356 277 348 280 352 b 316 417 297 378 307 397 b 335 479 325 436 332 456 b 336 544 339 499 340 522 b 308 611 332 567 323 590 b 280 638 300 621 290 630 b 245 656 269 646 257 652 b 207 664 233 660 220 663 b 168 662 194 665 181 664 b 117 642 152 659 134 653 b 73 600 100 632 85 617 b 48 548 61 583 53 565 z "},"4":{"ha":347,"x_min":0,"x_max":0,"o":"m 299 600 b 300 611 299 604 300 607 l 301 617 l 301 619 l 301 621 b 301 622 301 621 301 621 l 301 623 b 300 633 301 626 300 630 b 297 644 299 637 298 640 b 291 653 295 647 293 650 b 284 662 289 656 287 659 b 276 668 282 664 279 667 b 267 673 273 670 270 672 b 263 675 266 674 264 675 b 258 677 261 676 260 676 b 249 678 255 677 252 678 b 219 673 238 679 227 677 b 213 669 217 671 215 670 b 209 665 212 668 210 667 b 203 657 206 663 204 660 b 200 650 201 655 200 652 b 192 648 198 650 195 649 b 183 641 189 646 186 644 b 179 637 182 640 181 639 b 178 635 179 636 178 635 l 177 633 l 176 632 b 166 617 173 628 169 623 b 151 577 160 606 154 592 b 97 408 138 524 120 466 b 59 320 85 378 72 349 b 37 277 52 305 45 291 b 26 255 34 270 30 262 l 21 245 b 16 232 19 241 17 237 b 16 218 15 228 15 223 b 21 204 17 213 19 208 b 46 187 27 195 36 189 b 61 185 51 185 56 185 l 74 185 b 97 185 81 185 89 185 b 144 182 113 184 128 183 b 168 181 152 182 160 181 l 174 180 l 177 180 b 178 180 177 180 177 180 b 179 178 178 179 179 179 b 180 176 180 178 181 177 b 179 174 179 175 179 175 b 179 174 179 174 179 174 l 178 174 b 178 173 178 174 178 173 l 178 171 b 176 118 177 154 177 136 b 177 65 176 101 176 83 b 177 39 177 56 177 48 l 178 26 l 179 19 l 179 16 l 179 14 l 179 11 b 200 -28 180 -5 188 -19 b 220 -37 206 -33 213 -36 b 241 -39 227 -39 235 -40 b 277 -20 255 -37 269 -30 b 286 -3 281 -15 284 -9 b 287 7 287 1 287 4 b 287 12 288 9 287 10 l 287 14 l 287 16 b 279 117 284 49 281 82 b 279 206 277 146 277 177 b 294 295 281 242 289 265 b 302 468 304 349 305 407 b 299 600 300 505 292 568 z m 205 376 b 206 343 207 365 208 354 b 192 311 204 330 197 322 b 188 301 191 308 189 304 b 186 299 187 300 186 299 b 184 297 184 298 184 298 b 181 295 183 297 182 296 b 180 295 181 295 181 295 b 180 294 180 294 180 294 l 180 294 l 179 294 l 178 294 l 177 294 b 163 291 173 293 168 292 b 140 294 154 290 146 290 b 138 294 139 294 139 294 b 177 413 137 335 151 378 b 190 428 182 418 186 423 b 205 376 196 411 202 394 z m 106 269 b 108 265 107 267 107 266 b 105 265 107 265 106 265 b 106 269 105 266 106 267 z m 227 652 b 241 651 232 653 237 652 b 213 639 230 652 219 648 b 204 634 210 638 207 636 b 205 635 205 634 205 635 b 210 645 207 640 209 642 b 209 648 210 646 210 647 b 227 652 213 649 219 652 z "},"5":{"ha":378,"x_min":0,"x_max":0,"o":"m 332 646 b 310 662 327 653 319 658 b 297 665 306 663 302 664 b 290 665 294 665 292 665 b 288 665 289 665 288 665 l 287 665 l 285 665 b 269 662 280 664 274 663 b 178 648 240 657 209 652 b 130 642 162 646 146 644 b 118 640 126 641 122 641 b 104 638 114 640 109 640 b 83 619 95 635 87 628 l 83 620 b 76 598 78 613 76 605 b 77 577 77 591 77 584 b 78 536 77 564 78 550 b 78 453 78 509 78 481 b 75 368 77 424 76 396 l 74 347 l 73 337 b 75 325 73 333 73 329 b 79 315 76 322 77 318 b 87 306 82 312 84 309 b 109 298 93 301 101 298 b 120 300 113 298 117 299 b 152 307 131 304 141 306 b 182 305 162 307 173 307 b 207 295 192 304 201 300 l 209 293 b 212 291 210 292 211 291 l 213 288 l 215 286 b 220 275 217 283 219 279 b 225 247 223 267 224 257 b 227 215 226 237 227 225 b 228 184 228 205 228 194 b 227 169 228 179 227 174 b 225 155 226 164 226 159 b 210 118 222 141 217 128 b 184 98 202 108 194 101 b 162 100 175 95 167 97 b 156 107 159 102 157 104 b 155 110 156 108 156 109 b 154 112 155 110 155 111 b 154 115 154 113 154 114 b 154 117 154 116 154 116 l 154 119 b 143 158 156 133 151 147 b 128 172 139 163 134 168 b 110 181 123 176 117 179 b 71 180 97 185 83 185 b 42 154 59 175 48 166 l 40 151 b 38 147 39 150 39 148 b 36 140 37 144 37 142 b 33 126 35 135 34 130 b 34 103 33 118 33 111 b 38 82 35 96 37 89 b 47 62 41 75 43 68 b 57 44 49 55 54 50 b 71 28 62 38 66 33 b 86 15 76 23 81 19 b 103 4 92 11 97 7 b 122 -4 109 1 115 -2 b 141 -9 128 -6 134 -8 b 160 -12 147 -11 154 -11 b 180 -11 167 -11 173 -12 b 217 -1 193 -9 205 -6 b 251 18 229 4 240 10 b 275 40 260 25 267 32 b 294 67 282 49 289 57 b 318 128 306 86 314 107 b 327 196 324 153 326 175 b 327 226 327 206 327 216 b 327 257 328 236 328 246 b 316 318 326 276 323 297 b 274 375 308 339 293 360 b 259 385 269 379 264 382 b 243 393 254 388 248 391 b 208 404 231 398 220 402 b 173 407 197 406 185 407 b 167 406 171 407 170 407 b 167 406 167 406 167 406 l 167 407 b 166 411 167 408 167 409 l 166 412 b 166 412 166 412 166 412 l 166 414 l 166 417 b 166 429 166 421 166 425 b 165 479 165 445 165 462 b 166 529 165 497 165 514 b 166 535 166 531 166 533 l 166 537 l 166 539 l 166 540 l 166 540 b 167 542 167 541 167 542 b 169 545 168 544 168 545 b 170 545 169 545 169 545 b 173 543 171 544 172 544 b 174 542 174 543 174 542 l 175 542 l 175 542 b 177 542 175 542 176 542 b 208 542 187 541 198 542 b 263 550 229 544 249 546 b 261 571 292 557 301 566 b 241 574 255 572 248 573 b 288 575 256 574 272 575 b 301 579 293 576 297 577 b 299 577 300 578 300 578 b 289 569 294 573 290 571 b 291 563 287 567 288 565 b 308 562 294 561 300 560 b 334 580 317 564 327 569 b 339 589 336 583 338 586 b 342 599 340 592 342 595 b 343 622 344 606 344 614 b 332 646 341 631 338 639 z m 141 76 b 143 75 142 76 142 75 b 141 76 142 75 142 76 z "},"6":{"ha":368,"x_min":0,"x_max":0,"o":"m 320 572 b 282 619 311 590 298 606 b 256 634 274 625 265 630 b 228 643 247 638 238 641 b 198 645 218 645 208 646 b 168 638 188 644 178 642 b 143 623 159 634 150 629 b 122 601 135 616 128 609 b 94 550 110 586 101 568 b 76 493 87 531 81 512 b 53 376 67 454 59 415 b 42 134 41 294 34 218 b 46 100 43 123 45 112 b 53 66 48 89 50 78 b 67 30 57 54 61 42 b 91 -3 73 19 81 7 b 126 -29 101 -14 113 -23 b 169 -39 140 -35 154 -38 b 211 -32 184 -39 198 -37 b 247 -13 224 -27 236 -21 b 274 13 257 -5 266 4 l 280 21 l 285 28 b 289 36 287 31 288 33 b 293 44 291 39 292 41 b 305 75 298 54 302 65 b 313 108 309 86 311 97 b 315 172 316 129 317 151 b 304 236 314 194 310 215 b 283 289 299 254 292 272 b 246 333 273 306 261 321 b 191 360 228 348 210 356 b 162 364 182 363 172 364 l 159 364 b 156 364 158 364 156 364 l 153 365 b 148 365 151 365 150 365 b 144 366 147 366 145 366 l 144 366 l 143 366 b 144 366 143 366 144 366 l 144 369 l 146 373 b 148 380 146 376 147 378 b 149 388 148 379 149 385 b 151 400 150 392 150 396 b 155 423 152 407 153 415 b 178 515 160 454 168 485 b 192 543 182 525 186 536 b 194 546 192 544 193 545 l 195 548 b 197 550 196 549 197 549 b 204 550 199 551 202 551 b 217 533 210 547 215 542 b 216 506 219 524 218 514 b 212 496 214 503 213 499 l 210 490 l 209 487 l 209 486 l 209 486 l 208 482 b 208 456 206 474 206 464 b 220 432 210 447 215 439 b 241 417 226 426 234 420 b 263 412 248 414 255 412 b 301 424 277 411 291 416 b 311 436 305 428 309 432 b 315 448 313 441 314 445 b 313 459 316 454 314 458 b 305 455 311 460 309 458 b 299 448 304 453 302 451 b 288 441 296 446 292 443 b 270 440 282 439 276 439 b 299 462 283 439 295 446 b 302 475 300 466 301 470 b 306 461 302 468 304 463 b 320 470 309 458 314 461 b 331 512 325 479 330 493 b 330 541 332 521 332 531 b 320 572 328 552 325 562 z m 177 77 b 177 77 177 77 177 77 b 177 77 177 77 177 77 z m 181 56 b 184 56 182 56 183 56 b 181 56 183 56 182 56 z m 198 282 b 197 281 198 281 197 281 b 193 277 195 280 194 278 b 190 265 191 273 190 269 b 190 260 190 263 190 261 b 191 256 190 258 190 257 b 198 251 192 254 193 252 b 220 235 206 249 214 243 b 235 207 227 227 232 217 b 239 174 238 196 240 185 b 232 141 239 163 236 151 b 213 114 227 131 220 121 b 207 108 211 112 209 110 b 202 103 205 106 203 104 b 190 95 198 100 194 97 b 180 88 187 92 183 90 b 176 87 178 88 177 87 b 175 87 176 87 176 87 b 175 87 175 87 175 87 b 166 95 172 89 169 92 b 156 108 163 99 159 103 b 140 139 150 117 145 128 b 134 170 137 149 134 159 b 144 202 134 182 140 191 b 149 230 147 211 149 220 b 148 244 149 235 149 239 b 147 247 148 245 148 246 b 147 247 147 247 147 247 b 152 256 148 248 146 250 b 168 259 157 260 163 262 b 176 256 171 257 174 256 b 183 261 178 257 180 258 b 190 270 185 263 188 266 b 188 282 191 273 191 277 b 184 286 187 283 185 285 b 195 283 187 285 191 284 b 198 282 196 283 197 282 z "},"7":{"ha":351,"x_min":0,"x_max":0,"o":"m 254 248 b 255 254 254 250 254 252 l 255 256 b 255 256 255 256 255 256 l 255 256 b 254 258 255 257 254 257 b 253 261 254 259 253 260 b 254 263 253 262 254 262 b 261 273 256 265 260 269 b 242 286 262 276 259 281 b 233 288 239 286 236 287 b 230 282 232 286 231 284 b 232 290 231 285 231 287 b 263 287 242 289 253 288 b 275 289 267 286 271 287 b 273 287 274 288 273 287 b 263 280 269 284 265 282 b 264 274 261 278 262 276 b 281 271 267 272 273 270 b 305 283 288 272 297 276 b 321 317 312 290 320 302 b 318 338 321 324 321 331 b 306 358 316 345 311 352 b 286 371 300 364 293 368 b 283 372 285 371 284 371 l 282 372 b 282 372 282 372 282 372 l 282 372 l 282 372 l 281 372 b 279 371 281 371 280 371 b 272 369 277 370 275 370 b 271 369 272 369 271 369 l 271 370 l 271 370 b 270 372 271 371 270 371 b 270 376 270 373 270 375 b 269 382 270 378 269 380 b 271 394 270 386 271 390 b 278 445 273 411 276 428 b 304 548 285 478 295 513 b 309 575 306 557 308 566 b 307 603 309 585 310 594 b 291 625 305 612 299 620 b 265 633 283 631 274 633 b 237 634 255 634 246 634 l 209 634 b 154 636 191 635 172 635 b 94 636 134 636 114 636 b 65 637 85 636 75 636 l 62 637 l 57 636 l 52 635 b 47 634 50 635 49 634 b 29 622 40 631 34 627 b 14 582 19 613 13 597 b 35 543 14 567 22 552 b 58 536 42 539 50 536 b 70 536 62 535 66 536 l 74 536 l 78 536 b 107 536 88 536 97 536 b 173 536 129 536 151 536 l 190 536 l 198 536 b 198 536 198 536 198 536 b 198 536 198 536 198 536 b 198 536 198 536 198 536 b 199 536 198 536 198 536 l 199 536 b 199 535 199 536 199 536 l 198 535 l 197 531 l 195 524 b 180 466 190 504 185 485 b 171 412 176 448 173 430 b 167 386 169 403 168 394 l 167 384 l 167 383 l 167 382 l 167 379 l 167 373 b 147 370 161 372 155 371 b 125 361 140 369 132 366 b 111 343 119 357 114 350 b 114 300 105 329 106 312 b 130 286 118 293 123 288 b 141 283 134 284 137 284 b 151 283 144 283 148 283 b 161 284 154 284 158 284 b 145 203 157 257 152 230 b 112 101 135 162 123 135 b 97 54 106 86 101 70 b 94 42 96 50 95 46 l 92 35 l 92 34 b 91 32 92 33 91 33 l 90 27 b 92 4 89 19 90 11 b 103 -17 94 -4 98 -11 b 145 -39 113 -29 129 -37 b 189 -25 161 -41 177 -36 b 202 -4 195 -19 199 -12 b 204 2 203 -2 203 0 b 204 4 204 3 204 3 l 205 6 l 206 14 l 207 21 l 209 28 b 211 42 209 33 210 37 b 239 197 218 85 225 162 b 254 248 246 213 251 231 z "},"8":{"ha":397,"x_min":0,"x_max":0,"o":"m 343 227 b 338 242 342 231 340 237 b 334 251 337 245 335 248 b 330 259 333 253 331 256 b 328 263 329 260 328 262 b 327 265 327 264 327 265 b 324 269 326 266 325 267 b 324 271 324 270 324 270 l 324 272 l 324 272 l 324 273 l 325 274 l 325 278 b 340 342 330 303 334 327 b 347 427 351 369 352 406 b 326 428 343 449 334 455 b 322 413 324 423 323 418 b 323 446 322 424 323 435 b 324 456 324 450 324 453 b 342 455 329 442 337 444 b 351 486 346 462 349 473 b 348 532 352 500 352 516 b 333 575 344 546 340 561 b 306 616 327 590 318 604 b 264 641 295 628 280 636 b 216 645 248 645 232 646 b 128 610 184 641 154 629 b 92 576 115 600 103 589 b 66 535 82 564 73 550 b 44 436 51 504 43 471 b 51 384 44 419 46 401 b 55 371 52 380 53 375 b 60 357 56 367 58 362 b 77 332 65 348 70 340 b 85 322 79 328 83 325 b 86 321 86 322 86 321 l 86 320 b 86 319 86 320 86 319 b 84 319 85 319 85 319 l 84 319 l 84 319 l 84 318 b 83 318 84 318 84 318 l 83 317 l 81 314 l 77 309 b 65 289 73 303 68 296 b 60 278 63 285 61 282 b 55 267 58 274 56 271 b 39 176 43 238 38 206 b 47 120 39 156 42 138 b 67 70 52 103 58 86 b 99 27 76 54 87 39 b 144 -5 112 14 127 3 b 190 -16 158 -11 174 -15 b 236 -10 205 -17 221 -15 b 282 11 254 -5 268 3 b 317 43 294 19 306 29 b 352 128 335 66 347 96 b 354 177 354 144 355 161 b 343 227 352 194 349 211 z m 212 61 b 206 71 211 65 208 69 b 202 75 204 73 203 74 b 200 76 201 75 200 76 b 198 77 199 77 199 77 b 192 75 196 78 195 77 b 181 72 189 73 185 72 b 168 76 177 72 173 74 b 146 99 160 81 152 89 b 134 130 140 108 136 119 b 135 164 132 142 132 153 b 149 195 138 176 143 186 b 168 221 155 205 162 213 b 178 233 172 225 175 229 b 187 245 181 237 184 241 b 192 251 189 247 190 249 b 191 252 192 252 191 252 b 192 256 191 253 191 254 b 192 257 192 257 192 257 b 193 258 192 258 193 258 b 198 260 194 259 196 260 b 200 260 198 260 199 260 b 203 259 200 260 202 260 b 210 256 205 258 207 257 b 235 238 219 252 228 246 b 250 212 242 231 248 222 b 243 181 253 199 247 190 b 234 127 236 163 235 145 b 231 106 233 121 233 113 b 227 97 230 103 229 100 b 220 92 225 95 223 93 b 208 79 211 90 209 86 b 209 68 208 76 208 72 b 219 61 211 65 213 62 b 225 61 221 60 223 60 b 215 55 222 58 218 56 b 211 54 214 54 212 54 b 212 55 211 54 212 54 b 212 61 212 57 212 59 z m 181 546 b 204 553 189 543 198 544 b 218 565 208 558 213 562 b 227 569 221 567 224 568 b 236 570 230 570 233 570 b 252 558 243 570 249 564 b 259 534 256 551 258 542 b 258 509 259 526 259 517 b 255 484 257 501 256 492 b 230 411 249 458 238 435 b 225 392 228 404 226 398 b 223 382 224 388 224 385 l 223 381 l 223 381 l 223 381 l 223 381 l 223 381 b 224 380 223 381 223 381 b 225 378 224 380 224 379 l 225 376 b 226 374 226 376 226 375 l 226 374 b 225 370 226 372 226 371 b 223 369 224 370 224 369 l 221 368 b 219 368 220 368 220 368 l 223 366 b 182 376 209 369 195 371 b 154 393 172 379 161 384 b 151 397 153 394 152 396 b 149 401 150 398 150 400 b 147 409 148 403 148 406 b 147 417 147 411 147 414 b 148 424 147 419 148 422 b 149 431 148 426 149 429 b 149 438 149 433 149 435 b 150 452 150 442 150 447 b 149 479 149 461 149 470 b 151 501 149 485 149 493 b 163 517 153 508 157 515 b 178 536 173 520 177 528 b 164 552 179 544 177 554 b 158 551 162 552 160 552 b 168 559 161 554 164 557 b 171 562 169 560 170 561 b 181 546 169 554 175 548 z "},"9":{"ha":372,"x_min":0,"x_max":0,"o":"m 224 330 l 224 330 b 224 330 224 330 224 330 l 224 330 l 223 327 b 222 322 223 326 222 324 b 220 314 221 319 221 317 b 214 293 217 303 215 297 b 212 288 213 291 213 289 l 212 287 b 212 287 212 287 212 287 l 212 287 l 212 284 l 212 278 b 211 267 211 274 211 271 b 212 174 210 237 210 205 b 215 36 213 135 221 69 b 214 30 215 34 214 32 b 214 20 214 27 214 24 b 221 -1 215 13 218 6 b 237 -17 225 -7 230 -13 b 257 -27 243 -22 250 -25 b 296 -24 270 -30 284 -29 b 321 0 307 -19 317 -10 b 325 24 326 10 326 18 b 320 32 324 29 321 31 b 314 27 318 32 316 31 b 303 11 312 23 309 17 b 289 4 299 7 294 5 b 305 31 299 8 306 18 b 305 42 305 35 305 38 b 323 42 311 27 318 30 b 326 120 330 57 332 88 b 305 303 314 174 307 237 b 318 502 303 368 307 437 b 328 560 321 522 324 541 l 329 563 b 330 567 329 565 329 566 b 330 577 330 571 330 574 b 322 598 329 584 327 592 b 305 611 318 603 312 608 b 301 613 304 612 302 612 l 298 614 l 297 614 b 294 615 296 615 295 615 b 292 619 293 616 293 618 l 292 620 l 291 621 b 289 624 290 622 290 623 b 284 629 287 625 286 627 b 263 645 278 635 271 641 b 209 660 247 655 228 659 b 145 645 186 660 165 654 b 92 607 125 636 107 623 b 82 595 88 603 85 599 b 72 583 78 591 75 587 b 64 570 69 579 66 575 b 56 557 61 566 58 562 b 33 501 46 539 38 520 b 32 387 23 463 22 423 b 102 299 41 350 65 314 b 152 294 118 293 135 291 b 175 301 160 295 168 298 b 187 306 179 303 183 304 b 192 309 188 307 190 308 b 196 312 193 310 195 311 b 221 330 210 320 217 327 b 224 330 222 331 223 331 z m 195 424 b 194 421 195 423 194 422 b 177 430 191 428 184 431 b 162 414 169 430 162 424 b 161 400 162 409 162 404 b 160 393 161 397 160 395 b 159 389 159 392 159 391 b 158 387 159 389 158 388 b 152 375 157 383 155 379 b 141 366 150 371 146 368 b 127 367 137 364 131 365 b 118 380 123 370 120 375 b 116 387 117 382 117 384 b 115 394 115 389 115 392 b 114 402 115 397 114 399 b 115 409 115 404 115 407 b 127 437 117 420 122 429 b 145 461 133 446 139 453 b 160 486 151 469 156 478 b 167 499 163 490 165 495 b 172 512 168 503 170 507 b 184 539 176 521 180 530 b 193 552 187 543 189 548 b 203 562 196 556 199 559 b 214 566 206 564 210 566 b 225 561 218 566 222 564 b 228 550 228 558 228 553 b 226 543 228 547 227 544 b 225 542 226 542 226 542 b 224 541 225 541 224 541 b 220 538 222 539 221 539 b 217 537 219 537 218 537 l 216 536 b 216 536 216 536 216 536 l 215 535 b 210 525 213 532 211 528 b 202 502 207 517 204 510 b 186 464 199 491 197 470 b 176 440 176 459 173 449 b 195 431 178 432 185 426 b 200 434 197 432 198 433 b 195 424 198 431 197 427 z "},"\u0000":{"ha":0,"x_min":0,"x_max":0,"o":""},"\n":{"ha":0,"x_min":0,"x_max":0,"o":""},"\r":{"ha":0,"x_min":0,"x_max":0,"o":""}," ":{"ha":243,"x_min":0,"x_max":0,"o":""},"!":{"ha":214,"x_min":0,"x_max":0,"o":"m 61 332 b 50 222 51 298 50 261 b 51 202 50 216 51 209 b 52 177 51 194 52 185 b 52 171 52 175 52 173 b 52 169 52 170 52 169 l 52 166 b 52 161 52 165 52 163 b 57 144 53 155 55 149 b 78 120 63 133 71 126 b 102 111 84 115 93 112 b 129 115 111 110 121 111 b 149 131 137 118 145 124 b 158 150 154 137 157 144 b 157 164 159 156 158 161 b 152 170 156 168 154 170 b 146 167 150 170 148 169 b 138 158 144 165 141 162 b 130 152 136 155 133 153 b 138 171 135 157 137 163 b 138 177 138 173 138 175 b 164 224 150 156 173 188 b 151 462 146 294 141 380 b 172 587 157 505 167 544 b 173 596 172 590 172 593 l 173 600 b 173 608 173 603 173 605 b 161 638 172 619 168 630 b 134 658 154 647 145 654 b 119 661 129 660 124 661 b 102 661 113 662 107 662 b 71 648 91 659 80 655 b 53 621 63 641 57 631 b 51 605 52 616 51 610 l 51 600 b 51 598 51 599 51 599 l 51 594 b 54 576 52 588 53 582 b 75 447 60 532 70 492 b 76 389 77 428 78 408 b 61 332 74 366 67 351 z m 172 29 b 159 53 170 38 166 46 b 142 66 155 58 148 62 b 132 73 138 68 135 71 b 128 76 131 74 129 75 b 125 80 127 77 126 78 b 111 88 122 85 116 87 b 97 84 105 88 100 87 b 98 62 90 78 91 69 b 101 59 99 61 100 60 b 94 59 98 59 96 59 b 91 58 93 59 92 58 b 89 77 94 65 93 72 b 77 81 86 80 82 82 b 63 72 72 81 67 78 b 55 47 59 64 56 55 l 59 51 b 44 18 52 39 48 28 b 36 -16 40 7 38 -4 b 35 -43 35 -25 34 -34 b 45 -72 36 -53 39 -63 b 76 -93 52 -82 63 -90 b 95 -94 82 -94 89 -95 b 113 -88 101 -93 107 -91 b 136 -65 124 -83 131 -74 b 146 -39 141 -56 144 -47 b 153 -18 148 -32 150 -25 b 157 -13 154 -17 155 -15 b 161 -8 158 -11 159 -10 b 165 -3 163 -7 164 -5 b 169 3 167 -1 168 1 b 172 29 174 11 175 20 z "},"#":{"ha":404,"x_min":0,"x_max":0,"o":"m 356 280 b 327 295 346 291 334 294 b 315 292 319 295 315 293 b 316 289 314 291 315 290 b 322 285 317 288 320 286 b 341 264 328 281 336 275 b 344 240 345 256 345 247 b 313 278 345 257 335 276 b 296 279 308 278 302 279 b 306 281 300 280 303 280 b 314 288 312 283 315 286 b 309 293 313 290 312 291 b 307 294 309 293 308 294 l 306 294 b 305 295 306 295 305 295 b 303 297 305 296 304 296 b 297 302 300 299 298 301 b 297 303 297 303 297 303 l 297 303 l 298 304 l 298 305 b 300 308 299 306 299 307 b 301 310 300 309 300 309 l 301 311 l 301 311 l 301 312 l 302 315 b 303 321 302 317 303 319 l 304 324 b 304 324 304 325 304 324 l 304 325 b 304 327 304 326 304 326 l 304 329 b 304 329 304 329 304 329 l 305 330 b 308 331 306 330 307 331 l 311 333 l 316 334 b 321 336 318 334 320 335 b 341 348 329 338 336 343 b 353 368 346 354 350 360 b 356 390 355 375 356 382 b 336 426 355 405 348 419 b 316 432 330 430 323 432 b 312 432 315 432 314 432 b 330 533 317 465 323 499 b 341 594 333 553 337 573 b 344 609 342 599 343 604 b 344 625 346 614 346 620 b 323 648 342 636 333 644 b 292 645 313 652 301 651 b 282 632 288 642 284 637 b 278 617 280 627 280 622 b 263 555 273 596 268 576 b 231 433 253 514 242 473 b 226 417 229 427 227 422 b 209 416 220 416 214 416 l 206 416 l 203 416 l 198 416 l 196 416 l 195 416 b 195 418 195 416 195 417 l 198 425 b 202 439 199 430 201 434 l 204 445 b 205 447 204 445 204 446 l 205 449 l 207 454 b 218 492 211 466 215 479 b 242 568 226 517 234 543 b 253 607 245 581 249 594 l 254 612 l 255 615 l 255 616 b 256 618 256 616 256 617 b 257 636 257 623 258 630 b 242 670 256 648 251 661 b 226 682 237 675 232 679 b 207 689 221 685 214 688 b 168 683 194 691 180 689 b 142 652 156 676 146 665 l 141 649 b 140 647 141 648 140 647 l 140 644 l 138 639 l 136 628 b 115 542 129 600 122 571 b 97 455 109 513 103 484 l 93 433 l 92 428 l 92 425 b 92 425 92 425 92 425 l 92 425 b 92 424 92 425 92 425 l 92 424 b 92 424 92 424 92 424 l 91 423 l 90 423 l 87 422 l 84 421 b 80 420 82 421 81 421 b 71 418 77 420 74 419 b 53 407 65 415 59 411 b 40 391 48 402 43 397 b 35 350 33 378 32 364 b 44 332 37 344 40 338 b 57 318 47 326 52 322 b 75 309 63 314 69 311 l 78 309 b 77 299 77 305 77 302 l 75 289 l 75 287 l 75 286 l 75 284 l 75 279 l 75 277 l 75 276 b 74 275 75 275 75 275 l 68 274 b 66 274 67 274 67 274 l 63 273 b 53 269 60 272 57 270 b 39 254 47 265 42 259 b 34 235 36 248 34 241 b 35 217 33 229 34 223 b 44 200 37 211 40 205 b 59 189 48 196 53 192 b 67 187 61 188 64 187 b 63 149 65 174 64 162 b 55 74 60 125 58 100 l 53 55 b 52 45 53 52 52 49 b 53 34 52 42 52 38 b 65 17 55 27 59 21 b 85 10 71 13 78 11 b 110 16 94 10 103 12 b 126 34 117 20 123 27 b 130 45 128 38 129 41 b 131 54 130 48 131 51 b 135 72 133 60 134 66 b 146 114 138 86 142 100 b 145 105 145 111 145 108 b 144 87 144 99 144 93 l 143 78 l 143 74 l 143 72 b 143 72 143 72 143 72 b 143 72 143 72 143 72 b 142 64 143 73 142 68 b 142 53 142 61 142 57 b 143 48 143 52 143 50 l 144 44 l 145 40 b 146 36 145 39 145 38 b 173 3 150 21 160 9 b 216 -1 185 -4 201 -5 b 222 1 218 0 220 1 b 227 4 223 2 225 3 b 237 10 230 6 233 8 b 252 30 243 15 249 22 b 256 43 254 34 256 38 b 257 49 257 45 257 47 l 257 52 l 257 54 l 257 55 b 257 69 257 59 257 64 b 258 98 257 79 257 89 b 265 155 259 118 262 137 b 270 180 266 164 268 172 b 271 182 270 181 271 182 l 271 184 b 272 185 271 184 272 185 b 272 186 272 185 272 186 b 274 187 273 187 273 187 b 275 188 274 188 275 188 b 278 186 277 187 278 187 l 279 186 b 280 186 279 186 279 186 l 288 185 b 305 184 294 185 299 185 l 310 184 b 319 184 313 184 316 184 b 336 187 325 184 330 185 b 361 206 346 190 355 197 b 371 234 367 214 370 224 b 356 280 373 253 365 271 z m 154 264 b 154 266 154 265 154 265 b 156 265 155 266 155 265 b 154 264 155 265 155 265 z m 168 177 l 167 177 l 163 176 b 162 176 163 176 162 176 l 162 177 l 163 178 b 164 178 163 178 164 178 l 168 178 l 168 178 l 168 177 l 168 177 z m 202 303 b 200 300 201 302 201 301 b 197 296 200 298 199 297 b 193 294 196 296 195 294 b 185 294 191 293 188 293 b 178 295 181 294 179 295 b 177 295 177 295 177 295 b 176 294 177 295 176 295 b 175 290 176 293 176 291 b 167 291 172 289 170 289 b 164 303 165 295 164 299 b 165 317 163 307 163 312 b 172 328 166 322 169 326 b 177 330 173 329 175 330 b 181 328 178 330 180 329 b 185 325 182 327 184 326 b 194 317 189 322 192 319 b 201 311 197 316 200 314 b 202 306 202 309 202 307 b 202 303 202 305 202 304 z "},"$":{"ha":397,"x_min":0,"x_max":0,"o":"m 358 559 b 357 564 358 561 357 562 l 355 568 b 352 577 354 571 353 574 b 342 594 349 583 346 589 b 317 623 335 605 326 615 b 259 651 297 638 276 648 b 246 653 254 652 250 653 b 253 694 249 663 252 677 b 253 701 253 696 253 699 l 254 703 l 254 704 b 254 705 254 704 254 705 b 253 712 254 707 254 710 b 244 737 252 721 249 730 b 222 754 238 745 230 751 b 194 758 213 758 203 759 b 183 756 190 758 186 757 b 172 751 179 754 175 753 b 155 736 165 747 159 742 b 147 714 150 729 148 722 b 146 709 147 713 146 711 l 146 706 b 146 704 146 705 146 704 l 147 696 b 151 644 148 679 150 662 l 144 641 b 135 637 141 640 138 638 b 124 631 132 635 128 633 b 114 623 121 628 117 626 b 77 588 100 613 88 601 b 45 492 57 560 45 526 b 52 441 44 475 46 457 b 74 394 57 424 64 409 b 107 355 84 380 95 367 l 117 346 l 127 337 l 137 329 b 142 325 138 328 140 326 l 147 322 l 152 317 l 155 315 b 155 312 155 314 155 313 l 155 305 l 154 301 l 154 297 b 153 262 154 285 153 274 b 149 194 151 239 150 217 b 147 160 148 183 147 172 l 146 159 l 146 159 l 146 158 l 146 157 l 145 154 b 144 149 145 152 144 151 b 141 145 143 147 142 145 b 139 146 141 144 141 143 b 136 150 138 147 137 149 b 134 156 135 152 134 154 l 133 157 l 133 157 b 133 157 133 157 133 157 l 132 158 l 131 159 l 130 160 l 126 162 b 119 165 124 163 121 164 b 103 168 113 167 108 168 b 87 167 97 169 92 168 b 71 163 82 167 76 165 b 46 143 61 158 52 151 b 34 113 39 134 35 124 b 40 82 33 103 35 92 b 47 70 42 76 45 73 l 49 67 l 53 62 b 64 47 56 57 60 52 b 91 19 72 38 81 28 b 125 -4 101 10 112 2 b 134 -8 128 -5 131 -7 l 139 -10 l 141 -11 b 142 -11 142 -11 142 -11 l 142 -11 l 144 -11 b 144 -12 144 -11 144 -11 l 145 -12 l 145 -12 b 145 -13 145 -12 145 -12 l 146 -16 b 147 -22 146 -18 147 -20 b 150 -28 148 -24 149 -26 b 167 -48 154 -36 160 -43 b 188 -58 173 -53 181 -56 b 212 -59 196 -60 204 -60 b 234 -51 220 -58 227 -55 b 250 -36 240 -47 246 -42 b 257 -15 254 -29 256 -22 b 257 -4 257 -11 257 -7 l 256 3 l 256 5 b 315 59 280 18 301 36 b 342 150 332 87 341 118 b 333 215 343 172 339 194 b 307 275 328 236 318 256 b 268 330 294 297 281 314 b 248 354 261 338 255 346 b 246 356 247 355 246 356 l 245 357 l 243 360 l 242 361 b 242 362 242 361 242 361 l 243 364 b 244 367 243 365 244 366 l 244 368 b 244 370 244 368 244 369 l 245 373 l 245 380 b 247 395 246 385 246 390 b 249 424 248 404 248 414 b 251 454 250 434 250 444 b 251 469 251 459 251 464 l 251 470 l 251 471 l 251 471 l 251 471 l 251 471 l 252 473 b 252 481 252 476 252 478 l 252 484 l 252 485 b 252 485 252 485 252 486 l 253 485 b 257 485 254 485 256 485 b 261 479 259 484 261 482 b 262 477 261 479 261 478 b 263 476 262 476 262 476 l 266 472 b 270 468 267 471 269 469 b 290 457 276 463 283 459 b 311 455 297 455 304 455 b 331 461 318 456 325 458 b 348 473 338 464 344 468 b 359 491 353 478 357 484 b 363 509 362 497 363 505 b 358 559 364 528 361 546 z m 155 460 b 144 442 153 453 148 448 b 130 431 138 441 132 438 b 129 426 130 429 129 427 b 125 432 128 428 126 430 b 124 435 125 433 124 434 b 140 444 130 435 136 439 b 138 459 144 450 146 456 b 111 491 125 464 114 476 b 126 531 108 505 113 522 b 132 535 127 532 130 534 b 133 529 132 533 133 531 b 153 481 139 512 149 498 b 155 460 155 474 156 467 z m 258 156 b 268 160 261 156 265 157 b 272 164 270 161 271 162 b 271 156 272 161 272 158 b 271 153 271 155 271 154 b 257 156 267 156 262 157 b 258 156 257 156 257 156 z m 229 173 b 228 183 228 176 228 179 b 229 173 229 179 229 176 z m 249 136 b 251 111 252 128 253 119 b 232 86 249 101 242 91 b 236 107 233 93 234 100 b 249 136 240 117 244 126 z m 226 636 b 226 650 226 641 226 645 b 240 638 230 636 235 633 b 252 631 243 636 247 634 b 269 619 258 627 263 623 b 226 636 255 627 241 632 z "},"%":{"ha":558,"x_min":0,"x_max":0,"o":"m 353 420 b 390 532 362 452 374 508 b 391 609 418 575 420 653 b 384 598 389 606 386 602 b 393 626 387 607 390 617 b 395 635 394 629 395 632 b 396 633 395 634 396 634 b 400 625 397 629 398 626 b 406 624 402 623 404 623 b 414 633 409 625 411 628 b 415 655 416 638 417 646 b 399 680 413 664 407 673 b 369 691 390 686 380 690 b 352 690 363 692 358 691 b 336 682 346 688 341 686 b 317 659 327 676 321 668 b 315 652 316 656 315 654 b 314 646 314 649 314 648 b 313 637 313 643 313 640 b 306 598 311 624 309 611 b 288 517 301 571 295 544 b 276 475 284 503 280 489 b 263 436 272 462 267 449 b 232 355 254 408 243 381 b 159 195 208 299 182 251 b 126 106 147 167 135 138 b 116 57 122 90 118 74 b 115 44 116 53 115 48 b 114 36 115 42 115 39 l 114 27 b 130 -12 114 12 120 -2 b 166 -27 139 -21 153 -27 b 203 -16 180 -28 193 -24 b 224 13 213 -9 221 2 b 226 22 225 16 225 19 l 226 26 b 226 29 226 27 226 28 b 226 39 226 32 226 36 b 239 126 226 67 231 96 b 250 165 242 139 246 152 b 263 204 254 178 258 191 b 299 276 274 233 287 252 b 353 420 322 319 339 368 z m 535 177 b 531 202 535 185 533 194 b 509 251 527 219 519 235 b 480 282 503 260 492 271 b 447 308 469 292 456 301 b 416 320 439 316 427 320 b 391 314 406 320 397 318 b 338 316 375 321 357 322 b 316 279 319 311 313 294 b 280 66 281 214 267 139 b 320 -7 285 37 297 10 b 341 -50 324 -22 330 -37 b 347 -57 343 -53 345 -55 b 354 -64 349 -60 351 -62 b 369 -74 358 -68 364 -71 b 408 -85 381 -81 394 -84 b 446 -79 421 -86 434 -83 b 478 -59 458 -74 469 -68 b 510 -3 496 -43 505 -22 b 516 54 514 17 515 36 b 520 103 517 70 518 87 b 533 152 523 122 530 135 b 535 177 535 160 536 168 z m 400 103 b 400 100 400 102 400 101 b 386 104 396 104 391 105 b 386 105 386 105 386 105 b 398 109 390 105 394 105 b 402 112 400 110 401 111 b 400 103 401 109 401 106 z m 155 354 b 176 366 164 356 172 361 b 180 380 180 371 182 376 b 180 380 180 380 180 380 b 182 381 181 380 182 380 b 187 379 184 380 185 379 b 196 379 190 379 193 379 b 206 384 199 380 202 382 b 215 392 209 386 212 389 b 219 398 216 394 217 396 b 221 404 220 400 220 402 b 221 404 221 404 221 404 b 254 552 256 441 261 505 b 216 638 249 581 237 616 b 191 678 211 652 204 666 b 166 694 184 685 175 690 b 135 699 156 697 146 699 b 107 694 125 699 116 697 b 89 685 101 692 94 689 b 79 675 85 682 82 679 b 70 668 75 673 72 671 b 66 664 68 667 67 666 b 64 662 66 664 65 663 b 63 661 64 662 64 661 l 60 655 b 53 643 57 651 55 647 b 48 631 51 639 50 635 b 44 618 47 627 45 622 b 36 568 39 602 37 585 b 33 526 34 554 34 540 b 25 480 32 509 27 496 b 58 397 23 452 35 422 b 89 374 65 390 77 381 b 125 357 102 367 116 362 b 155 354 134 353 145 352 z m 147 514 b 152 528 154 518 158 523 b 146 534 150 530 148 532 b 142 539 144 536 143 537 b 138 554 139 543 138 548 b 149 585 137 566 142 579 b 153 588 151 587 152 587 b 165 542 160 574 164 554 b 164 538 165 540 164 539 b 160 533 162 534 161 533 b 166 521 161 532 163 526 b 167 519 166 521 166 520 b 164 487 167 510 166 498 b 160 500 162 494 161 498 b 158 501 160 503 159 502 b 154 500 157 501 156 499 b 156 506 153 500 153 503 b 160 509 159 509 160 509 b 154 511 159 509 157 508 b 143 512 151 512 147 512 b 133 507 140 512 136 510 b 130 503 132 506 131 504 b 129 510 130 506 129 509 b 129 513 129 511 129 512 b 147 514 135 510 142 512 z "},"&":{"ha":467,"x_min":0,"x_max":0,"o":"m 445 16 b 436 32 443 23 439 28 b 430 36 434 34 432 35 b 425 39 428 38 426 38 b 413 40 418 42 414 42 b 416 32 411 39 412 36 b 421 23 417 30 419 27 b 425 10 423 20 424 15 b 420 -10 425 2 423 -4 b 406 28 425 4 423 19 b 394 34 402 30 398 32 b 403 50 414 30 415 38 b 370 76 396 57 384 67 b 346 89 362 80 354 85 b 333 96 342 91 338 93 b 327 99 331 97 329 98 b 324 100 326 99 324 100 l 323 100 b 318 101 322 100 320 101 b 316 102 318 101 317 102 l 314 102 b 314 103 314 103 314 103 b 315 107 314 104 315 105 b 315 109 315 107 315 108 l 315 114 b 315 118 315 115 315 117 b 310 136 315 124 313 131 b 299 148 307 141 303 145 b 270 159 290 155 280 159 b 262 159 267 159 265 159 b 258 159 261 159 260 159 l 256 158 b 255 158 256 158 256 158 b 248 154 253 157 250 155 b 246 152 247 153 247 153 l 246 151 b 245 151 245 151 245 151 l 242 153 b 236 159 240 155 238 157 l 234 162 l 232 164 l 230 166 b 223 175 228 169 226 172 b 216 184 221 178 219 181 l 210 192 b 205 200 208 195 206 197 l 204 201 b 204 201 204 201 204 201 l 205 202 l 206 205 l 209 209 l 215 218 l 221 227 b 234 247 226 234 230 241 b 262 287 243 260 252 273 b 317 366 280 313 298 340 b 372 445 335 392 355 418 b 388 475 378 455 383 465 b 395 491 391 480 393 486 b 401 507 397 496 400 501 b 410 575 408 528 412 552 b 388 645 409 599 402 623 b 362 675 381 656 373 666 b 354 681 360 677 357 679 l 346 687 b 337 692 343 689 340 690 b 327 696 334 694 330 695 b 306 702 320 699 313 701 b 284 705 299 704 291 705 b 242 701 270 706 255 705 b 167 670 214 696 190 684 b 136 645 156 662 145 654 l 129 638 b 125 635 127 637 126 636 l 122 631 l 109 616 b 70 547 92 595 79 571 b 53 475 61 523 56 499 b 54 405 51 451 51 428 b 89 270 58 358 71 313 b 104 237 94 259 99 248 b 112 220 107 231 109 226 l 119 207 b 107 188 115 201 111 195 b 93 168 102 182 98 175 b 61 112 80 147 70 130 b 39 55 52 94 44 76 b 35 25 37 46 35 36 b 39 -10 34 14 35 2 b 57 -44 42 -22 49 -34 b 89 -67 66 -54 77 -62 b 165 -73 113 -77 139 -80 b 200 -57 177 -69 189 -64 b 227 -33 210 -50 219 -42 b 239 -19 231 -29 235 -24 b 245 -12 241 -17 243 -14 b 248 -8 246 -10 247 -9 l 249 -6 l 249 -5 b 259 11 252 0 255 6 b 266 7 261 10 263 8 b 290 -8 274 2 282 -3 b 330 -34 305 -17 320 -26 b 354 -51 337 -40 346 -46 l 358 -53 l 359 -54 b 362 -55 360 -54 360 -54 b 375 -60 366 -57 370 -59 b 404 -59 384 -62 395 -62 b 428 -46 413 -57 422 -52 b 443 -27 435 -41 439 -34 b 445 16 450 -13 450 3 z m 208 323 b 226 348 213 331 219 340 b 208 323 220 339 214 331 z m 129 18 b 131 14 130 16 130 15 b 125 17 129 14 127 15 b 124 18 124 17 124 17 b 129 22 126 19 128 20 b 131 24 130 23 130 24 l 131 25 b 132 26 132 26 132 26 b 129 18 130 23 129 21 z m 196 83 b 195 80 196 82 196 81 b 190 74 194 78 192 76 b 181 71 188 72 185 71 b 170 69 178 70 174 70 b 161 66 167 68 164 67 b 155 61 159 64 157 62 b 146 49 151 57 148 53 b 141 39 144 46 143 42 b 136 37 139 37 138 36 b 133 40 135 38 134 39 b 133 41 133 41 133 41 b 133 40 133 41 133 40 b 130 46 132 42 131 44 b 127 65 128 52 127 59 b 131 84 127 72 128 78 b 142 99 133 89 137 96 b 155 101 146 102 151 103 b 163 92 159 100 161 96 b 164 85 164 89 164 87 b 166 89 164 82 164 86 b 170 92 167 90 168 91 b 173 92 171 92 172 92 b 174 92 173 92 174 92 b 176 92 175 93 175 92 b 177 92 176 92 176 92 b 194 86 181 92 188 90 b 196 85 195 86 196 85 b 196 83 197 84 196 84 z m 192 355 b 184 344 189 352 186 348 l 180 338 l 179 335 l 178 334 b 178 334 178 334 178 334 b 178 329 178 333 179 332 b 175 316 178 326 177 322 l 174 312 l 174 311 b 174 311 174 311 174 311 l 173 311 b 173 311 173 311 173 311 b 169 310 172 310 171 310 b 161 317 167 311 164 313 b 157 324 160 319 158 321 b 154 328 156 325 155 326 b 152 334 154 330 153 332 b 143 378 147 348 143 363 b 154 423 143 397 149 409 b 177 500 164 448 169 474 b 188 529 180 508 183 519 b 193 535 190 531 191 533 b 198 541 195 537 196 539 b 209 548 202 545 205 547 b 218 552 212 549 215 551 b 226 558 221 554 224 556 b 232 564 228 560 231 562 b 237 572 234 567 236 569 b 226 590 242 581 241 591 b 218 589 223 590 220 589 b 232 597 223 592 227 595 b 237 600 234 598 235 599 b 236 592 235 597 235 594 b 245 583 237 587 240 585 b 260 582 250 581 255 581 b 276 589 266 583 271 585 b 307 593 285 595 295 599 b 321 579 312 590 317 585 b 330 558 325 573 328 565 b 325 509 333 542 331 525 b 300 467 319 494 310 480 b 264 432 289 454 276 443 b 245 415 258 426 251 421 b 226 397 238 409 232 403 b 192 355 213 384 202 370 z "},"(":{"ha":392,"x_min":0,"x_max":0,"o":"m 313 738 b 283 762 306 750 294 759 b 267 763 277 764 271 764 b 256 760 262 763 259 762 b 250 756 253 759 251 757 b 248 753 249 755 248 754 b 255 749 248 751 251 749 b 275 742 260 748 267 747 b 286 728 280 738 284 733 b 253 739 279 738 268 744 b 242 735 249 738 245 736 b 250 745 247 739 249 742 b 236 752 251 750 246 752 b 196 741 226 752 212 749 b 154 705 181 733 166 721 b 103 614 133 678 116 647 b 69 511 89 581 78 546 b 40 288 50 439 40 363 b 48 173 40 249 42 211 b 59 117 51 155 54 136 b 75 60 63 98 68 79 b 136 -55 89 20 109 -19 b 158 -80 143 -63 150 -72 b 170 -92 162 -84 166 -88 l 172 -93 l 175 -96 b 181 -100 177 -97 179 -99 b 194 -107 185 -103 190 -105 b 224 -109 204 -110 214 -111 b 238 -104 229 -108 233 -106 b 250 -97 242 -102 247 -100 b 269 -75 257 -92 264 -84 b 275 -48 273 -67 275 -57 b 268 -22 275 -39 272 -30 b 260 -11 266 -18 263 -14 l 257 -9 l 256 -8 l 256 -7 l 253 -5 l 247 0 l 242 4 b 233 14 239 7 236 11 b 197 56 220 26 208 41 b 143 157 176 86 158 120 b 119 258 131 189 122 224 b 120 312 117 279 118 296 b 128 360 122 328 125 343 b 180 545 140 420 154 483 b 214 609 187 564 198 589 b 264 647 229 630 249 644 l 269 648 b 275 649 271 648 273 649 l 277 650 l 278 650 l 279 650 l 280 651 b 286 652 282 651 284 652 b 292 655 288 653 290 654 b 311 672 299 659 306 665 b 320 695 315 679 319 687 b 313 738 323 711 320 726 z "},")":{"ha":388,"x_min":0,"x_max":0,"o":"m 324 554 b 289 627 317 575 304 602 b 247 692 275 652 257 675 b 208 731 238 707 223 721 b 163 751 192 741 176 748 b 148 752 157 752 152 752 b 140 749 143 752 141 751 b 142 742 139 748 139 745 b 155 731 144 739 149 736 b 168 721 160 727 164 724 b 135 736 158 726 146 732 b 124 738 131 737 127 738 b 126 739 124 738 125 739 b 136 743 131 740 134 741 b 137 749 138 744 139 746 b 125 757 135 751 132 755 b 97 754 118 759 108 759 b 74 727 87 748 78 739 b 72 688 69 716 68 702 b 83 669 74 681 78 674 b 101 656 88 663 95 659 b 110 653 104 655 107 654 l 115 652 b 125 650 118 652 122 651 b 135 646 128 649 132 648 b 145 642 138 645 142 644 b 182 617 158 636 171 628 b 235 532 206 595 223 565 b 257 428 247 499 254 464 b 256 320 260 392 259 356 b 240 214 254 283 249 248 b 207 116 232 180 221 147 l 204 110 l 201 104 l 195 92 b 188 80 193 88 190 84 b 181 69 186 76 184 72 l 174 58 b 170 53 172 56 171 54 l 166 47 l 158 37 b 149 27 155 34 152 30 l 138 15 b 125 -11 132 7 127 -2 b 127 -40 123 -21 124 -31 b 132 -54 128 -45 130 -49 b 140 -65 135 -58 137 -62 b 151 -75 143 -68 147 -72 b 163 -82 155 -77 159 -80 b 191 -87 172 -85 181 -87 b 217 -78 200 -86 209 -83 b 228 -70 221 -76 224 -73 b 231 -66 229 -68 230 -67 l 233 -63 b 243 -50 237 -58 240 -54 b 252 -38 246 -46 250 -42 b 260 -25 255 -33 258 -29 b 268 -12 263 -21 266 -16 l 275 1 b 281 15 277 6 279 10 b 292 42 285 24 289 32 b 319 155 305 78 313 116 b 330 256 324 187 326 222 b 344 356 334 295 340 322 b 324 554 352 417 347 486 z "},"*":{"ha":431,"x_min":0,"x_max":0,"o":"m 398 610 b 375 631 392 620 383 627 b 358 635 369 634 363 635 b 362 662 362 643 363 653 b 345 695 360 675 354 687 b 324 705 338 701 331 704 b 301 703 316 706 308 706 b 296 701 299 702 298 701 b 292 698 295 700 293 699 b 284 692 289 696 286 694 b 274 681 281 688 277 685 b 249 658 266 674 258 666 l 242 652 l 239 649 l 237 648 l 236 647 b 236 648 236 647 236 647 b 235 663 236 653 236 658 b 235 680 235 669 235 674 b 234 689 235 683 234 686 b 230 697 233 691 232 694 b 198 712 224 708 211 713 b 181 706 192 712 186 710 b 170 691 176 703 172 697 b 168 682 169 688 168 685 l 168 672 l 167 661 b 155 672 163 665 159 668 b 138 689 149 677 144 683 l 134 693 l 132 695 b 130 697 132 696 131 696 b 118 706 127 701 122 704 b 86 707 108 710 97 711 b 60 687 76 704 66 697 b 53 653 53 678 50 665 b 60 636 54 648 56 642 b 63 631 61 635 62 633 b 37 612 53 627 44 620 b 27 593 33 606 30 600 b 24 571 25 586 24 578 b 37 532 23 557 28 543 b 58 515 42 524 50 519 b 50 497 54 510 52 504 b 56 459 47 484 49 470 b 69 445 60 454 64 449 b 85 436 74 441 79 438 b 120 439 97 432 110 433 b 134 449 125 441 130 445 l 139 455 b 165 486 146 464 154 475 b 167 484 168 491 167 486 b 168 476 168 481 168 479 b 169 459 169 471 169 465 b 171 450 169 456 170 453 b 174 445 172 449 173 447 b 178 440 175 443 177 442 b 200 428 184 434 192 430 b 228 432 210 426 220 428 b 247 451 237 436 243 443 b 250 465 249 455 250 460 b 252 475 251 468 252 471 b 253 477 252 475 252 476 b 264 464 257 473 260 469 l 270 457 b 275 452 272 456 273 454 b 281 447 277 450 279 448 b 310 437 290 441 300 437 b 362 467 331 436 352 449 b 368 482 365 472 367 477 b 370 499 369 487 370 493 b 366 517 370 505 368 511 b 363 523 363 523 363 522 b 352 532 359 526 355 529 l 351 533 b 352 533 351 533 351 533 l 353 533 b 355 532 353 533 354 532 b 359 532 356 532 357 532 b 366 529 362 531 364 530 b 369 528 367 529 368 528 l 370 527 l 370 527 b 370 528 370 527 370 528 l 371 528 b 376 530 373 529 375 529 b 386 537 380 532 383 534 b 399 554 392 542 396 548 b 405 574 403 560 404 567 b 398 610 407 586 404 599 z m 345 615 b 343 615 344 615 343 615 b 344 616 343 616 343 616 l 345 618 l 346 619 l 347 619 l 348 621 b 350 623 349 622 350 622 b 364 612 354 621 359 618 b 371 600 367 609 370 604 b 345 615 366 608 357 615 z "},"+":{"ha":396,"x_min":0,"x_max":0,"o":"m 375 305 b 366 327 374 314 370 322 b 359 334 363 330 361 332 b 353 337 357 335 355 336 b 346 336 350 338 347 338 b 344 330 344 335 344 333 b 347 317 344 327 346 323 b 346 307 347 313 347 310 b 336 326 346 313 343 320 b 331 330 334 327 333 328 b 340 331 335 329 338 330 b 342 345 344 333 345 338 b 320 363 338 351 330 359 b 286 368 310 368 298 370 b 270 365 281 367 276 366 l 263 364 l 259 363 b 257 363 258 363 258 363 l 256 362 b 235 356 251 360 244 358 b 232 370 234 360 233 365 b 231 380 232 374 231 376 l 230 392 b 229 440 229 408 229 424 b 228 452 229 444 229 448 b 223 463 227 456 225 460 b 202 475 218 470 210 474 b 177 470 193 476 184 475 b 160 450 169 466 163 459 b 156 432 158 443 157 438 b 153 416 155 427 154 422 b 146 384 151 405 148 394 l 144 376 l 144 372 l 143 370 b 143 369 143 369 143 369 b 140 364 142 367 141 365 b 138 363 139 364 139 363 l 138 363 b 138 363 138 363 138 363 l 137 363 l 135 364 b 131 366 134 364 132 365 l 131 366 l 131 366 b 131 366 131 366 131 366 l 130 366 l 126 366 l 117 366 b 101 367 112 367 107 367 b 83 368 95 367 89 368 b 50 360 72 368 60 366 b 28 334 40 354 32 344 b 23 300 23 323 21 311 b 27 283 23 294 25 288 b 36 269 29 278 32 273 b 63 250 43 260 52 253 b 83 247 69 247 77 247 b 95 248 87 247 91 248 b 119 253 104 249 112 251 l 125 254 l 128 255 l 129 255 b 130 256 130 255 130 256 l 135 258 b 149 263 139 260 143 262 b 152 251 150 260 151 256 b 154 243 153 249 154 247 b 156 231 155 239 155 235 b 159 201 157 222 159 211 l 160 193 b 162 185 160 191 161 188 b 170 169 163 179 166 174 b 186 158 175 164 181 160 b 205 153 192 155 199 153 b 225 156 212 153 219 153 b 243 170 232 159 238 163 b 251 190 247 175 250 182 b 252 199 251 193 252 196 l 253 206 b 254 236 254 216 254 226 b 254 249 254 240 254 244 b 254 251 254 250 254 250 b 253 254 254 252 253 253 b 253 254 253 254 253 254 l 254 254 l 255 255 b 270 256 257 255 255 257 b 271 257 270 257 270 257 l 274 256 l 280 255 l 285 255 b 290 255 286 255 288 255 b 301 250 294 253 298 251 b 326 248 310 248 319 248 b 369 277 344 249 361 260 b 375 305 374 285 376 295 z "},",":{"ha":197,"x_min":0,"x_max":0,"o":"m 177 75 b 176 80 177 77 176 78 b 175 85 176 82 175 83 b 174 89 175 86 174 88 b 171 94 173 91 172 92 b 169 98 171 95 170 97 b 166 102 168 100 167 101 b 163 106 165 104 164 105 b 160 110 162 107 161 109 b 119 128 150 120 135 127 b 86 123 110 129 97 127 b 57 113 75 119 65 114 b 38 101 50 111 43 107 b 32 83 34 95 32 88 b 38 71 32 77 34 73 b 51 72 41 69 46 70 b 56 75 53 73 54 74 b 51 65 54 72 52 68 b 49 62 50 64 50 63 b 44 68 48 64 46 66 b 32 69 41 70 37 71 b 21 57 28 67 23 63 b 22 36 19 51 18 43 b 38 12 26 27 31 18 b 43 7 40 10 41 9 b 47 5 44 6 45 6 b 56 1 50 4 53 2 b 67 -3 60 0 63 -2 b 74 -7 70 -4 78 -4 b 61 -22 71 -13 67 -18 b 52 -27 58 -24 55 -25 b 41 -30 48 -28 45 -29 b 24 -46 35 -33 28 -39 b 18 -67 21 -53 19 -59 b 22 -90 18 -74 19 -83 b 39 -110 26 -98 31 -105 b 68 -117 47 -115 57 -118 b 83 -115 74 -117 78 -116 b 94 -111 87 -114 91 -113 b 114 -101 102 -108 108 -105 b 143 -70 126 -92 136 -82 b 159 -33 151 -58 155 -46 b 167 5 163 -21 165 -8 b 171 37 169 15 170 26 b 175 56 172 44 174 50 b 177 65 176 59 176 62 b 177 75 177 68 177 72 z "},".":{"ha":172,"x_min":0,"x_max":0,"o":"m 151 33 b 142 58 149 42 146 50 b 136 77 140 64 137 71 b 134 103 134 85 136 94 b 117 124 132 112 125 119 b 90 129 109 128 100 130 b 80 127 87 129 84 128 b 70 124 77 126 73 125 b 59 120 66 122 63 121 b 50 119 56 119 53 119 b 35 113 44 119 39 117 b 31 100 32 109 30 104 b 49 87 32 91 40 86 b 53 88 50 88 52 88 b 49 82 52 86 50 84 b 48 81 49 82 48 81 b 40 88 46 83 43 86 b 25 87 36 90 30 90 l 27 90 b 20 76 22 89 18 84 b 34 32 24 59 28 44 b 53 -4 39 19 45 8 b 71 -23 58 -11 64 -18 b 100 -34 79 -29 89 -33 b 133 -23 111 -35 123 -31 b 139 -17 135 -21 137 -19 b 145 -10 141 -15 143 -13 b 151 5 148 -5 149 0 b 151 33 153 15 152 24 z "},":":{"ha":222,"x_min":0,"x_max":0,"o":"m 188 471 b 175 489 186 476 180 483 b 161 506 169 495 163 500 b 149 517 159 512 154 515 b 134 515 144 518 138 517 b 133 514 134 515 133 515 l 132 514 b 132 513 132 514 132 513 b 132 512 132 513 132 512 b 124 520 131 515 128 518 b 116 521 122 521 119 521 b 108 519 113 521 110 520 b 88 501 100 513 93 507 b 73 483 82 495 77 489 b 61 465 69 477 65 471 b 51 445 58 459 54 453 b 42 420 47 438 44 430 b 43 390 40 411 40 400 b 64 363 47 379 54 370 b 98 353 73 356 86 353 b 129 366 110 354 121 359 b 147 388 137 373 143 381 b 159 405 151 394 154 400 b 181 420 165 411 173 414 b 193 442 187 425 192 433 b 188 471 194 451 193 461 z m 126 491 b 124 492 126 492 125 492 b 125 493 125 492 125 493 b 129 498 127 494 128 496 b 130 502 129 499 129 500 b 129 500 130 501 129 500 b 131 494 129 498 129 496 b 133 490 132 492 133 491 b 126 491 131 491 129 491 z m 174 198 b 171 204 173 200 172 202 b 170 205 171 205 170 205 b 170 206 170 205 170 206 l 170 206 b 170 207 170 206 170 207 b 170 210 170 208 170 209 b 170 219 170 213 170 216 b 165 236 172 225 170 231 b 151 243 161 241 156 243 b 140 238 146 243 142 241 b 138 226 138 234 137 230 b 138 221 138 224 138 223 b 133 225 137 223 135 224 b 131 226 132 226 132 226 b 140 243 136 230 140 236 b 134 253 139 246 138 251 b 128 255 133 254 131 255 b 121 254 126 255 123 255 b 97 241 112 250 104 246 b 80 227 91 236 85 232 b 66 212 75 222 70 217 b 51 197 61 207 56 203 b 35 176 45 191 40 184 b 28 148 31 168 28 158 b 39 116 28 137 32 126 b 69 98 47 107 58 100 b 101 101 81 96 92 98 b 124 116 110 105 118 111 b 140 130 130 121 135 126 b 164 140 147 134 156 135 b 179 160 172 144 177 151 b 181 173 180 164 181 168 b 179 187 181 177 181 183 b 174 198 178 191 177 194 z "},";":{"ha":235,"x_min":0,"x_max":0,"o":"m 208 467 b 193 493 206 476 201 486 b 175 506 189 498 182 502 b 157 517 167 509 161 512 b 141 524 153 522 147 524 b 128 518 136 524 131 521 b 124 506 125 514 123 510 b 132 497 125 503 128 499 b 135 494 133 496 134 495 b 128 493 133 494 130 493 b 126 492 127 492 127 492 b 120 510 127 498 126 505 b 108 512 117 512 112 513 b 97 502 103 511 99 507 b 96 499 97 501 96 500 b 96 496 96 498 95 497 b 96 493 96 495 96 494 b 96 489 96 491 96 490 b 96 488 96 489 96 489 l 95 487 b 93 484 94 486 94 485 b 91 479 92 483 91 481 b 88 474 90 478 89 476 b 81 455 85 468 83 461 b 75 437 79 449 77 443 b 70 418 73 431 71 425 b 67 405 68 414 68 410 b 67 398 67 403 67 400 b 67 391 67 396 67 393 b 81 361 68 381 73 370 b 113 345 89 352 101 346 b 148 352 125 343 137 346 b 169 376 158 358 165 367 b 178 402 174 385 176 393 b 185 421 180 408 182 415 b 203 441 189 429 197 433 b 208 467 207 448 209 457 z m 163 289 b 158 292 161 290 160 291 b 154 295 157 293 155 294 b 149 298 152 296 151 297 b 144 300 147 299 145 300 b 138 302 142 301 140 301 b 127 303 134 303 131 303 b 97 295 118 303 106 300 b 71 283 87 291 79 285 b 55 271 65 282 59 277 b 52 252 52 265 51 258 b 60 242 54 247 57 244 b 73 246 64 241 68 243 b 77 248 74 247 76 247 b 74 239 76 245 75 242 b 74 236 74 238 74 237 b 55 240 69 242 62 243 b 47 228 52 238 48 234 b 51 210 46 222 47 215 l 54 207 b 55 206 54 207 55 207 b 58 205 56 206 57 206 b 65 201 60 204 63 203 b 70 198 67 200 69 199 l 73 196 l 74 196 l 74 196 l 74 195 l 74 194 b 72 187 74 192 73 189 b 56 175 69 182 63 178 b 46 171 53 174 49 173 b 37 163 42 168 39 166 b 28 139 32 156 29 148 b 29 121 27 133 28 127 b 39 103 31 115 34 108 b 58 90 44 97 50 93 b 70 87 62 88 66 87 b 82 87 74 86 79 87 b 147 123 108 87 133 101 b 161 157 154 134 158 146 b 164 191 163 169 164 180 b 167 219 165 200 165 210 b 178 250 170 230 176 238 b 166 285 179 261 175 275 b 163 289 165 286 164 288 z "},"<":{"ha":494,"x_min":0,"x_max":0,"o":"m 467 485 b 443 518 463 499 454 511 b 412 529 433 526 421 529 b 390 523 402 529 394 526 b 384 515 386 520 384 517 b 391 511 384 513 387 512 b 410 507 395 510 402 510 b 422 499 415 505 419 502 b 390 501 414 505 402 507 b 380 497 387 500 384 499 b 300 487 406 523 348 520 b 141 390 254 454 199 421 b 51 346 112 375 82 360 l 40 341 b 28 335 36 339 32 338 b 19 326 25 333 22 329 b 16 313 17 322 16 317 b 22 287 15 304 17 295 b 32 277 24 283 28 280 l 42 270 b 209 153 100 231 150 191 b 304 98 240 133 272 115 b 354 73 321 89 337 81 l 360 70 l 363 69 l 365 68 l 368 67 b 394 62 376 64 385 62 b 419 69 403 63 411 65 b 429 76 423 71 426 74 b 438 85 433 79 435 82 b 451 130 449 98 453 115 b 427 167 449 146 440 159 b 422 169 425 167 424 168 l 419 171 l 412 173 l 399 178 l 375 188 b 277 228 343 200 310 213 b 194 271 249 241 220 255 b 182 279 190 274 186 276 b 177 282 181 280 179 281 b 173 285 176 283 175 284 b 162 295 169 289 165 292 b 158 302 160 298 158 300 b 157 305 157 303 157 304 b 157 305 157 305 157 305 l 158 305 l 160 306 b 164 307 162 306 163 306 b 184 310 174 309 180 309 l 185 310 b 188 311 186 310 185 310 b 198 315 191 312 195 313 b 219 323 205 318 212 320 b 305 364 247 336 276 349 b 431 422 339 381 397 415 b 437 423 433 422 435 423 b 438 424 437 423 437 423 l 439 424 l 441 425 b 446 428 443 426 444 427 b 461 443 452 432 457 437 b 467 485 469 455 471 471 z "},">":{"ha":467,"x_min":0,"x_max":0,"o":"m 439 320 b 422 334 433 328 426 332 b 412 334 417 336 413 336 b 413 327 410 333 411 330 b 420 310 415 323 418 318 b 420 295 421 305 421 300 b 404 322 420 305 415 315 b 396 327 401 324 398 325 b 406 343 411 325 413 332 b 342 385 396 356 372 375 b 174 450 290 402 233 425 b 86 490 145 463 115 476 b 75 496 82 492 79 494 b 63 499 71 497 67 498 b 39 491 54 499 46 496 b 25 469 32 485 27 478 b 30 443 22 460 24 450 b 41 433 33 439 36 436 b 52 427 44 431 48 429 b 73 414 60 422 66 418 b 114 388 87 405 101 397 b 196 334 141 370 168 352 b 250 301 214 323 232 312 l 253 299 b 254 298 254 298 254 298 l 255 298 l 256 297 l 257 296 b 257 296 257 296 257 296 b 257 296 257 296 257 296 b 258 295 258 296 258 296 b 258 295 258 295 258 295 l 258 294 l 258 294 b 257 294 258 294 258 294 l 249 287 b 232 274 243 283 237 279 b 76 142 177 230 131 186 b 58 128 70 137 64 132 b 49 121 55 126 52 123 l 45 118 b 40 113 43 116 41 115 b 29 90 33 107 30 98 b 35 64 28 81 30 72 b 57 45 40 55 48 48 b 85 48 67 43 76 44 b 124 66 98 54 111 59 b 273 161 174 89 224 123 b 327 202 288 172 307 188 b 356 220 337 209 347 215 b 382 229 366 224 374 228 b 392 231 385 230 389 230 b 402 234 395 232 399 233 l 407 235 b 409 236 407 235 408 236 l 411 237 b 416 239 413 238 414 239 b 432 252 422 243 428 247 b 447 288 441 262 447 275 b 439 320 448 300 444 312 z "},"?":{"ha":372,"x_min":0,"x_max":0,"o":"m 353 616 b 333 656 350 629 343 643 b 297 690 324 669 311 681 b 274 701 290 694 282 698 b 252 708 267 704 259 706 b 213 713 237 711 224 712 b 156 702 194 714 173 710 b 115 672 138 694 124 682 b 104 650 106 662 102 653 b 128 655 106 647 113 649 b 143 662 133 658 138 660 b 114 639 133 655 123 648 b 106 632 111 637 109 634 b 109 644 109 637 110 641 b 93 645 108 649 102 649 b 79 636 89 643 84 640 b 71 628 76 633 73 631 b 63 620 68 626 65 623 b 55 609 60 616 58 613 b 49 598 53 606 51 602 b 43 585 47 594 45 589 b 38 571 41 581 40 576 b 31 520 34 555 31 538 b 38 467 30 503 32 484 l 40 460 b 42 454 40 458 42 456 b 49 442 44 450 46 446 l 52 436 l 54 433 l 57 430 b 68 420 60 426 64 423 b 98 420 78 416 88 416 b 118 439 107 423 114 430 b 118 466 123 447 122 458 b 112 478 116 470 114 474 b 109 491 110 482 109 486 b 121 543 107 509 113 527 b 154 586 129 559 141 573 b 174 602 160 592 167 598 b 198 613 182 607 190 611 b 223 617 206 616 215 617 b 243 609 231 616 238 613 l 245 607 l 247 605 b 249 601 248 604 249 603 b 251 593 250 599 251 596 b 247 573 252 587 250 580 b 236 552 244 566 240 559 b 222 530 231 545 227 537 b 190 487 212 516 201 502 b 156 437 178 471 167 454 b 140 409 150 428 145 419 b 133 395 138 405 135 400 b 127 380 131 390 129 385 b 94 261 111 342 100 302 b 89 202 91 241 89 221 l 88 194 b 88 183 88 190 88 186 b 97 162 89 175 93 168 b 134 140 106 149 120 142 b 172 154 148 139 163 144 b 182 171 177 159 180 165 b 184 180 183 174 184 177 b 185 184 185 181 185 183 b 185 188 185 186 185 187 b 191 245 186 207 188 226 b 202 294 193 261 197 278 b 220 341 207 310 213 326 b 247 386 228 359 237 373 b 277 422 257 398 266 410 b 334 502 297 445 317 470 b 353 554 342 517 349 535 b 353 616 357 573 358 595 z m 190 96 b 173 107 186 100 179 103 b 157 118 166 110 160 113 b 143 124 153 122 148 124 b 131 119 139 124 134 122 b 127 110 128 117 127 113 b 126 113 127 111 126 112 b 115 118 123 116 120 118 b 104 112 111 118 107 116 b 92 88 98 104 95 95 b 88 66 90 80 89 73 b 85 27 86 53 86 41 b 85 2 84 19 84 11 b 94 -24 86 -6 88 -16 b 120 -44 99 -33 109 -40 b 130 -45 123 -44 127 -45 b 139 -45 133 -46 136 -45 b 157 -40 145 -45 151 -43 b 179 -15 168 -34 175 -24 b 184 10 182 -6 183 2 b 188 29 185 17 186 23 b 203 49 191 36 198 41 b 205 74 207 57 207 66 b 190 96 202 82 197 90 z m 129 94 b 128 94 129 94 129 94 b 127 94 128 94 128 94 b 129 103 128 97 129 100 b 133 98 130 101 131 99 b 136 95 134 97 135 96 b 129 94 134 95 131 95 z "},"@":{"ha":567,"x_min":0,"x_max":0,"o":"m 525 450 b 515 486 522 463 519 475 b 505 517 512 498 508 508 b 480 566 499 534 490 550 b 441 610 469 582 456 598 b 395 640 426 623 410 633 b 350 654 379 647 363 652 b 304 652 323 659 306 655 b 312 645 303 650 305 648 b 346 633 319 642 331 639 b 374 619 356 629 365 624 b 303 637 352 629 328 636 b 280 637 295 638 288 638 b 284 638 282 637 283 638 b 295 641 289 639 292 640 b 302 644 298 642 300 643 b 300 650 304 646 304 648 b 292 653 298 651 295 652 b 280 656 288 654 284 655 b 244 653 270 656 258 656 b 200 637 230 651 215 645 b 120 565 170 622 141 595 b 69 480 101 539 84 511 b 37 381 55 449 44 416 b 36 275 31 347 30 311 b 70 172 41 239 54 205 b 97 124 78 156 87 140 b 127 78 106 108 116 93 b 164 37 138 63 150 49 b 211 8 178 25 194 15 b 321 -6 246 -7 284 -10 b 376 5 339 -4 358 0 b 382 7 378 6 380 6 b 389 10 385 8 387 9 b 401 21 394 13 398 16 b 407 51 407 29 409 40 b 388 77 405 62 398 72 b 371 81 383 80 377 81 b 363 79 368 81 365 80 b 355 77 360 79 358 78 b 302 68 337 72 320 69 b 252 76 284 68 267 70 b 230 86 244 78 237 82 b 212 102 223 91 217 96 b 196 121 206 108 201 114 b 183 143 191 128 187 135 b 159 191 174 158 167 174 b 149 215 155 199 152 207 b 140 240 146 224 143 232 b 130 291 135 257 132 274 b 133 343 129 308 130 326 b 149 393 136 360 142 377 b 176 442 156 410 165 426 b 209 487 186 458 197 473 b 247 523 221 501 233 514 b 289 542 261 533 275 539 b 332 536 303 544 317 542 b 372 508 346 530 360 521 b 413 443 390 491 403 468 b 429 367 423 419 428 393 b 415 291 431 340 427 314 b 405 275 412 286 409 280 b 399 268 403 273 401 270 b 396 264 398 267 397 266 b 393 262 395 264 394 263 b 383 254 390 259 387 256 b 370 255 379 252 374 252 b 362 271 365 258 363 265 b 362 296 361 276 361 287 b 362 325 362 306 361 316 b 363 354 362 335 362 345 b 366 391 364 367 365 379 b 367 401 367 395 367 397 b 367 412 368 405 367 408 b 358 431 366 419 363 425 b 353 447 358 436 356 442 l 349 454 b 343 461 347 456 345 459 b 314 481 335 470 325 477 b 280 485 303 485 291 486 b 246 477 268 484 257 482 b 219 462 236 473 227 468 b 208 453 215 459 211 456 b 203 448 206 451 204 449 b 198 443 201 446 200 444 b 167 400 185 429 175 415 b 147 352 158 385 151 369 b 141 298 142 336 140 317 b 143 285 141 294 142 289 b 146 272 143 280 145 276 b 150 259 147 267 149 263 b 156 246 152 255 154 250 b 194 204 165 230 178 215 b 208 196 199 201 203 199 b 215 193 210 195 213 194 b 223 191 218 192 220 191 b 256 188 234 188 245 187 b 265 190 259 189 262 189 l 273 192 l 277 193 l 278 194 l 278 194 l 279 194 l 281 195 l 282 195 l 282 195 l 283 196 b 284 197 283 196 284 197 b 286 193 285 195 285 194 b 287 191 286 193 286 193 b 292 185 288 189 289 187 l 297 178 l 300 175 l 304 172 b 369 148 321 157 346 147 b 432 164 392 148 413 154 b 445 172 436 167 441 169 l 452 177 l 458 182 b 470 192 462 185 466 189 b 481 203 474 196 477 199 b 503 235 488 212 496 223 b 521 274 510 247 517 260 b 536 364 531 302 536 333 b 525 450 536 394 531 423 z m 268 315 b 268 313 268 314 268 314 b 251 320 263 318 257 321 b 241 309 243 320 237 316 b 245 290 243 302 245 296 b 244 283 245 287 245 284 l 244 282 l 244 281 b 243 280 243 281 243 281 b 239 281 242 280 241 280 b 228 295 234 283 230 289 b 228 315 226 302 226 308 b 239 331 230 321 235 327 b 245 336 241 333 243 335 b 247 328 245 334 246 331 b 267 319 251 322 258 317 b 271 321 269 320 270 320 b 268 315 270 319 269 317 z m 289 407 b 276 397 285 403 280 401 b 275 397 275 397 275 397 b 281 410 276 402 278 407 b 286 412 283 412 284 413 b 289 408 287 412 289 410 b 290 400 290 406 290 403 z "},"A":{"ha":389,"x_min":0,"x_max":0,"o":"m 336 258 b 303 428 326 305 304 386 b 280 535 302 465 291 509 b 259 529 268 560 258 566 b 259 510 259 523 259 516 b 250 552 256 524 253 538 b 248 565 249 556 249 561 b 257 554 251 559 254 555 b 266 568 261 553 264 558 b 264 612 268 578 269 593 b 250 644 262 622 258 633 b 231 661 245 651 238 657 b 206 667 223 665 214 667 b 166 651 191 667 176 661 b 155 632 161 645 157 639 b 154 627 155 630 154 629 b 153 623 153 625 153 624 l 152 616 b 143 560 149 598 146 579 b 120 441 136 521 128 481 b 58 197 102 360 82 277 b 24 87 47 159 36 123 b 8 31 18 69 12 51 l 7 27 b 6 21 6 25 6 23 b 6 15 6 19 6 17 b 6 9 6 13 6 11 b 15 -12 7 2 11 -6 b 59 -36 25 -26 41 -35 b 101 -20 74 -37 90 -31 b 114 -1 106 -15 111 -8 b 114 1 114 -1 114 0 b 116 1 115 1 115 1 l 118 7 l 119 9 b 119 9 119 9 119 9 b 119 9 119 9 119 9 b 118 11 118 10 118 10 b 118 11 118 11 118 11 b 118 13 118 12 118 13 b 121 13 119 13 120 13 b 118 14 123 13 122 13 b 119 14 119 14 119 14 l 119 14 l 119 15 b 119 15 121 15 121 15 l 133 73 b 148 133 139 93 143 113 b 160 194 152 153 156 173 l 166 224 l 169 240 l 170 243 l 170 245 b 170 246 170 246 170 246 l 170 246 l 170 247 b 170 249 170 248 170 248 l 170 251 l 170 252 l 170 252 l 170 252 l 174 253 b 176 253 174 253 175 253 b 182 252 178 252 180 252 b 194 251 186 252 190 252 b 206 251 198 251 202 251 l 212 251 l 216 251 l 216 251 l 216 252 b 226 253 219 252 222 252 b 229 246 227 251 228 249 l 230 244 l 230 243 l 231 241 l 233 232 b 243 196 236 220 239 208 b 261 123 249 172 255 148 b 284 7 270 86 279 46 b 286 -2 285 4 285 1 b 289 -11 286 -5 287 -8 b 302 -25 292 -17 296 -22 b 319 -30 307 -28 313 -30 b 337 -27 325 -30 332 -29 b 366 -2 349 -23 360 -15 b 370 18 368 4 370 11 b 369 34 370 23 369 28 b 336 258 366 105 353 180 z m 195 366 b 194 365 194 366 194 365 b 193 361 194 364 194 362 b 192 361 193 361 192 361 b 189 368 191 363 190 365 b 189 369 189 368 189 369 b 189 370 189 369 190 369 b 188 370 189 370 188 370 b 187 426 181 389 180 408 b 210 394 194 415 204 405 b 215 375 213 388 216 381 b 204 366 215 368 209 366 b 196 366 199 365 196 366 b 195 366 195 366 195 366 b 195 366 195 366 195 366 z m 167 349 b 172 346 168 348 170 347 b 172 344 172 345 172 345 b 166 347 170 345 168 346 b 167 349 166 348 166 349 z m 117 140 b 113 125 116 135 115 130 b 117 140 115 130 116 135 z "},"B":{"ha":400,"x_min":0,"x_max":0,"o":"m 354 256 b 329 305 350 273 341 291 b 306 326 322 313 314 321 b 314 332 309 328 311 330 b 323 341 317 334 320 338 b 332 352 326 344 329 348 b 344 378 337 360 342 369 b 345 475 353 411 352 444 b 308 566 337 507 325 538 b 235 633 290 594 266 619 b 186 645 219 639 203 643 b 138 647 170 647 154 648 b 136 651 138 648 137 650 b 132 655 135 652 133 654 b 118 662 127 659 123 661 b 102 664 113 663 107 664 b 73 649 91 663 80 658 b 68 642 71 647 70 644 b 65 634 67 639 66 637 l 64 630 l 64 627 l 64 626 l 63 626 l 62 619 b 59 594 61 611 60 602 b 45 490 54 560 49 526 b 42 265 38 415 37 340 b 59 50 47 191 56 124 b 60 34 59 44 59 39 b 65 16 60 28 61 22 b 78 3 68 10 73 6 b 94 -1 84 0 90 -1 b 101 -5 97 -2 98 -4 b 108 -9 103 -6 106 -8 b 116 -13 111 -10 113 -12 b 123 -16 118 -14 121 -15 b 174 -32 142 -24 158 -29 b 223 -35 190 -35 206 -36 b 235 -34 227 -35 231 -34 b 247 -31 239 -33 243 -32 b 272 -24 255 -30 264 -27 b 317 6 288 -17 303 -7 b 349 50 330 19 341 34 b 366 102 357 67 363 84 b 369 182 371 123 372 153 b 354 256 366 210 358 237 z m 284 156 b 284 151 284 154 284 153 b 265 153 278 158 271 157 b 256 126 258 147 253 138 b 257 91 259 115 260 103 b 238 60 254 79 248 68 b 200 45 227 52 213 47 b 160 49 186 43 172 44 b 156 51 159 50 157 51 b 152 54 154 52 153 53 b 147 59 150 56 148 57 b 144 65 145 61 145 63 b 147 71 145 67 146 69 b 148 74 147 72 148 73 l 149 75 b 150 77 149 75 150 76 b 153 87 151 80 152 84 b 158 108 155 94 157 101 b 160 198 165 138 165 168 b 150 241 157 213 154 227 b 145 263 148 249 146 256 b 141 280 143 268 142 273 b 140 288 140 283 140 285 l 139 293 l 139 295 l 141 295 b 157 291 146 294 152 293 b 165 287 160 290 163 289 b 169 285 167 286 168 286 l 170 283 l 172 282 b 186 270 177 278 181 274 b 211 250 195 262 203 256 b 234 232 219 244 227 239 b 250 214 239 228 245 222 b 254 192 254 207 257 198 b 259 163 250 181 254 171 b 281 164 265 156 274 152 b 284 170 282 166 283 168 b 284 156 284 165 284 160 z m 229 523 b 268 473 246 514 261 495 b 271 437 271 462 273 449 b 254 407 269 426 263 415 b 239 399 250 404 245 401 b 223 396 234 398 229 397 b 191 398 212 396 202 397 b 174 399 185 398 179 398 b 169 399 172 399 171 399 l 167 399 b 167 399 166 399 167 399 l 167 399 b 162 397 166 399 165 397 b 160 398 162 397 161 397 b 159 399 160 398 159 398 l 158 399 b 158 400 158 399 158 400 l 158 401 b 152 420 156 407 154 414 b 143 458 149 432 146 445 b 142 491 142 469 141 480 b 157 524 144 505 151 513 b 162 539 159 529 161 534 b 164 547 163 542 163 545 l 164 549 b 164 550 164 550 164 550 l 164 550 b 165 551 164 550 165 550 b 165 553 165 551 165 552 b 165 554 165 553 165 554 l 166 555 b 167 557 166 556 166 556 b 169 558 168 558 168 558 b 170 559 169 558 169 559 b 172 559 170 559 172 559 b 190 553 180 559 187 558 b 209 545 196 544 202 544 b 220 549 213 545 217 547 b 222 562 223 552 224 556 b 220 568 222 564 221 566 b 230 560 223 565 227 563 b 232 557 231 559 231 558 b 219 544 225 557 220 551 b 229 523 217 536 219 528 z m 260 326 b 269 330 263 327 266 329 b 269 330 269 330 269 330 b 265 323 267 327 265 325 b 260 326 263 324 262 325 z m 288 305 b 277 314 285 308 281 311 b 278 315 277 314 278 314 b 280 315 279 315 280 315 b 288 305 283 312 286 308 z "},"C":{"ha":393,"x_min":0,"x_max":0,"o":"m 366 173 b 364 186 366 177 365 182 b 363 190 364 187 364 188 l 362 194 b 359 201 361 196 360 198 b 350 213 357 205 354 210 b 325 228 344 221 334 226 b 297 228 316 231 306 231 b 259 201 279 224 265 212 b 253 170 252 189 252 177 b 259 159 255 163 257 159 b 264 167 261 158 263 161 b 277 189 266 172 269 181 b 296 199 283 194 289 197 b 274 161 282 194 270 180 b 275 146 274 156 275 151 b 267 159 273 154 269 158 b 257 146 262 161 259 156 b 246 108 254 136 251 123 b 237 86 244 101 241 93 b 224 67 233 79 229 73 b 216 60 222 65 219 63 b 211 58 214 59 213 59 b 209 56 210 57 210 57 l 206 55 b 200 53 204 55 202 54 b 195 52 199 53 197 52 b 184 51 191 51 187 51 b 163 61 176 52 169 55 b 146 84 156 67 150 75 b 126 146 136 102 131 124 b 115 213 121 168 117 190 b 134 495 104 306 110 404 b 146 528 137 506 140 518 b 154 542 148 533 151 538 b 165 554 157 547 161 551 b 218 558 180 566 202 567 b 227 551 222 556 225 553 b 234 541 230 548 232 545 b 240 514 237 533 239 524 b 240 499 241 509 241 504 l 240 497 l 240 496 b 240 495 240 496 240 496 b 240 487 240 492 240 489 b 244 471 241 482 242 476 b 253 458 246 467 249 462 b 265 447 256 454 260 450 b 297 438 274 441 285 438 b 305 438 299 438 302 438 b 314 440 308 439 311 439 b 330 447 320 442 325 444 b 344 459 336 451 340 455 b 353 475 348 464 351 469 b 357 493 355 481 357 487 l 357 495 l 357 497 l 358 500 b 358 506 358 502 358 504 b 356 529 357 513 357 521 b 322 614 352 559 341 588 b 314 624 320 617 317 620 b 305 633 312 627 309 630 b 285 648 299 639 292 644 b 241 666 271 657 256 663 b 194 671 225 670 210 671 b 147 661 179 670 163 667 b 108 637 133 656 119 647 b 80 602 96 627 87 615 b 54 527 66 578 59 552 b 45 452 49 502 46 477 b 41 376 43 427 42 402 b 41 242 40 333 40 287 b 42 172 42 216 42 194 b 42 141 41 162 41 152 b 42 125 42 136 42 130 b 43 108 42 120 42 114 b 57 44 45 87 49 66 b 95 -18 65 23 77 1 b 127 -41 104 -27 115 -35 b 166 -55 139 -48 153 -52 b 206 -56 180 -57 193 -57 b 244 -48 219 -55 232 -52 b 293 -20 260 -43 277 -33 b 332 27 308 -7 322 9 b 354 81 342 45 349 64 b 364 127 359 98 361 114 b 367 163 366 138 367 151 z "},"D":{"ha":408,"x_min":0,"x_max":0,"o":"m 43 54 b 40 31 42 46 41 39 b 40 25 40 29 40 28 b 41 14 40 22 41 18 b 44 4 42 11 43 7 b 50 -6 46 1 47 -3 b 82 -29 57 -18 70 -26 b 113 -28 94 -32 105 -31 b 132 -16 122 -25 128 -20 b 134 -12 133 -15 134 -13 b 137 -13 135 -13 136 -13 b 171 -15 145 -16 157 -17 b 217 0 185 -13 202 -9 b 236 12 223 3 230 7 b 255 26 242 16 249 21 b 287 61 267 36 278 48 b 332 145 306 86 321 115 b 372 335 356 205 366 271 b 380 435 375 369 379 402 b 379 485 381 451 380 468 b 370 538 378 503 375 520 b 347 594 365 557 358 576 b 306 641 337 611 323 628 b 251 672 290 655 271 665 b 190 681 230 678 210 681 b 128 673 168 681 148 678 l 114 670 l 100 666 b 95 665 99 666 97 665 b 90 663 93 664 92 663 b 80 657 87 661 83 659 b 67 639 75 652 70 646 b 60 612 62 631 60 621 b 61 590 60 605 61 597 b 63 544 62 575 63 560 b 62 453 64 515 65 483 b 47 363 60 417 53 393 b 41 187 38 308 38 249 b 43 54 42 150 50 86 z m 270 475 b 291 417 279 458 287 438 b 301 348 296 395 299 372 b 299 277 302 325 302 301 b 280 208 296 253 289 229 b 241 149 270 185 256 166 b 191 113 226 132 209 119 b 176 109 187 111 181 110 b 168 107 174 108 171 107 l 164 106 b 164 106 164 106 164 106 b 164 107 163 107 164 107 b 163 107 164 107 163 107 b 163 107 163 107 163 107 b 163 107 163 107 163 107 b 163 107 163 107 163 107 l 163 108 l 162 113 b 158 153 161 126 160 139 b 137 303 152 204 142 251 b 136 370 136 325 135 348 b 151 437 138 397 145 415 b 160 499 156 457 159 477 b 161 532 161 510 161 521 b 162 549 161 537 162 543 l 162 553 l 162 555 l 161 556 l 161 558 b 161 562 161 559 161 561 b 160 564 160 563 160 563 l 160 565 b 160 566 160 566 160 566 l 160 566 b 166 568 162 567 164 568 b 169 569 166 568 168 568 l 172 569 b 178 569 174 569 176 569 b 183 568 179 568 181 568 b 188 567 185 568 187 567 b 198 564 192 567 195 565 b 205 560 200 563 203 562 b 224 546 212 555 218 550 b 243 535 231 542 237 538 b 258 531 249 532 254 530 b 261 537 260 532 261 534 b 261 542 262 538 262 540 b 260 548 261 544 261 546 b 255 558 259 552 257 555 b 270 539 261 553 266 546 b 274 532 272 537 273 534 b 273 533 273 532 273 533 b 265 535 269 535 267 535 b 257 524 260 534 258 530 b 270 475 256 512 260 494 z m 109 -7 b 94 -3 104 -7 99 -5 b 125 4 105 -6 117 -3 b 136 5 129 4 132 5 b 127 -3 131 3 128 0 b 127 -6 126 -4 126 -5 b 109 -7 122 -6 116 -7 z "},"E":{"ha":360,"x_min":0,"x_max":0,"o":"m 114 -31 b 140 -34 124 -32 133 -32 b 205 -35 161 -37 184 -36 b 259 -29 226 -33 245 -31 b 284 -19 273 -26 283 -23 b 259 -7 286 -16 279 -11 b 238 -4 252 -6 245 -5 b 286 -5 254 -3 270 -4 b 300 -3 291 -6 296 -5 b 297 -5 299 -4 298 -4 b 286 -12 292 -8 288 -10 b 287 -18 284 -14 284 -16 b 305 -21 290 -20 296 -22 b 320 -15 310 -20 315 -18 b 334 -1 325 -12 330 -7 b 340 42 341 11 343 26 b 328 64 338 49 334 57 b 306 81 323 71 315 77 b 292 84 301 82 297 84 b 282 84 287 85 285 84 b 265 84 276 84 270 84 b 204 75 244 81 224 78 b 149 67 186 72 167 70 l 143 66 b 142 67 142 66 142 66 l 142 68 l 142 71 b 140 82 141 74 141 78 l 140 88 l 139 96 b 138 113 139 102 138 107 b 134 180 136 135 135 158 b 131 249 133 203 132 226 b 131 283 131 260 131 272 l 131 288 l 130 291 b 131 291 131 291 130 291 l 131 291 l 140 292 l 157 293 b 226 294 180 295 203 296 b 260 289 238 293 249 291 b 279 288 266 287 273 287 b 296 298 285 290 291 294 b 308 328 303 306 308 317 b 305 344 309 333 308 339 b 294 357 303 349 299 354 b 287 361 292 359 290 360 b 279 364 284 362 281 363 l 271 366 l 265 367 b 237 372 256 369 247 371 b 183 377 219 375 201 376 l 169 378 l 166 378 b 163 378 165 378 163 378 l 161 378 b 153 380 158 379 155 379 b 156 389 154 384 155 387 b 157 395 156 389 157 393 l 158 404 b 159 420 158 409 159 415 b 164 495 161 445 163 470 b 166 533 165 508 166 520 l 166 542 l 166 542 b 167 542 166 542 167 542 b 167 542 167 542 166 542 l 167 542 l 167 542 b 167 542 167 542 167 542 l 168 542 l 173 543 b 211 544 186 543 198 543 l 249 546 l 268 547 l 277 547 l 281 547 b 285 548 282 548 284 548 b 294 550 288 549 291 549 b 331 588 312 555 326 571 b 333 602 332 593 333 597 b 332 615 333 606 333 610 b 322 639 331 623 327 632 b 279 660 312 653 295 661 b 277 660 278 660 278 660 l 276 660 l 271 660 l 263 659 l 248 658 b 189 652 228 656 209 654 b 129 647 169 651 149 649 l 128 647 b 126 647 127 647 127 647 b 123 648 125 648 124 648 b 98 650 115 651 106 652 b 77 638 90 648 83 644 b 73 633 75 636 74 634 b 70 627 72 631 71 629 b 68 622 69 626 69 624 b 67 617 68 620 68 619 b 65 605 66 613 65 609 b 66 599 65 603 65 601 b 66 597 66 599 66 598 b 67 595 66 596 66 595 b 67 584 67 592 67 588 l 66 573 b 66 550 66 565 66 558 b 64 506 65 535 65 520 b 47 377 60 454 53 420 b 41 127 37 300 37 215 b 45 64 42 109 44 87 b 47 28 46 52 47 40 l 47 26 l 48 23 b 49 16 48 20 48 18 b 54 1 50 11 52 6 b 73 -18 59 -7 66 -14 b 95 -29 80 -24 88 -27 b 101 -30 97 -29 99 -29 b 106 -30 103 -30 105 -30 b 114 -31 109 -30 111 -31 z "},"F":{"ha":344,"x_min":0,"x_max":0,"o":"m 229 272 b 244 273 234 273 239 273 b 251 273 246 273 249 273 b 260 273 254 273 255 273 b 284 278 268 273 277 274 b 302 294 291 282 298 288 b 309 338 311 307 314 324 b 295 355 306 345 301 351 b 285 360 292 357 289 359 b 280 361 283 360 281 361 b 275 362 278 361 276 361 b 256 363 268 362 262 363 b 238 364 250 363 244 363 b 202 363 226 364 214 363 b 165 360 190 362 178 361 b 129 356 153 359 141 357 b 132 443 129 384 130 414 b 138 530 133 472 135 501 l 139 538 l 140 545 b 141 556 140 549 140 552 l 142 561 l 142 564 l 142 564 b 143 565 142 565 142 565 l 144 565 b 155 563 148 564 152 564 b 166 562 159 563 162 563 b 180 561 171 562 176 561 b 210 558 190 560 200 559 b 268 553 229 556 249 555 l 276 552 b 282 552 278 552 280 552 b 289 553 284 552 286 553 b 312 564 297 555 305 558 b 328 585 319 569 325 577 b 333 612 332 593 334 603 b 316 653 333 627 327 642 b 296 665 310 658 304 662 b 285 668 293 666 289 667 b 279 669 283 668 281 668 l 276 669 l 275 669 b 225 670 258 669 242 670 b 175 669 209 670 192 670 l 151 669 l 138 668 l 132 668 l 130 668 b 129 668 130 668 129 668 l 130 668 b 129 668 129 668 129 668 l 129 668 b 129 667 129 668 129 668 l 129 667 l 129 667 l 129 667 b 105 672 121 671 113 672 b 83 667 98 672 90 670 b 62 654 75 665 68 660 b 49 634 56 649 51 641 b 47 627 48 632 47 629 b 46 626 47 627 46 626 l 46 626 b 46 625 46 626 46 626 b 44 613 45 621 44 617 b 44 601 43 609 43 605 b 45 595 44 599 44 597 l 45 593 b 45 593 45 593 45 593 l 45 593 b 45 592 45 593 45 592 b 46 591 45 592 46 591 l 46 589 l 46 582 b 46 569 46 578 46 573 b 48 542 47 560 47 551 b 51 488 49 524 50 506 b 57 378 54 452 56 415 b 58 267 59 342 60 304 b 46 158 57 224 50 195 b 40 55 42 125 40 91 b 41 28 40 46 40 37 b 42 18 41 27 41 21 b 45 5 42 13 43 9 b 59 -15 48 -2 53 -9 b 81 -28 65 -21 73 -25 b 92 -30 85 -29 88 -30 b 105 -31 96 -31 101 -31 b 148 -7 122 -30 138 -21 b 157 23 153 1 157 12 b 157 30 157 27 157 28 b 156 35 157 31 157 33 b 156 46 156 39 156 42 b 153 90 154 60 153 75 b 155 168 151 120 151 149 b 152 272 161 203 158 247 b 179 270 160 271 169 270 b 229 272 195 270 212 271 z m 133 277 b 131 269 133 275 132 272 b 128 252 130 263 129 257 b 128 292 128 265 128 278 b 140 293 132 292 136 292 b 133 277 127 287 126 282 z "},"G":{"ha":407,"x_min":0,"x_max":0,"o":"m 235 -57 b 280 -40 251 -54 266 -48 b 314 -11 294 -32 305 -21 b 333 20 323 0 329 10 b 340 55 341 39 342 52 b 331 51 338 56 335 55 b 314 30 327 47 322 40 b 297 12 309 24 303 18 b 326 61 309 26 319 43 b 332 77 328 66 330 72 b 333 59 331 68 331 62 b 349 70 335 54 342 58 b 371 124 357 81 366 100 b 376 203 376 147 379 175 b 371 244 375 216 373 230 b 368 266 370 251 369 258 l 367 271 b 366 273 366 272 366 272 l 366 274 l 365 277 l 364 279 l 364 280 b 364 280 364 280 364 280 b 365 282 365 281 365 282 l 367 286 b 369 300 368 291 369 295 b 369 307 369 302 369 305 b 367 312 368 308 368 310 b 364 323 367 316 365 319 b 349 341 360 330 355 337 b 328 351 343 346 335 349 b 307 352 321 352 313 352 b 288 350 301 351 294 351 b 250 347 275 349 263 348 l 240 347 l 238 346 l 235 346 b 230 345 233 346 231 346 b 220 341 226 344 223 343 b 212 333 217 339 214 336 b 208 293 203 322 202 305 b 223 279 211 287 217 281 b 233 276 226 277 230 277 b 244 277 237 276 240 276 b 263 277 250 277 257 277 b 283 278 270 278 276 278 l 284 278 b 284 277 284 278 284 278 l 284 276 l 285 272 l 286 264 b 287 249 286 259 287 254 b 288 218 288 239 288 228 b 283 155 288 197 286 176 b 267 95 280 134 275 114 b 253 68 263 85 259 76 b 233 47 247 59 241 52 b 169 62 211 31 181 43 b 156 97 163 73 159 85 b 150 137 153 110 152 123 b 148 301 145 190 146 245 b 168 475 151 360 156 419 b 173 496 170 482 171 489 l 174 501 b 176 506 175 503 175 505 b 179 515 177 509 178 512 b 194 541 183 526 188 536 b 213 547 199 546 204 548 l 216 547 b 219 547 217 547 218 547 b 225 545 221 546 223 545 b 236 538 229 543 233 541 b 250 513 242 532 247 523 b 251 504 250 510 251 507 b 252 500 252 503 252 502 l 252 494 b 266 461 253 482 258 470 b 298 445 274 452 286 446 b 307 444 301 444 304 444 b 315 445 310 444 312 445 b 332 451 321 446 326 448 b 354 475 342 456 350 465 b 357 492 356 481 357 486 b 358 496 358 493 358 495 l 357 499 l 357 505 b 325 592 354 536 343 566 b 309 610 320 598 315 604 b 291 625 304 616 297 621 b 247 643 277 634 262 640 b 167 640 221 649 193 649 b 104 590 141 630 120 611 b 82 551 95 577 88 564 b 68 514 77 538 72 526 b 48 442 60 490 54 468 b 31 295 37 396 31 346 b 43 137 30 243 35 190 b 56 81 46 121 50 102 b 83 18 61 61 70 38 b 106 -11 90 7 97 -2 b 133 -32 114 -19 124 -26 b 162 -47 143 -38 152 -43 b 188 -55 171 -50 180 -53 b 235 -57 202 -59 219 -59 z "},"H":{"ha":385,"x_min":0,"x_max":0,"o":"m 234 263 b 247 265 239 263 243 264 b 244 136 241 238 238 187 b 252 63 247 113 250 88 b 253 44 252 57 253 51 b 254 35 254 41 254 38 b 254 24 254 32 254 28 b 257 11 255 20 256 16 b 263 0 259 7 261 3 b 285 -14 269 -7 277 -12 b 311 -12 294 -16 303 -15 b 331 2 319 -10 326 -5 b 338 25 336 9 338 17 b 338 46 338 32 338 39 b 336 129 337 73 336 101 b 333 470 333 241 329 358 b 337 558 334 500 336 529 b 340 601 338 572 339 586 l 340 611 l 341 617 l 341 619 b 341 623 341 620 341 622 b 330 652 341 633 337 644 b 302 667 323 660 313 665 b 270 663 292 669 280 668 b 246 640 259 659 251 650 b 241 623 243 635 242 629 l 241 619 l 241 616 l 241 611 b 236 524 239 582 238 553 b 234 436 235 495 235 465 l 234 392 l 234 382 b 234 382 234 382 234 382 b 234 382 234 382 234 382 b 234 382 234 382 234 382 l 234 382 l 234 382 l 232 382 b 200 383 221 382 210 382 b 164 385 189 384 176 385 l 160 385 b 159 385 159 385 160 385 l 159 385 l 158 384 b 157 386 157 384 157 385 l 155 417 b 142 595 151 478 147 536 l 141 617 l 141 620 l 140 624 b 138 632 140 627 139 629 b 131 646 137 637 134 642 b 104 662 124 654 115 660 b 89 662 99 663 94 663 b 74 658 84 662 79 660 b 54 637 65 654 58 646 b 51 622 52 632 52 627 b 52 619 51 621 51 620 l 52 616 l 52 610 b 54 564 53 595 54 580 b 58 404 57 513 59 457 b 46 246 57 341 50 299 b 40 97 42 198 40 148 b 39 58 40 84 40 71 b 39 39 39 52 39 45 l 39 29 l 39 26 b 39 24 39 25 39 24 l 39 21 b 40 12 39 18 40 15 b 46 -5 41 6 43 1 b 58 -18 49 -10 53 -14 b 91 -32 67 -26 79 -31 b 109 -30 97 -32 104 -32 b 118 -28 112 -30 115 -29 b 126 -24 121 -27 124 -26 b 151 2 137 -18 146 -9 b 156 24 154 9 155 17 b 156 38 156 29 156 33 b 156 68 156 48 156 58 b 155 133 155 89 155 111 b 157 247 154 177 154 219 b 158 256 157 250 157 253 b 158 257 158 257 158 257 l 158 258 l 158 258 l 159 259 b 159 261 159 260 159 260 b 160 261 160 261 160 261 b 160 261 160 261 160 261 l 161 261 l 161 261 b 162 261 162 261 162 261 l 162 261 l 162 261 l 163 261 l 164 261 b 182 260 170 260 176 260 b 191 260 185 260 188 260 b 201 259 194 259 198 259 b 234 263 215 260 225 261 z m 233 284 b 208 287 225 285 216 286 b 266 286 227 287 247 288 b 266 268 266 280 266 274 b 252 281 262 288 256 290 b 233 284 247 282 241 283 z "},"I":{"ha":201,"x_min":0,"x_max":0,"o":"m 136 -15 b 151 15 144 -7 150 4 b 152 24 152 18 152 21 b 151 27 152 25 151 26 l 151 29 l 150 40 b 142 126 147 68 144 96 b 140 202 140 150 139 177 b 152 277 141 232 148 252 b 156 423 160 323 159 372 b 154 534 154 454 147 508 b 131 603 168 581 144 651 b 128 591 130 599 129 595 b 128 619 128 601 128 610 b 127 628 128 622 127 625 b 128 626 127 627 127 627 b 134 620 130 623 132 621 b 141 621 137 619 139 619 b 145 631 143 623 144 626 b 141 651 145 636 145 644 b 121 670 137 658 130 666 b 92 676 113 675 103 677 b 61 663 81 675 69 670 b 53 651 58 659 55 655 b 47 638 50 647 48 643 b 46 624 46 633 46 629 b 48 613 46 619 47 617 b 54 577 50 601 52 589 b 63 499 58 552 61 525 b 61 337 66 446 66 390 b 41 173 56 280 46 229 b 38 84 38 144 37 114 b 38 40 38 69 38 55 l 39 29 l 39 25 b 39 20 39 24 39 22 b 41 10 39 17 40 13 b 65 -22 45 -4 54 -15 b 103 -30 77 -29 90 -32 b 120 -25 109 -29 115 -28 b 136 -15 126 -23 131 -19 z "},"J":{"ha":369,"x_min":0,"x_max":0,"o":"m 325 511 b 301 605 338 576 313 670 b 298 589 300 600 299 595 b 297 627 298 602 298 614 b 295 638 297 631 296 635 b 297 636 296 637 296 637 b 304 628 300 632 302 629 b 310 629 306 626 308 627 b 313 643 312 632 313 636 b 302 668 313 650 309 660 b 270 683 294 676 283 682 b 229 673 257 685 241 682 b 210 633 217 664 210 648 b 210 628 210 631 210 630 b 211 626 210 627 211 627 l 211 625 l 212 619 b 214 607 213 615 213 611 b 218 582 215 599 217 591 b 225 533 221 566 223 550 b 236 427 230 499 234 464 b 235 207 241 355 242 280 b 225 153 233 189 230 170 b 203 108 220 136 212 121 b 186 94 198 102 192 97 b 168 87 181 90 174 88 b 151 87 162 86 155 86 b 146 90 149 88 147 89 b 142 95 145 91 143 93 b 132 125 138 101 134 112 b 131 145 131 132 131 138 b 131 155 131 148 131 152 b 132 160 131 157 132 158 l 132 166 b 132 184 133 172 133 178 b 126 201 131 190 128 195 b 100 225 120 211 111 219 b 34 222 80 237 52 236 b 13 195 24 215 17 206 b 9 180 11 190 9 185 b 8 177 8 179 8 178 b 8 174 8 176 8 174 l 7 168 b 9 128 6 155 7 141 b 29 65 12 106 19 84 b 70 15 39 45 52 28 b 129 -10 88 1 108 -7 b 192 -4 150 -13 172 -11 b 237 24 208 2 224 12 b 273 63 251 35 263 49 b 302 111 285 80 294 96 b 321 160 310 127 316 142 b 331 258 329 191 331 225 b 328 361 331 291 330 326 b 325 511 326 403 318 475 z "},"K":{"ha":414,"x_min":0,"x_max":0,"o":"m 362 -33 b 376 -27 367 -31 372 -30 b 388 -19 381 -25 384 -22 b 403 1 395 -14 400 -7 b 407 23 406 8 407 16 b 403 39 407 29 405 35 b 393 49 399 47 394 50 b 391 47 391 49 391 48 b 391 39 390 45 391 43 b 390 26 391 36 391 31 b 383 10 390 21 387 15 b 362 -3 378 3 370 -2 b 380 42 379 3 392 22 b 371 57 377 47 374 52 b 388 66 389 39 393 46 b 325 179 381 91 358 137 b 235 296 296 216 266 255 b 212 326 227 306 220 316 l 207 333 l 205 336 l 204 338 b 203 339 203 338 203 338 l 203 339 b 210 354 206 344 208 349 b 229 390 216 366 222 378 b 238 408 232 396 235 402 b 248 426 241 414 244 420 b 334 567 275 473 305 520 b 356 603 341 579 348 591 l 361 612 b 365 621 363 615 364 618 b 364 643 367 628 367 636 b 349 659 361 650 355 655 b 327 665 343 663 335 666 b 307 656 320 665 312 661 b 303 651 305 654 304 653 b 300 647 302 650 301 648 l 294 638 b 199 504 264 590 231 548 b 176 471 192 493 184 482 l 173 467 l 171 465 l 171 464 b 170 463 170 463 170 463 l 167 460 b 163 455 165 458 164 457 b 155 451 158 450 156 449 l 155 451 l 155 452 b 158 468 156 462 157 466 b 159 468 158 468 158 468 l 159 491 l 158 536 l 158 582 l 157 605 l 157 616 b 155 635 157 618 156 628 b 129 670 151 649 142 662 b 109 678 123 674 116 676 b 88 679 101 679 95 680 b 50 661 73 678 60 671 b 35 622 40 650 35 636 l 35 620 l 35 618 l 35 616 l 35 610 b 36 599 36 606 36 603 b 37 577 36 592 37 584 b 40 534 38 562 39 548 b 47 448 43 505 45 476 b 59 273 51 391 56 333 b 61 196 60 248 61 222 b 62 118 62 170 62 143 b 56 37 61 87 59 61 b 55 28 56 34 55 31 l 54 25 l 54 22 b 54 16 54 20 54 18 b 65 -8 55 7 59 -1 b 88 -22 71 -14 79 -19 b 102 -23 92 -23 97 -23 b 117 -21 107 -23 112 -22 b 140 -6 126 -18 134 -13 b 153 20 147 1 151 11 l 153 24 l 153 27 l 154 31 l 155 40 b 156 58 155 46 156 52 b 160 133 158 83 159 107 b 160 171 160 145 160 158 b 160 190 160 177 160 183 l 160 200 l 160 204 l 160 204 b 163 212 160 206 162 209 l 164 216 l 165 219 l 165 219 b 166 219 165 219 166 219 l 166 219 b 169 216 167 218 168 217 b 171 213 169 215 170 214 l 172 212 l 173 211 l 175 208 b 210 156 186 192 198 174 b 264 61 233 121 254 86 b 281 27 269 50 275 38 b 290 10 284 21 287 16 b 295 1 292 7 293 4 l 297 -3 b 301 -8 298 -4 299 -5 b 329 -31 308 -19 318 -27 b 362 -33 339 -35 351 -35 z "},"L":{"ha":338,"x_min":0,"x_max":0,"o":"m 176 -31 b 222 -35 191 -34 207 -35 b 262 -31 237 -34 251 -33 b 281 -22 272 -29 279 -26 b 263 -9 282 -19 277 -14 b 248 -5 258 -8 253 -6 b 282 -8 259 -6 271 -6 b 293 -7 286 -8 289 -8 b 285 -12 290 -9 287 -11 b 285 -22 281 -15 280 -18 b 297 -25 287 -23 291 -25 b 315 -19 302 -24 309 -23 b 332 -4 321 -16 327 -11 b 341 24 337 4 340 13 b 331 56 341 35 338 46 b 318 68 327 61 323 65 b 310 72 316 70 313 71 b 306 74 309 73 308 73 b 302 75 305 74 303 75 b 286 77 297 77 292 77 b 283 77 285 77 284 77 l 280 77 l 274 77 b 251 74 267 76 259 75 b 205 68 236 73 220 70 b 181 66 197 67 189 66 b 169 64 177 65 173 65 b 159 64 166 64 163 64 b 148 63 156 63 152 63 l 143 63 b 140 63 142 63 141 63 l 140 66 b 139 87 139 72 139 80 b 140 290 137 153 136 223 b 149 392 142 325 145 358 b 158 494 152 425 156 459 b 162 605 161 531 162 568 l 161 619 l 161 620 l 161 621 l 161 625 b 160 632 161 627 161 630 b 156 645 159 636 158 641 b 115 678 148 662 133 674 b 89 679 106 681 98 681 b 64 670 80 678 71 675 b 46 651 57 665 51 659 b 39 627 42 644 40 635 b 39 620 39 625 39 622 b 39 617 39 619 39 618 l 40 610 b 41 597 40 605 41 601 b 44 570 42 588 43 579 b 50 518 46 552 48 535 b 61 411 54 483 58 448 b 63 316 63 380 65 348 b 51 222 62 279 56 254 b 44 134 47 194 45 164 b 44 87 44 119 44 103 b 45 41 45 72 45 56 b 45 33 45 38 45 35 b 46 27 46 31 46 29 b 46 24 46 26 46 25 b 46 20 46 23 46 22 b 59 -10 47 9 51 -2 b 89 -27 67 -19 78 -25 b 107 -27 95 -28 101 -28 l 112 -27 b 115 -26 113 -27 114 -26 l 117 -26 b 117 -25 117 -25 117 -25 l 118 -25 b 119 -25 118 -25 119 -25 l 122 -25 b 131 -26 125 -25 128 -26 b 148 -27 137 -26 143 -27 b 176 -31 159 -28 168 -29 z "},"M":{"ha":497,"x_min":0,"x_max":0,"o":"m 36 617 l 36 613 b 36 607 36 611 36 609 b 37 602 36 605 36 604 l 37 600 b 37 600 37 600 37 600 b 48 390 41 529 45 460 b 59 175 52 320 56 249 b 62 64 60 139 61 101 b 62 35 62 54 62 45 b 61 20 62 31 61 26 b 67 5 62 15 64 10 b 94 -10 72 -4 83 -10 b 110 -9 99 -11 105 -10 b 124 -1 115 -7 120 -4 b 135 15 129 4 133 9 b 136 25 136 18 136 22 b 137 33 137 27 137 30 b 139 62 138 43 139 53 b 143 117 141 82 142 100 b 150 208 146 148 148 177 b 174 120 158 179 166 150 b 198 30 181 95 189 64 b 204 7 198 22 201 14 b 223 -12 209 -1 216 -8 b 247 -21 230 -17 239 -20 b 260 -22 251 -22 256 -22 b 274 -19 265 -21 269 -20 b 286 -13 278 -17 282 -15 b 291 -8 288 -11 290 -10 b 296 -4 293 -7 295 -5 b 300 1 297 -2 299 0 b 302 4 301 2 301 3 l 303 6 b 308 15 305 9 307 12 b 319 50 314 27 317 39 b 324 81 321 62 322 72 b 328 108 325 90 327 99 b 340 153 332 125 336 140 b 357 212 345 172 351 192 b 358 192 357 205 358 199 b 366 89 361 159 364 125 b 369 36 368 72 369 54 l 370 29 l 370 25 l 370 20 b 376 3 371 14 373 8 b 407 -15 383 -7 394 -14 b 440 -5 419 -16 431 -13 b 450 10 445 -1 448 4 b 454 26 453 15 454 21 b 453 84 454 45 453 64 b 450 200 452 122 451 161 b 444 440 447 279 444 359 b 444 560 443 480 443 520 b 445 620 444 580 444 600 b 441 637 444 626 443 632 b 429 649 438 642 434 646 b 426 651 428 650 427 650 b 423 653 425 652 424 652 b 419 655 421 654 420 654 b 415 656 417 656 416 656 b 398 658 409 658 403 659 b 381 651 392 657 386 655 b 371 636 376 647 373 642 b 369 632 370 635 370 633 l 368 628 l 366 620 b 362 605 365 615 363 610 b 344 547 356 586 350 567 b 305 435 332 509 319 472 b 266 321 292 397 279 360 l 261 307 l 260 303 l 260 301 l 259 301 l 259 301 l 259 301 l 258 299 b 256 293 257 297 256 295 b 252 288 254 290 253 288 b 251 288 252 288 252 288 b 251 288 251 288 251 288 l 251 289 l 251 291 l 251 294 b 250 299 250 296 250 297 b 250 303 250 301 250 302 l 242 333 l 234 364 b 216 425 228 384 222 405 b 178 547 204 466 191 506 b 157 607 171 567 164 587 l 155 615 l 154 615 l 154 616 l 154 616 b 154 616 154 616 154 616 b 154 618 154 616 154 616 l 154 620 l 154 624 b 151 638 153 629 152 633 b 134 663 147 648 142 656 b 108 676 127 669 118 673 b 94 677 103 677 98 677 b 79 675 89 677 84 677 b 53 661 69 673 60 668 b 38 637 46 655 41 646 b 36 623 37 632 36 627 b 36 619 36 622 36 620 z m 379 380 b 377 392 378 385 377 389 b 380 402 378 396 379 399 b 380 381 380 395 380 388 b 379 380 380 380 379 380 z "},"N":{"ha":453,"x_min":0,"x_max":0,"o":"m 128 -26 b 148 -10 137 -22 144 -16 b 156 7 153 -4 155 2 b 157 20 157 12 157 17 b 154 25 156 22 155 24 b 151 23 154 25 153 25 b 147 15 150 22 149 19 b 138 3 145 12 142 7 b 119 -7 133 -1 127 -5 b 90 -1 109 -9 98 -7 b 140 26 109 -11 139 -3 b 141 46 140 33 141 39 b 147 27 143 36 145 29 b 159 45 151 22 155 29 b 165 202 167 75 172 138 b 146 401 158 264 151 331 b 182 318 158 373 170 346 b 233 195 199 277 216 236 b 284 70 250 154 267 112 b 311 9 293 50 300 28 b 316 1 313 6 314 4 l 318 -2 l 320 -6 b 335 -17 324 -11 329 -15 b 354 -18 341 -19 348 -19 b 371 -10 360 -16 366 -14 b 382 5 376 -6 380 -1 b 388 18 385 9 387 14 b 389 25 389 21 389 23 l 390 32 b 392 56 391 40 391 48 b 395 105 393 73 394 89 b 401 201 398 137 399 169 b 407 395 404 265 406 329 b 409 505 408 431 409 468 b 409 615 410 541 410 578 l 409 618 l 409 620 l 409 624 b 407 637 409 628 408 633 b 394 661 404 646 400 654 b 371 676 388 667 380 673 b 358 680 367 678 363 679 b 345 681 354 681 350 681 b 297 660 327 681 309 674 b 285 637 292 653 287 645 b 283 623 284 632 283 628 l 283 620 l 283 618 l 283 615 b 288 505 284 578 286 541 b 306 208 293 403 300 307 b 298 224 303 213 301 219 b 227 398 273 280 248 340 b 198 491 214 433 206 463 b 178 577 190 519 186 546 b 155 638 172 597 166 618 b 152 645 154 641 153 643 b 147 653 151 648 149 651 b 140 661 145 656 143 658 b 132 667 138 663 135 665 b 96 675 121 673 108 676 b 60 658 84 674 70 669 b 48 640 55 653 51 646 b 46 630 47 636 46 633 b 45 620 45 626 45 623 l 45 623 b 45 612 44 619 44 616 b 47 411 44 547 45 480 b 50 137 50 335 57 202 b 47 91 49 122 48 107 b 47 45 47 75 47 60 b 47 34 47 41 47 38 b 46 27 46 32 46 30 b 47 18 46 25 47 21 b 65 -17 49 4 55 -9 b 98 -31 74 -26 86 -30 b 114 -31 103 -32 109 -32 b 128 -26 120 -30 124 -28 z "},"O":{"ha":413,"x_min":0,"x_max":0,"o":"m 46 112 b 63 75 50 97 56 84 b 79 62 69 65 76 61 b 83 67 81 62 82 64 b 82 83 83 71 83 76 b 81 97 82 88 81 92 b 92 68 84 87 88 77 b 97 59 94 65 95 62 b 86 64 92 62 89 64 b 80 50 82 64 80 59 b 96 17 81 42 86 29 b 140 -9 107 6 122 -5 b 231 -3 170 -16 202 -13 b 306 47 259 6 286 24 b 329 87 316 59 323 73 b 343 131 335 101 339 116 b 360 222 350 161 354 192 b 374 315 365 254 370 284 b 379 362 376 331 377 346 b 381 410 380 378 380 394 b 374 514 381 443 381 478 b 356 568 370 532 364 550 b 349 581 354 572 352 577 b 341 594 347 585 344 590 b 321 617 335 602 329 610 b 281 643 309 628 296 637 b 259 651 274 646 267 649 b 248 653 256 652 252 653 b 245 654 247 653 246 653 b 243 654 244 654 243 654 b 241 654 242 654 241 654 l 240 654 l 240 654 b 239 654 240 654 240 654 b 234 656 237 655 236 656 b 223 658 230 657 226 658 b 212 657 219 658 216 658 b 207 656 211 657 209 657 b 204 655 206 656 205 656 b 176 645 194 652 185 649 b 124 612 157 637 139 626 b 96 577 113 602 104 589 b 77 537 89 564 83 550 b 59 494 70 521 65 507 b 45 454 54 481 49 468 b 32 372 37 428 34 400 b 32 286 30 344 30 315 b 39 220 33 268 36 244 b 41 157 41 196 43 173 b 46 112 40 143 42 127 z m 123 365 b 141 364 128 354 136 356 b 148 416 148 374 152 395 b 145 502 142 442 140 472 b 160 546 148 517 152 532 b 176 563 164 552 170 558 b 198 572 183 567 191 571 b 208 573 202 572 205 572 b 218 573 212 573 215 574 b 236 567 225 573 231 571 b 259 538 247 560 255 550 b 265 522 262 533 263 527 b 267 506 266 517 266 511 b 267 472 268 494 268 483 b 263 404 267 450 264 428 b 262 367 262 391 262 379 b 262 330 262 355 262 343 b 265 257 263 306 264 282 b 269 187 267 234 268 211 l 269 170 b 268 152 269 164 268 158 b 266 135 268 146 267 140 b 263 117 266 129 265 123 b 249 91 260 108 256 99 b 238 82 246 88 242 85 b 224 77 234 80 229 78 b 194 78 212 74 202 75 b 184 84 190 79 186 82 b 177 92 181 87 179 89 b 170 110 174 98 172 104 l 167 123 b 164 137 166 127 165 132 b 151 195 159 155 155 174 b 145 241 149 207 146 224 b 147 285 143 257 143 274 b 147 344 154 305 152 329 b 125 344 142 359 133 364 b 122 334 124 341 123 337 b 122 357 122 342 122 350 b 123 365 122 360 122 362 z "},"P":{"ha":406,"x_min":0,"x_max":0,"o":"m 37 607 b 45 596 40 601 43 598 b 38 511 37 584 31 548 b 60 119 61 398 70 254 b 56 66 59 101 58 83 b 53 41 55 58 54 49 l 51 28 b 50 24 51 27 51 26 b 50 20 50 23 50 21 b 51 10 50 16 51 13 b 59 -7 53 4 55 -2 b 74 -20 63 -12 68 -17 b 94 -26 80 -23 87 -25 b 105 -26 97 -26 101 -26 b 115 -24 108 -26 111 -25 b 149 3 129 -21 142 -11 b 155 25 153 9 155 18 b 157 38 156 29 157 34 b 163 151 161 76 163 113 b 162 208 163 170 163 189 l 161 222 l 160 228 l 160 229 b 158 233 159 230 159 231 l 158 234 l 158 234 l 158 234 b 161 236 158 235 159 235 b 163 236 161 236 163 236 l 165 236 l 165 236 l 167 236 b 182 236 172 236 177 236 b 237 247 201 237 219 241 b 327 309 272 259 303 281 b 374 395 348 334 364 364 b 388 446 380 414 385 430 b 391 494 391 461 392 477 b 279 658 388 558 347 625 b 242 670 269 663 256 667 b 200 675 229 673 214 674 b 127 675 171 676 145 674 b 115 676 123 675 119 676 b 112 676 114 676 113 675 l 112 676 b 112 676 112 676 112 676 l 111 677 b 111 677 111 677 112 677 l 110 677 l 109 678 l 108 678 b 93 680 103 679 98 680 b 66 674 84 680 74 678 b 44 655 57 670 49 663 b 35 631 38 647 36 638 l 37 637 b 37 607 33 624 35 614 z m 244 553 b 249 539 244 548 246 543 b 262 528 251 535 256 531 b 291 505 273 523 283 515 b 309 466 300 494 306 481 b 309 422 312 452 313 436 b 300 401 307 414 304 407 b 287 383 297 394 292 388 b 251 360 277 372 264 364 b 231 355 244 357 238 356 b 212 353 225 353 219 353 b 195 353 206 352 200 352 b 178 355 189 353 183 354 b 161 358 172 355 166 357 b 159 358 159 359 159 358 b 158 358 159 358 159 358 b 156 357 158 358 157 357 b 155 357 156 357 156 357 b 153 359 155 357 154 358 b 152 360 153 359 153 359 l 152 362 l 150 368 b 144 392 148 376 146 384 b 134 439 140 407 136 423 b 132 482 132 453 130 468 b 145 524 133 498 140 510 b 150 543 147 530 149 537 b 151 553 150 547 151 550 l 151 556 l 152 557 b 152 557 152 557 152 557 l 152 558 b 152 561 152 559 152 560 b 155 563 153 562 154 562 b 156 564 155 563 156 563 b 156 564 156 564 156 564 l 157 564 l 159 564 b 162 565 160 565 161 565 b 178 568 167 566 173 567 b 203 563 188 569 198 567 b 232 553 212 554 222 552 b 242 572 241 554 250 559 b 238 578 241 574 240 576 b 251 570 243 576 247 573 b 255 567 253 569 254 568 b 244 553 246 567 243 560 z m 56 621 b 59 627 57 623 58 625 l 59 626 b 64 634 61 629 62 632 b 61 626 63 632 62 629 b 61 601 58 618 58 609 b 61 590 61 597 61 594 b 51 601 58 598 54 601 b 51 602 51 601 51 601 b 56 621 52 606 52 613 z "},"Q":{"ha":407,"x_min":0,"x_max":0,"o":"m 367 388 b 366 408 367 395 366 401 b 365 427 365 414 365 421 b 365 460 364 439 364 451 b 362 513 367 476 366 495 b 344 557 358 530 351 546 b 326 573 337 568 330 574 b 323 567 324 573 323 571 b 323 559 323 565 323 562 b 324 549 323 556 324 553 b 326 533 325 543 326 538 b 313 567 323 544 319 556 b 308 577 311 570 309 573 b 319 570 312 573 316 571 b 324 586 324 570 326 576 b 304 622 322 595 316 609 b 254 651 292 635 274 647 b 241 654 250 652 245 653 b 234 655 238 654 236 654 b 231 654 232 655 232 654 l 230 654 b 228 655 230 654 229 655 l 226 656 b 218 658 223 656 221 657 b 201 657 212 658 206 658 b 197 656 200 657 198 656 b 194 655 196 656 195 655 l 188 653 b 177 649 185 652 181 650 b 134 626 162 643 147 636 b 98 591 120 617 107 605 b 85 570 93 584 89 577 b 75 546 81 562 78 554 b 53 448 63 515 57 482 b 43 348 48 415 46 381 b 34 238 39 310 36 274 b 35 126 32 202 30 166 b 51 64 38 105 43 84 l 54 56 b 58 48 55 54 56 51 b 67 32 60 42 64 37 b 93 4 74 22 83 12 b 108 -7 97 0 103 -3 b 125 -15 114 -10 119 -13 b 160 -25 136 -20 148 -23 b 196 -26 172 -27 184 -27 l 205 -25 l 206 -25 b 206 -25 206 -25 206 -25 l 206 -24 l 207 -24 b 209 -23 207 -24 208 -23 b 209 -23 209 -23 209 -23 b 211 -24 210 -23 210 -23 l 212 -25 l 212 -25 l 212 -26 l 213 -27 l 215 -30 b 231 -54 221 -38 226 -46 b 262 -101 241 -70 251 -86 l 264 -104 b 266 -109 264 -105 265 -107 b 274 -116 269 -111 271 -114 b 291 -125 279 -120 285 -123 b 328 -116 304 -128 318 -123 b 340 -101 333 -112 337 -107 b 346 -84 344 -96 345 -90 b 343 -66 346 -78 345 -71 b 335 -52 340 -60 338 -56 b 310 -9 327 -38 318 -24 b 298 14 306 -1 302 6 b 293 24 297 17 295 21 b 289 33 292 27 291 30 b 288 35 289 34 289 34 l 288 35 b 289 36 288 36 289 36 b 298 43 292 38 295 41 b 302 46 299 44 300 45 b 307 51 303 48 305 49 b 323 70 313 57 318 64 b 348 114 333 84 341 98 b 370 209 360 143 366 176 b 373 233 371 217 372 225 b 374 259 373 242 374 250 b 374 311 375 276 375 293 b 367 388 373 332 370 360 z m 266 136 b 264 129 266 134 265 131 b 261 136 264 132 263 134 b 251 137 258 139 255 139 b 250 137 251 137 250 137 l 247 140 b 225 153 241 147 233 151 b 180 140 208 158 191 151 b 173 131 178 138 175 134 b 169 121 171 128 170 124 b 168 110 168 117 168 113 b 170 99 168 106 169 102 b 175 90 172 96 174 92 l 180 82 b 189 68 183 77 186 73 b 159 75 179 68 168 70 b 137 103 149 81 142 92 b 124 172 129 125 125 149 b 139 320 121 224 132 269 b 143 361 141 333 142 347 b 145 400 144 374 145 387 b 150 476 146 426 147 452 b 152 490 151 481 151 485 b 154 504 152 495 153 499 b 160 528 156 512 157 521 b 165 539 162 532 163 536 b 171 548 167 543 169 546 b 180 556 173 551 176 554 b 185 559 181 557 183 558 b 190 561 187 560 188 561 b 199 563 191 561 196 562 l 203 564 b 207 565 204 565 206 565 b 222 564 211 566 217 565 b 235 556 226 562 231 559 b 246 544 239 553 242 549 b 259 514 252 535 257 525 b 262 479 262 501 262 489 b 257 446 261 468 259 458 b 255 415 256 436 255 425 b 254 382 254 404 254 392 b 258 314 255 360 257 337 b 261 263 259 301 261 282 b 254 216 261 245 259 227 b 245 155 245 196 243 171 b 266 151 247 139 255 131 b 271 161 268 154 270 158 b 266 136 270 153 268 144 z "},"R":{"ha":426,"x_min":0,"x_max":0,"o":"m 38 482 b 62 234 50 407 58 322 b 65 99 64 189 65 144 b 63 31 65 76 65 54 b 64 13 63 25 62 19 b 68 5 65 10 66 7 b 74 -2 69 2 72 0 b 110 -8 84 -10 98 -12 b 127 3 117 -6 123 -2 b 136 22 132 8 135 15 b 138 31 137 26 137 28 l 138 40 b 140 57 139 45 140 51 b 147 124 143 79 145 102 b 153 192 149 147 151 169 b 155 226 154 203 154 215 l 155 228 l 155 229 l 156 230 l 156 231 b 157 233 157 232 157 233 l 158 233 l 158 233 b 158 233 158 233 158 233 b 162 231 160 232 161 231 b 162 230 162 231 162 231 l 165 230 l 170 229 b 179 228 173 229 176 229 b 179 228 179 228 179 228 b 179 227 179 228 179 227 l 179 227 b 180 226 179 227 179 227 l 183 220 l 195 196 b 219 147 203 180 211 163 b 268 50 235 115 252 83 b 284 19 273 40 278 29 l 288 11 b 293 0 289 9 291 4 b 302 -11 296 -4 298 -7 b 314 -20 305 -14 309 -17 b 369 -18 331 -30 353 -29 b 379 -9 373 -16 376 -13 b 387 3 382 -6 385 -2 b 392 29 391 11 393 20 b 388 41 391 33 390 37 l 386 44 l 385 46 l 383 50 l 375 66 b 359 97 370 76 365 87 b 326 161 348 118 337 140 b 297 217 316 180 306 198 b 282 246 292 227 287 236 b 276 258 280 250 278 254 b 271 270 274 262 272 266 b 270 271 271 270 270 270 b 271 271 271 271 271 271 b 285 277 276 273 281 275 b 291 280 287 278 289 279 b 294 282 292 280 293 281 b 298 284 296 282 297 283 b 312 292 303 287 307 289 b 318 297 314 294 316 295 b 325 301 320 298 323 300 b 369 347 341 314 356 328 b 402 473 392 381 406 426 b 385 540 400 496 395 519 b 348 600 376 562 364 582 b 312 634 339 611 326 623 b 261 662 297 645 279 655 b 207 674 243 668 224 672 b 163 679 190 676 175 677 b 133 679 154 680 143 680 b 118 678 128 679 123 679 b 111 677 115 678 113 677 l 111 677 l 111 677 l 111 677 b 107 678 110 678 110 678 b 99 679 104 679 102 679 b 92 680 97 680 94 680 b 64 672 82 679 73 677 b 44 653 56 668 49 661 b 36 631 39 646 37 637 l 38 637 b 39 606 34 623 36 612 b 46 596 41 600 44 597 b 38 482 37 582 31 533 z m 243 553 b 248 539 244 548 245 543 b 261 528 251 535 255 531 b 291 505 272 523 282 515 b 309 466 299 494 306 481 b 308 422 312 452 312 436 b 300 401 307 414 303 407 b 287 383 296 394 292 388 b 250 360 276 372 263 364 b 231 355 244 357 237 356 b 212 353 225 353 218 353 b 194 353 206 352 200 352 b 177 355 188 353 183 354 b 160 358 172 355 166 357 b 159 358 159 359 159 358 b 158 358 158 358 158 358 b 156 357 157 358 157 357 b 155 357 155 357 155 357 b 153 359 154 357 153 358 b 152 360 152 359 152 359 l 151 362 l 150 368 b 144 392 148 376 146 384 b 133 439 140 407 136 423 b 131 482 131 453 130 468 b 144 524 133 498 139 510 b 149 543 146 530 148 537 b 151 553 150 547 150 550 l 151 556 l 151 557 b 151 557 151 557 151 557 l 152 558 b 152 561 152 559 152 560 b 154 563 153 562 153 562 b 156 564 155 563 155 563 b 156 564 156 564 156 564 l 157 564 l 158 564 b 162 565 160 565 161 565 b 177 568 167 566 172 567 b 202 563 187 569 197 567 b 231 553 212 554 222 552 b 242 572 240 554 249 559 b 238 578 241 574 239 576 b 251 570 242 576 247 573 b 255 567 252 569 254 568 b 243 553 246 567 243 560 z m 52 614 b 58 627 53 618 55 623 l 57 627 b 58 627 58 627 58 627 b 66 640 60 632 63 637 b 71 643 68 641 69 642 b 61 626 66 639 62 633 b 60 601 57 618 57 609 b 60 587 60 596 60 591 b 50 600 57 598 53 602 b 50 604 50 601 50 603 b 52 614 51 607 51 610 z "},"S":{"ha":375,"x_min":0,"x_max":0,"o":"m 345 214 b 340 232 344 220 342 226 b 334 249 338 238 337 244 b 326 266 332 255 329 261 b 287 315 315 287 299 304 b 277 322 283 318 280 320 b 270 327 275 324 272 325 b 260 329 265 329 262 330 b 260 320 258 328 258 325 b 264 312 261 318 262 315 b 271 300 266 309 268 305 b 281 283 274 294 278 289 b 250 318 272 295 261 307 b 239 328 246 322 243 325 b 254 324 246 325 251 323 b 252 342 259 325 258 332 b 220 377 246 352 234 364 b 174 416 206 390 190 403 b 139 455 160 427 147 440 b 135 508 131 471 129 490 b 171 557 141 527 154 545 b 201 567 180 562 190 566 b 232 557 212 567 222 563 b 252 531 241 551 248 542 b 257 497 257 521 258 509 b 256 488 256 494 256 491 b 256 480 255 485 256 482 b 264 464 257 474 260 468 b 297 453 273 455 285 451 b 313 461 303 454 309 457 b 320 477 317 466 319 472 b 323 495 321 483 322 489 b 323 504 323 498 323 501 l 323 513 b 323 518 323 515 323 516 l 323 522 l 322 531 l 320 540 l 319 544 l 318 549 l 316 557 l 312 566 l 311 570 l 309 574 l 304 582 b 294 598 301 587 298 593 b 287 605 292 600 290 603 l 281 612 b 249 634 271 621 261 629 b 213 646 238 640 226 644 b 174 647 200 648 187 649 b 101 618 147 644 122 633 l 92 611 b 85 605 90 609 87 607 b 78 598 82 602 80 600 l 71 590 b 64 582 68 588 66 585 l 58 574 b 52 565 56 571 54 568 b 46 556 50 562 48 560 b 37 536 43 550 39 543 b 30 514 34 529 32 522 b 25 468 26 499 24 484 b 34 422 26 452 29 437 b 43 401 37 415 39 407 b 48 391 44 397 46 394 l 54 381 b 60 372 55 378 58 375 b 66 363 62 369 64 366 b 80 346 71 357 75 352 b 109 317 89 336 99 326 b 140 291 119 308 129 299 b 155 279 145 287 150 283 b 169 268 160 275 165 272 b 195 245 179 261 187 253 b 207 233 199 241 203 237 l 212 226 l 217 220 b 222 213 219 218 221 216 b 227 207 224 211 225 209 b 234 193 229 202 232 197 b 245 163 239 183 242 173 l 246 155 b 246 147 246 152 246 150 b 246 131 247 142 246 137 b 244 123 246 128 245 126 b 243 115 244 120 243 118 b 237 100 241 110 239 105 b 216 76 232 91 225 82 b 201 69 212 73 207 71 b 185 67 196 68 190 67 b 170 68 180 66 175 67 b 157 73 166 69 161 71 b 135 94 148 78 141 86 b 127 124 130 103 127 113 b 127 127 127 125 127 126 l 128 131 l 128 136 b 129 140 129 137 129 139 b 124 159 129 147 127 153 b 89 182 117 172 103 180 b 69 178 82 182 75 181 b 54 164 63 175 58 170 b 50 155 52 161 51 158 l 47 146 l 46 141 l 46 139 l 45 137 l 44 128 b 43 120 44 126 43 123 b 43 111 43 117 43 114 b 43 102 43 108 43 105 b 44 93 43 99 43 96 b 68 28 46 71 55 48 b 127 -20 83 8 103 -9 b 136 -23 130 -21 133 -22 b 145 -26 139 -24 142 -25 l 155 -28 b 159 -29 156 -29 158 -29 l 164 -30 l 174 -31 b 184 -31 177 -31 180 -31 b 193 -31 187 -31 190 -32 l 203 -30 b 276 -2 229 -28 255 -17 b 314 37 289 7 303 21 b 339 92 325 53 334 72 b 345 121 342 102 344 112 b 347 135 346 126 346 131 b 348 149 347 140 347 145 b 347 196 348 167 347 183 b 345 214 347 202 346 208 z "},"T":{"ha":368,"x_min":0,"x_max":0,"o":"m 17 556 b 47 544 27 548 38 544 b 53 544 49 544 51 544 b 58 544 55 544 56 544 b 65 547 61 545 63 546 b 71 553 69 549 71 551 b 64 558 70 555 68 556 b 57 560 62 558 60 559 b 47 565 54 562 50 563 b 35 577 42 568 38 572 b 69 566 43 568 56 565 b 80 568 72 567 76 567 b 70 560 74 565 71 562 b 81 549 69 555 73 552 b 116 546 90 547 102 546 b 122 546 118 546 120 546 b 127 546 124 546 125 546 b 129 547 127 546 128 546 b 132 548 130 547 131 547 b 135 549 133 548 135 549 b 139 543 137 548 138 546 b 140 541 139 543 140 542 b 140 540 140 541 140 541 l 141 539 l 141 536 b 143 524 142 532 142 528 b 149 475 145 508 147 492 b 158 372 153 442 156 408 b 157 157 162 302 162 228 b 153 102 156 139 155 120 b 147 49 151 84 150 67 l 146 36 l 145 29 l 144 25 b 144 20 144 23 144 21 b 149 -1 144 13 146 5 b 163 -18 152 -8 157 -14 b 184 -28 169 -23 176 -26 b 207 -28 191 -30 200 -30 b 230 -20 214 -27 223 -24 b 247 -1 237 -15 243 -9 b 255 24 252 6 254 16 l 256 39 b 259 69 257 49 258 59 b 261 128 260 89 261 109 b 255 247 261 168 259 208 b 231 472 248 324 236 394 b 228 522 230 488 229 505 l 228 534 l 228 546 b 228 567 228 553 228 561 l 228 568 b 229 569 228 569 228 570 b 232 569 230 569 231 569 b 238 568 234 569 236 569 b 249 567 242 568 245 567 b 254 566 250 567 252 566 l 256 565 l 259 565 b 271 562 263 564 267 563 b 294 557 279 561 286 559 b 305 554 297 556 301 555 b 314 552 308 553 311 552 b 319 551 316 552 317 552 b 324 552 320 551 322 551 b 355 568 336 552 348 558 b 367 605 363 578 367 591 b 362 625 366 612 365 619 b 351 643 359 632 356 638 b 333 656 346 648 340 653 b 323 659 330 657 326 658 b 318 660 321 660 319 660 l 315 661 l 313 661 b 211 665 280 665 246 666 b 134 659 190 664 162 662 b 61 655 106 657 79 654 l 56 656 l 53 656 b 51 656 52 656 51 656 l 48 656 b 43 655 46 656 44 655 b 37 654 41 654 39 654 b 27 649 34 653 30 651 b 10 634 21 646 15 640 b 1 613 6 628 3 621 b -1 591 -1 606 -2 598 b 17 556 1 576 8 564 z "},"U":{"ha":403,"x_min":0,"x_max":0,"o":"m 91 4 b 128 -22 102 -7 115 -16 b 165 -33 141 -29 154 -32 b 191 -32 176 -35 185 -34 b 202 -27 198 -30 202 -28 b 195 -21 203 -25 200 -23 b 190 -20 193 -20 192 -20 b 184 -18 188 -19 186 -18 b 168 -12 179 -16 174 -14 b 147 -1 161 -9 154 -5 b 201 -12 164 -9 182 -13 b 218 -10 207 -12 213 -11 b 218 -10 218 -10 218 -10 b 205 -17 212 -13 207 -15 b 211 -27 199 -21 202 -25 b 256 -22 220 -29 237 -29 b 271 -16 261 -20 266 -18 b 272 -15 271 -15 272 -15 l 273 -14 l 273 -14 b 275 -14 274 -14 274 -14 b 277 -13 275 -14 276 -13 l 277 -12 b 277 -13 277 -12 277 -12 b 278 -14 277 -13 277 -13 b 279 -15 278 -14 278 -15 l 279 -15 l 279 -15 b 279 -15 279 -15 279 -15 l 278 -14 l 279 -15 l 280 -15 l 282 -17 b 290 -21 284 -18 287 -20 b 324 -23 301 -25 313 -26 b 350 -10 333 -21 343 -16 b 365 15 357 -3 362 6 b 366 29 366 20 366 25 b 366 38 366 32 366 35 b 365 57 365 44 365 51 b 360 133 363 82 361 107 b 350 292 356 184 353 238 b 345 459 347 347 345 403 b 346 542 345 487 345 515 b 347 584 346 556 346 570 b 347 605 347 591 347 598 b 342 628 348 612 346 621 b 322 643 337 635 330 640 b 309 645 318 644 314 645 b 296 643 305 645 301 645 b 275 628 288 641 280 636 b 270 616 273 624 271 620 b 269 609 269 613 269 611 l 269 607 l 269 606 l 268 603 b 264 520 267 575 265 548 b 254 352 260 465 257 410 b 252 261 253 322 253 291 l 252 215 l 252 193 l 251 185 b 250 175 251 181 250 178 b 240 137 248 161 245 149 b 233 120 238 131 236 125 b 223 104 230 114 227 109 b 212 91 220 99 216 94 b 202 83 208 87 205 84 b 194 80 199 81 196 80 b 185 82 192 80 189 80 b 177 89 182 84 179 86 b 172 94 175 90 174 92 b 169 98 171 95 169 98 b 169 98 169 98 169 98 b 169 99 169 99 169 99 l 168 100 l 168 102 b 165 110 167 105 166 107 b 161 128 163 116 162 122 b 158 146 160 133 159 140 b 155 165 157 152 156 158 b 146 240 151 190 149 215 b 140 397 142 291 141 343 b 144 554 140 448 140 502 b 147 597 144 569 146 583 b 148 607 147 600 148 603 b 149 612 148 608 148 610 l 149 614 l 149 617 b 142 640 149 625 147 634 b 123 656 138 647 131 653 b 98 659 115 659 106 660 b 73 648 89 658 80 654 b 58 623 65 642 60 633 b 56 616 57 621 57 619 l 56 611 l 55 602 b 53 585 54 596 54 591 b 50 549 52 573 51 561 b 45 475 48 525 46 500 b 42 320 42 425 41 373 b 46 202 42 288 44 244 b 49 139 47 180 48 159 b 53 87 51 119 52 102 b 65 43 54 73 58 57 b 91 4 71 29 80 15 z "},"V":{"ha":392,"x_min":0,"x_max":0,"o":"m 358 647 b 336 662 351 654 344 659 b 311 665 328 665 319 666 b 289 659 303 665 295 663 b 273 645 282 655 277 650 b 268 631 270 640 268 635 b 269 618 266 623 268 619 b 277 624 271 617 273 619 b 285 632 279 626 281 629 b 299 640 288 635 293 638 b 320 637 306 641 314 640 b 284 616 305 642 287 636 b 281 600 283 610 282 605 b 239 496 277 651 242 578 b 224 321 236 442 231 382 b 219 274 223 306 221 290 b 211 227 216 259 214 243 b 194 134 206 196 200 165 b 164 313 180 193 171 254 b 152 458 159 363 155 411 b 146 530 150 482 148 506 b 143 566 145 542 144 554 b 141 584 142 572 142 578 l 140 593 l 139 598 l 139 603 l 136 626 b 118 657 133 638 127 649 b 85 670 109 665 97 670 b 48 662 72 671 59 668 b 33 650 43 659 37 655 b 22 635 29 646 25 641 b 16 598 16 623 14 609 b 17 592 16 594 17 593 l 18 587 l 19 577 l 22 558 b 52 404 31 506 41 455 b 87 258 63 354 75 306 b 126 111 99 210 111 161 b 135 79 129 101 132 90 b 145 47 138 68 141 57 b 161 15 149 36 154 25 b 190 -7 168 5 178 -3 b 195 -8 192 -7 194 -8 l 197 -16 l 199 -8 b 213 -6 203 -9 208 -8 b 223 -2 216 -5 220 -4 b 231 5 226 0 228 3 b 249 37 240 15 245 26 b 261 66 253 47 257 56 b 272 97 264 76 268 86 b 290 156 278 116 284 136 b 304 219 295 177 299 197 b 327 350 313 261 320 305 b 342 450 332 377 337 414 b 362 543 348 486 354 521 b 371 575 365 553 368 564 b 375 591 372 580 374 586 l 375 594 l 375 597 b 376 605 376 600 376 602 b 374 621 376 610 375 616 b 358 647 371 631 365 640 z "},"W":{"ha":629,"x_min":0,"x_max":0,"o":"m 598 647 b 565 664 588 657 576 662 b 534 660 554 666 543 664 b 514 642 524 656 518 649 b 509 627 510 636 509 631 b 510 620 509 623 509 621 b 514 622 511 620 512 620 b 520 631 515 624 517 627 b 536 643 523 635 528 640 b 562 642 544 645 553 646 b 580 629 569 639 575 635 b 586 615 583 625 585 620 b 524 617 579 644 531 653 b 519 592 523 609 521 600 b 501 597 521 630 512 625 b 457 405 487 560 468 485 b 429 221 449 347 440 285 b 370 531 406 320 385 424 b 364 577 368 546 366 562 l 361 601 b 360 612 361 604 361 608 b 355 623 359 616 358 620 b 337 638 351 630 345 635 b 314 639 330 641 321 642 b 298 623 306 637 300 630 b 295 611 296 619 296 615 l 293 599 b 255 416 281 538 269 477 b 240 353 250 395 245 374 b 233 322 238 343 235 332 b 229 306 232 317 230 312 l 227 299 l 225 293 b 220 273 223 286 221 278 b 215 256 218 267 216 261 b 206 233 211 247 208 239 b 204 229 205 232 205 230 l 203 240 l 200 258 b 197 286 199 269 198 278 b 197 296 197 290 197 293 b 191 327 195 306 193 316 b 180 391 188 348 184 369 b 139 607 167 463 153 535 l 139 611 l 138 614 l 138 614 l 138 615 l 138 617 b 137 617 138 617 137 617 b 137 617 137 617 137 617 l 137 617 l 137 618 b 136 622 137 620 136 621 b 132 631 135 625 133 628 b 120 648 129 637 125 643 b 84 666 110 658 97 664 b 44 657 70 668 56 664 b 17 627 32 650 22 640 b 12 607 14 621 13 614 b 13 597 13 604 12 600 l 14 591 b 21 548 16 576 18 562 b 41 466 27 520 34 493 b 50 426 44 453 47 440 l 60 386 b 125 131 82 298 103 215 b 158 3 136 88 147 46 b 169 -16 160 -4 164 -11 b 189 -26 174 -21 181 -24 b 210 -25 196 -27 203 -27 b 229 -14 217 -23 223 -19 b 239 4 234 -9 237 -3 b 244 21 241 10 242 15 b 252 54 246 32 249 43 b 305 285 270 128 288 208 b 318 340 310 305 314 323 b 324 291 320 324 322 308 b 343 154 329 247 335 201 b 355 84 347 131 351 108 b 368 11 359 60 363 36 l 368 9 b 369 6 369 8 369 7 l 371 2 b 375 -7 372 -2 373 -4 b 381 -15 377 -10 379 -13 b 388 -22 383 -17 385 -20 b 405 -31 393 -26 399 -29 b 410 -32 407 -31 408 -32 b 415 -33 411 -33 413 -33 b 424 -34 418 -34 421 -34 b 461 -23 437 -35 451 -31 b 468 -17 464 -21 466 -19 b 472 -13 470 -15 471 -14 l 474 -9 l 476 -7 b 476 -6 476 -6 476 -6 l 477 -4 b 479 0 478 -3 478 -2 b 482 6 480 2 481 4 b 494 52 488 23 491 38 b 503 94 497 66 500 80 b 520 176 508 118 514 146 b 539 269 526 206 532 237 b 578 432 552 332 565 393 b 605 546 589 467 598 508 b 611 574 607 555 609 565 b 613 587 611 578 612 583 b 614 594 613 590 614 592 l 614 596 l 615 599 b 615 605 615 601 615 603 b 611 628 615 613 614 621 b 598 647 608 635 603 642 z m 107 608 b 107 607 107 608 107 608 b 107 608 107 608 107 608 l 107 610 b 107 608 107 610 107 609 z "},"X":{"ha":410,"x_min":0,"x_max":0,"o":"m 378 676 b 354 688 370 682 362 686 b 330 689 346 690 338 691 b 310 681 322 688 316 685 b 300 670 305 678 302 674 b 296 656 295 663 295 658 b 306 660 298 655 300 656 b 316 666 308 661 312 664 b 333 668 321 667 327 669 b 354 658 341 667 349 663 b 309 649 340 668 320 668 b 301 635 306 644 304 639 b 303 652 303 643 304 649 b 285 645 301 657 294 654 b 226 538 268 627 241 586 b 217 512 223 529 220 521 l 215 505 l 214 505 l 214 504 l 214 503 l 214 501 b 212 494 213 499 212 496 b 201 457 210 485 206 472 b 201 457 201 456 201 457 l 201 457 l 200 458 l 199 460 l 196 464 b 191 475 195 467 193 471 b 185 487 189 479 187 483 l 181 493 b 177 501 180 495 179 498 b 143 576 166 525 155 550 b 127 614 138 588 132 601 b 118 633 124 620 121 627 b 114 643 117 636 116 640 b 107 651 112 646 110 649 b 88 660 102 656 95 660 b 68 655 81 661 74 659 b 54 639 62 651 57 645 b 54 618 51 632 51 624 b 108 471 73 569 91 520 b 130 403 116 448 123 426 b 141 370 134 392 138 381 b 146 353 143 364 145 358 l 148 349 l 148 346 l 149 342 l 147 337 b 146 335 146 336 146 336 l 145 333 l 142 328 l 133 309 b 114 271 127 296 120 284 b 77 192 102 245 89 219 b 45 119 66 168 55 144 l 29 83 l 12 44 b 11 38 12 42 11 40 b 9 32 10 36 9 34 b 8 25 9 29 8 27 b 9 19 8 23 8 21 b 16 -6 9 10 12 2 b 23 -16 18 -10 21 -13 b 33 -26 26 -20 29 -23 b 55 -38 39 -31 47 -35 b 87 -38 66 -41 76 -41 b 114 -23 97 -36 106 -30 b 130 0 122 -15 127 -8 l 131 3 l 132 5 l 133 9 l 136 16 b 158 77 144 37 151 57 b 184 155 167 103 175 129 b 190 174 186 161 188 168 l 191 182 b 196 202 193 187 194 194 l 198 208 l 199 211 l 199 213 b 200 214 200 213 200 214 b 204 207 201 212 202 209 b 214 189 207 202 210 196 l 217 183 l 218 180 l 219 178 l 220 176 b 229 157 223 170 226 164 b 246 119 235 145 240 132 b 275 53 256 98 265 75 b 289 19 280 42 284 30 b 293 10 290 16 291 13 b 299 1 294 7 297 4 b 318 -8 304 -4 311 -7 b 361 6 334 -12 352 -7 b 367 27 366 12 368 19 b 367 32 367 29 367 31 l 366 35 b 366 38 366 36 366 37 b 364 46 365 40 364 43 b 346 112 358 68 352 89 b 307 229 335 150 322 189 b 284 290 300 249 292 269 b 272 320 280 300 276 310 b 265 336 270 326 267 331 l 264 339 l 264 340 l 263 341 l 263 342 l 263 343 b 264 344 263 343 263 343 b 269 357 266 348 267 353 b 309 458 280 385 294 422 b 357 549 325 494 342 528 b 376 578 364 558 370 568 b 386 593 379 583 383 588 b 390 601 387 596 388 599 l 390 602 l 391 604 l 393 608 b 396 616 394 611 395 614 b 395 650 399 628 399 639 b 378 676 392 660 385 669 z "},"Y":{"ha":346,"x_min":0,"x_max":0,"o":"m 329 663 b 308 679 323 670 316 676 b 285 686 301 683 292 685 b 247 674 271 686 257 682 b 232 651 238 666 233 657 b 234 639 231 644 232 641 b 241 643 235 638 238 640 b 260 656 245 647 250 653 b 278 658 266 658 272 659 b 247 635 265 658 252 651 b 244 623 246 631 245 627 b 226 629 243 642 236 642 b 194 542 214 614 200 580 b 188 509 192 531 190 520 b 185 493 187 504 186 498 b 183 482 185 490 184 486 b 178 455 182 474 180 465 b 170 422 175 444 173 433 b 169 420 170 421 170 420 l 169 421 l 167 424 l 164 429 b 157 442 162 433 160 437 b 143 472 153 451 148 461 b 135 490 141 477 138 484 b 127 508 133 496 130 502 b 113 546 122 521 117 533 b 87 623 103 571 95 597 l 84 633 b 81 643 83 636 82 639 b 66 659 78 649 73 655 b 45 663 60 663 52 664 b 23 656 37 663 30 660 b 12 641 18 652 14 647 b 10 623 10 636 9 629 l 11 618 l 12 615 l 14 607 b 17 592 15 602 16 597 b 32 533 22 572 27 553 b 65 415 42 494 52 455 b 85 361 71 397 78 379 b 95 334 88 352 92 343 l 101 320 l 104 314 l 104 313 b 106 310 105 312 105 311 b 108 306 106 309 107 308 b 109 305 109 305 109 305 l 109 305 b 109 305 109 305 109 305 l 109 305 b 109 305 109 305 109 305 l 109 303 l 109 285 b 110 248 109 273 110 260 b 113 174 111 223 112 199 b 122 49 116 131 119 90 b 124 17 123 38 123 28 l 124 15 l 124 13 b 125 7 125 11 125 9 b 128 -3 126 4 127 0 b 142 -19 131 -10 136 -15 b 182 -24 154 -27 170 -28 b 199 -13 189 -21 195 -18 b 208 5 204 -8 207 -1 b 209 14 209 8 209 11 b 209 21 209 16 209 18 b 209 35 209 25 209 30 b 208 63 208 44 208 53 b 210 119 208 82 209 101 b 224 231 212 164 219 194 b 229 283 226 248 228 265 b 230 309 230 291 230 300 b 231 323 230 314 231 318 l 231 324 b 231 325 231 325 231 325 l 231 325 b 231 326 231 326 231 326 l 232 327 l 232 327 l 232 327 l 232 327 l 232 328 l 235 331 l 240 338 l 244 345 b 257 373 249 354 253 364 b 275 428 264 392 269 411 b 299 510 282 450 290 480 b 326 585 308 539 317 567 b 332 597 328 589 330 593 b 335 604 333 600 334 602 l 336 608 l 337 610 b 338 612 337 610 338 611 b 340 639 341 621 341 630 b 329 663 338 648 334 656 z "},"Z":{"ha":421,"x_min":0,"x_max":0,"o":"m 404 623 b 398 643 403 629 401 636 b 364 672 391 656 378 666 b 343 678 357 675 350 677 b 332 679 339 679 335 679 b 326 680 330 679 328 679 l 323 680 l 321 679 b 284 677 309 679 296 678 b 164 666 246 672 205 669 b 100 661 143 665 121 663 b 83 660 94 661 89 660 b 65 654 77 659 71 657 b 49 622 54 647 48 634 b 65 591 49 609 54 597 b 83 587 71 588 77 587 b 100 588 89 588 94 588 b 168 590 122 589 145 590 b 237 589 191 590 214 589 b 303 587 259 588 281 588 l 304 587 b 303 586 304 587 304 587 l 302 584 l 300 578 l 294 569 l 283 550 b 260 511 276 537 268 524 b 214 432 244 484 230 458 b 192 394 207 419 199 406 l 181 375 b 177 369 178 371 178 370 l 174 365 b 166 365 171 365 168 365 b 149 366 160 366 154 366 l 140 366 l 137 366 l 134 366 b 127 365 132 366 129 365 b 100 351 117 363 108 358 b 85 325 93 344 88 334 b 85 293 83 315 83 303 b 103 266 88 283 94 273 b 111 261 105 264 108 262 b 55 144 92 222 73 183 l 38 106 b 29 89 36 101 32 95 b 19 67 26 82 23 75 b 13 38 16 59 14 50 b 19 3 12 27 13 14 b 42 -24 24 -8 32 -17 b 73 -35 52 -30 62 -34 b 87 -36 79 -36 82 -36 b 99 -36 91 -36 95 -36 b 121 -35 106 -36 114 -35 b 142 -32 128 -34 135 -33 b 163 -30 149 -31 156 -30 b 245 -20 191 -27 218 -23 b 328 -11 273 -16 300 -13 l 333 -10 l 335 -10 l 339 -10 b 352 -5 344 -9 348 -8 b 371 14 361 -1 367 6 b 374 41 374 23 375 32 b 360 64 372 50 367 58 b 340 72 355 68 347 71 b 334 72 338 72 336 72 l 330 71 b 320 71 327 71 323 71 b 283 68 308 70 295 69 b 207 65 257 67 232 65 b 186 65 200 65 193 64 b 176 65 182 65 179 65 b 171 65 174 65 172 65 b 167 65 169 65 168 65 b 144 67 157 65 150 66 b 139 68 142 68 141 68 b 139 69 139 68 139 68 l 140 70 l 141 73 b 148 83 144 76 146 80 b 154 91 150 86 152 88 b 157 94 155 92 156 93 b 158 96 157 94 157 95 l 159 98 l 161 102 b 227 225 184 140 206 182 b 242 257 232 236 237 246 l 244 259 l 246 260 b 283 261 258 260 271 261 l 292 262 l 297 262 l 301 262 b 305 263 302 263 303 263 b 335 278 316 265 327 270 b 348 296 340 283 345 289 b 351 307 349 299 351 303 b 353 318 352 311 353 314 b 334 363 353 334 347 352 b 310 375 327 369 319 373 b 304 376 308 375 306 376 b 297 376 302 376 299 376 b 295 376 296 376 296 376 b 327 432 306 398 317 418 b 346 463 334 441 340 452 b 364 494 352 473 358 484 b 392 555 376 515 386 537 b 395 589 397 573 398 586 b 372 563 391 591 385 583 b 358 544 367 557 363 550 b 381 593 367 560 375 576 b 384 609 383 599 384 604 b 385 606 384 608 384 607 b 388 592 386 599 386 595 b 394 592 389 590 391 590 b 398 598 395 593 397 595 b 403 608 400 600 401 604 b 404 615 403 610 403 612 b 404 623 404 618 404 620 z "},"[":{"ha":367,"x_min":0,"x_max":0,"o":"m 296 681 b 288 701 294 689 291 696 b 275 715 284 707 280 712 b 250 725 266 722 256 725 b 239 721 243 725 240 723 b 244 714 238 719 240 717 b 261 699 248 711 255 707 b 267 682 264 694 266 688 b 237 707 263 694 254 705 b 225 708 233 707 229 707 b 237 714 231 709 236 711 b 227 726 240 717 236 722 b 185 734 218 730 203 734 b 171 734 180 734 176 734 b 164 733 169 734 166 733 b 157 732 162 733 160 733 b 127 726 148 731 138 730 b 98 712 118 723 108 719 b 84 699 93 708 88 704 b 79 692 83 697 81 694 b 75 684 78 689 76 687 b 68 653 70 674 69 663 b 69 623 67 643 68 633 b 72 594 70 613 71 604 b 74 580 73 590 74 585 b 76 566 75 575 75 571 b 80 507 78 546 79 527 b 71 265 84 427 80 345 b 37 21 60 181 45 105 b 35 -14 36 11 35 -1 b 36 -35 35 -21 35 -28 b 44 -58 38 -43 40 -50 b 59 -81 47 -66 53 -74 b 82 -96 66 -87 74 -92 b 128 -104 97 -103 114 -105 b 147 -103 135 -104 141 -103 l 164 -100 b 197 -96 175 -99 186 -97 l 213 -93 l 221 -92 l 227 -90 b 234 -89 229 -90 232 -89 b 247 -83 238 -87 242 -86 b 260 -74 252 -81 256 -77 b 276 -48 267 -67 273 -58 b 276 -19 278 -38 278 -28 b 271 -6 275 -15 273 -10 b 268 0 270 -4 269 -2 b 263 6 266 2 265 4 b 242 22 257 13 250 18 b 216 24 233 25 224 26 b 209 23 212 24 211 23 l 203 22 l 193 20 b 171 15 185 18 178 17 l 165 14 b 161 13 164 13 161 13 b 156 11 159 12 158 12 b 144 9 152 11 148 10 l 143 8 b 143 9 143 8 143 9 l 142 10 l 142 13 l 141 20 l 140 24 l 140 26 b 140 28 140 27 140 27 b 140 41 140 33 140 37 b 138 94 139 59 138 76 b 142 207 138 131 139 170 b 162 319 147 252 155 282 b 172 538 174 386 176 461 b 168 584 171 552 170 567 b 168 590 168 586 168 588 b 168 595 168 592 168 594 b 168 607 168 599 168 603 l 168 610 b 168 613 168 612 168 613 l 168 615 b 168 619 168 616 168 618 b 168 620 168 619 167 620 b 169 621 168 620 168 621 b 172 621 170 621 171 621 b 175 621 173 621 174 621 b 180 621 175 621 176 621 b 209 619 191 622 201 621 b 221 616 213 618 217 617 l 228 615 l 231 614 l 238 613 b 264 617 247 613 256 614 b 285 633 272 621 280 626 b 296 681 296 647 299 665 z "},"]":{"ha":283,"x_min":0,"x_max":0,"o":"m 241 672 b 233 706 240 683 238 695 b 222 722 230 712 226 718 b 219 726 221 724 220 725 b 215 729 218 727 216 728 b 208 733 213 730 210 732 b 195 738 203 736 199 738 b 184 739 191 739 187 740 b 175 736 179 739 176 737 b 179 729 174 734 175 731 b 182 727 180 728 181 727 b 186 724 184 726 185 725 b 191 720 188 722 190 722 b 196 715 193 719 194 717 b 205 700 200 711 203 705 b 173 721 199 711 189 719 b 160 723 169 722 164 722 b 173 728 167 724 171 726 b 163 741 176 732 172 737 b 120 748 153 745 138 749 b 64 738 103 748 83 745 b 39 729 56 735 47 732 b 22 721 35 727 28 725 b 9 707 17 717 12 713 b 5 669 2 696 1 681 b 9 661 6 666 7 663 b 14 653 10 658 12 656 b 28 642 18 648 23 644 b 46 638 34 639 40 638 b 55 639 49 638 52 638 b 59 640 56 639 57 639 l 62 641 b 89 648 71 643 80 646 b 103 651 94 649 98 650 l 110 652 b 117 653 113 653 114 653 b 144 654 125 654 134 654 b 144 627 144 645 144 636 b 145 597 144 617 144 607 b 144 537 144 577 144 557 b 137 417 142 497 140 457 b 111 177 130 334 118 260 b 106 106 109 153 107 129 b 105 70 106 94 105 82 l 104 52 l 104 44 l 104 40 l 104 39 b 105 39 104 39 104 39 b 104 38 105 39 105 39 l 104 38 l 104 38 l 104 38 l 102 38 l 99 38 b 93 39 97 39 95 39 b 88 40 91 39 89 39 l 82 41 b 75 42 80 41 77 41 b 48 36 65 42 56 40 b 26 18 39 32 32 26 b 19 6 23 14 21 10 b 15 -8 17 1 16 -3 b 17 -36 13 -17 14 -27 b 31 -59 19 -45 24 -53 b 54 -71 38 -65 46 -69 l 56 -72 l 57 -72 l 59 -72 l 64 -73 l 72 -74 b 88 -76 77 -75 82 -76 b 121 -78 99 -77 110 -78 b 156 -73 132 -78 144 -76 b 188 -53 167 -70 180 -63 b 204 -20 197 -43 201 -32 b 207 13 206 -9 207 2 b 206 69 208 32 206 51 b 207 126 205 88 206 107 b 222 236 209 170 217 199 b 233 451 232 303 234 376 b 235 615 232 497 227 576 b 240 641 237 624 239 631 b 241 672 241 650 242 661 z "},"^":{"ha":338,"x_min":0,"x_max":0,"o":"m 313 514 b 304 538 312 523 307 532 b 296 557 302 544 298 550 b 286 592 290 570 286 582 b 265 637 286 610 276 628 b 246 627 255 645 245 644 b 246 618 246 624 246 621 b 238 635 244 624 241 630 b 236 640 237 637 237 639 b 244 639 239 639 242 638 b 252 649 248 639 251 643 b 246 671 253 655 251 663 b 221 691 241 679 233 687 b 188 696 211 695 200 697 b 158 684 177 695 166 690 b 138 663 150 678 144 671 b 123 641 133 656 128 648 b 97 593 114 625 106 609 b 68 546 88 577 78 562 b 37 498 57 530 47 514 b 29 486 34 494 32 490 b 25 478 28 484 27 481 b 23 473 25 477 24 475 b 22 467 23 471 22 469 b 36 423 19 452 23 435 b 59 408 42 416 50 411 b 73 405 64 406 68 405 b 87 405 78 404 82 404 b 114 415 97 406 106 410 b 133 438 122 421 129 429 b 136 444 135 440 135 442 l 137 447 l 138 449 l 140 456 b 144 469 141 460 143 465 b 152 497 146 478 149 488 b 159 523 154 506 156 514 b 163 536 160 527 161 532 b 164 542 163 538 164 540 l 165 544 l 165 545 l 165 547 b 170 564 166 551 167 557 b 174 576 171 568 173 572 l 177 582 b 179 585 178 583 178 584 l 180 586 l 180 587 b 180 587 180 587 180 587 l 182 586 b 187 579 183 584 185 582 b 192 571 189 577 190 574 b 199 551 195 565 197 558 b 202 538 200 547 202 542 b 203 525 203 533 203 529 b 204 500 204 517 204 509 l 204 497 b 205 493 205 496 204 495 b 206 489 205 492 206 491 b 208 484 206 488 207 486 b 219 468 210 478 214 473 b 238 457 224 463 231 459 b 259 453 244 454 251 453 b 300 471 274 454 290 460 b 313 514 311 482 315 498 z "},"_":{"ha":411,"x_min":0,"x_max":0,"o":"m 412 -18 b 402 0 410 -12 407 -5 b 386 12 398 6 392 10 b 370 16 380 15 375 16 b 355 7 361 15 356 11 b 357 1 355 5 356 3 b 365 -5 359 -1 362 -3 b 370 -11 367 -7 368 -9 b 355 -7 366 -9 361 -7 b 350 -7 353 -7 352 -7 b 315 17 366 6 341 27 b 138 3 263 -3 199 -9 b 91 15 121 6 106 10 b 68 21 83 17 75 19 l 62 23 l 60 23 b 58 23 60 23 59 23 b 53 24 56 23 55 24 b 32 19 46 24 39 22 b 1 -15 17 13 6 0 b -1 -40 -1 -23 -2 -32 b 6 -63 0 -47 2 -56 b 44 -93 14 -78 28 -90 b 56 -94 48 -94 52 -94 l 60 -94 b 61 -94 60 -94 61 -94 l 64 -94 b 77 -92 69 -94 73 -93 b 174 -74 110 -88 141 -78 b 217 -74 188 -73 203 -72 b 260 -88 235 -76 246 -83 b 344 -97 286 -98 314 -99 b 351 -96 346 -97 348 -96 b 355 -96 352 -96 353 -96 b 358 -95 356 -96 357 -96 b 361 -95 359 -95 360 -95 b 388 -83 371 -94 381 -89 b 405 -60 396 -77 401 -68 b 412 -37 408 -52 410 -44 b 412 -18 413 -31 413 -25 z "},"a":{"ha":389,"x_min":0,"x_max":0,"o":"m 336 258 b 303 428 326 305 304 386 b 280 535 302 465 291 509 b 259 529 268 560 258 566 b 259 510 259 523 259 516 b 250 552 256 524 253 538 b 248 565 249 556 249 561 b 257 554 251 559 254 555 b 266 568 261 553 264 558 b 264 612 268 578 269 593 b 250 644 262 622 258 633 b 231 661 245 651 238 657 b 206 667 223 665 214 667 b 166 651 191 667 176 661 b 155 632 161 645 157 639 b 154 627 155 630 154 629 b 153 623 153 625 153 624 l 152 616 b 143 560 149 598 146 579 b 120 441 136 521 128 481 b 58 197 102 360 82 277 b 24 87 47 159 36 123 b 8 31 18 69 12 51 l 7 27 b 6 21 6 25 6 23 b 6 15 6 19 6 17 b 6 9 6 13 6 11 b 15 -12 7 2 11 -6 b 59 -36 25 -26 41 -35 b 101 -20 74 -37 90 -31 b 114 -1 106 -15 111 -8 b 114 1 114 -1 114 0 b 116 1 115 1 115 1 l 118 7 l 119 9 b 119 9 119 9 119 9 b 119 9 119 9 119 9 b 118 11 118 10 118 10 b 118 11 118 11 118 11 b 118 13 118 12 118 13 b 121 13 119 13 120 13 b 118 14 123 13 122 13 b 119 14 119 14 119 14 l 119 14 l 119 15 b 119 15 121 15 121 15 l 133 73 b 148 133 139 93 143 113 b 160 194 152 153 156 173 l 166 224 l 169 240 l 170 243 l 170 245 b 170 246 170 246 170 246 l 170 246 l 170 247 b 170 249 170 248 170 248 l 170 251 l 170 252 l 170 252 l 170 252 l 174 253 b 176 253 174 253 175 253 b 182 252 178 252 180 252 b 194 251 186 252 190 252 b 206 251 198 251 202 251 l 212 251 l 216 251 l 216 251 l 216 252 b 226 253 219 252 222 252 b 229 246 227 251 228 249 l 230 244 l 230 243 l 231 241 l 233 232 b 243 196 236 220 239 208 b 261 123 249 172 255 148 b 284 7 270 86 279 46 b 286 -2 285 4 285 1 b 289 -11 286 -5 287 -8 b 302 -25 292 -17 296 -22 b 319 -30 307 -28 313 -30 b 337 -27 325 -30 332 -29 b 366 -2 349 -23 360 -15 b 370 18 368 4 370 11 b 369 34 370 23 369 28 b 336 258 366 105 353 180 z m 195 366 b 194 365 194 366 194 365 b 193 361 194 364 194 362 b 192 361 193 361 192 361 b 189 368 191 363 190 365 b 189 369 189 368 189 369 b 189 370 189 369 190 369 b 188 370 189 370 188 370 b 187 426 181 389 180 408 b 210 394 194 415 204 405 b 215 375 213 388 216 381 b 204 366 215 368 209 366 b 196 366 199 365 196 366 b 195 366 195 366 195 366 b 195 366 195 366 195 366 z m 167 349 b 172 346 168 348 170 347 b 172 344 172 345 172 345 b 166 347 170 345 168 346 b 167 349 166 348 166 349 z m 117 140 b 113 125 116 135 115 130 b 117 140 115 130 116 135 z "},"b":{"ha":400,"x_min":0,"x_max":0,"o":"m 354 256 b 329 305 350 273 341 291 b 306 326 322 313 314 321 b 314 332 309 328 311 330 b 323 341 317 334 320 338 b 332 352 326 344 329 348 b 344 378 337 360 342 369 b 345 475 353 411 352 444 b 308 566 337 507 325 538 b 235 633 290 594 266 619 b 186 645 219 639 203 643 b 138 647 170 647 154 648 b 136 651 138 648 137 650 b 132 655 135 652 133 654 b 118 662 127 659 123 661 b 102 664 113 663 107 664 b 73 649 91 663 80 658 b 68 642 71 647 70 644 b 65 634 67 639 66 637 l 64 630 l 64 627 l 64 626 l 63 626 l 62 619 b 59 594 61 611 60 602 b 45 490 54 560 49 526 b 42 265 38 415 37 340 b 59 50 47 191 56 124 b 60 34 59 44 59 39 b 65 16 60 28 61 22 b 78 3 68 10 73 6 b 94 -1 84 0 90 -1 b 101 -5 97 -2 98 -4 b 108 -9 103 -6 106 -8 b 116 -13 111 -10 113 -12 b 123 -16 118 -14 121 -15 b 174 -32 142 -24 158 -29 b 223 -35 190 -35 206 -36 b 235 -34 227 -35 231 -34 b 247 -31 239 -33 243 -32 b 272 -24 255 -30 264 -27 b 317 6 288 -17 303 -7 b 349 50 330 19 341 34 b 366 102 357 67 363 84 b 369 182 371 123 372 153 b 354 256 366 210 358 237 z m 284 156 b 284 151 284 154 284 153 b 265 153 278 158 271 157 b 256 126 258 147 253 138 b 257 91 259 115 260 103 b 238 60 254 79 248 68 b 200 45 227 52 213 47 b 160 49 186 43 172 44 b 156 51 159 50 157 51 b 152 54 154 52 153 53 b 147 59 150 56 148 57 b 144 65 145 61 145 63 b 147 71 145 67 146 69 b 148 74 147 72 148 73 l 149 75 b 150 77 149 75 150 76 b 153 87 151 80 152 84 b 158 108 155 94 157 101 b 160 198 165 138 165 168 b 150 241 157 213 154 227 b 145 263 148 249 146 256 b 141 280 143 268 142 273 b 140 288 140 283 140 285 l 139 293 l 139 295 l 141 295 b 157 291 146 294 152 293 b 165 287 160 290 163 289 b 169 285 167 286 168 286 l 170 283 l 172 282 b 186 270 177 278 181 274 b 211 250 195 262 203 256 b 234 232 219 244 227 239 b 250 214 239 228 245 222 b 254 192 254 207 257 198 b 259 163 250 181 254 171 b 281 164 265 156 274 152 b 284 170 282 166 283 168 b 284 156 284 165 284 160 z m 229 523 b 268 473 246 514 261 495 b 271 437 271 462 273 449 b 254 407 269 426 263 415 b 239 399 250 404 245 401 b 223 396 234 398 229 397 b 191 398 212 396 202 397 b 174 399 185 398 179 398 b 169 399 172 399 171 399 l 167 399 b 167 399 166 399 167 399 l 167 399 b 162 397 166 399 165 397 b 160 398 162 397 161 397 b 159 399 160 398 159 398 l 158 399 b 158 400 158 399 158 400 l 158 401 b 152 420 156 407 154 414 b 143 458 149 432 146 445 b 142 491 142 469 141 480 b 157 524 144 505 151 513 b 162 539 159 529 161 534 b 164 547 163 542 163 545 l 164 549 b 164 550 164 550 164 550 l 164 550 b 165 551 164 550 165 550 b 165 553 165 551 165 552 b 165 554 165 553 165 554 l 166 555 b 167 557 166 556 166 556 b 169 558 168 558 168 558 b 170 559 169 558 169 559 b 172 559 170 559 172 559 b 190 553 180 559 187 558 b 209 545 196 544 202 544 b 220 549 213 545 217 547 b 222 562 223 552 224 556 b 220 568 222 564 221 566 b 230 560 223 565 227 563 b 232 557 231 559 231 558 b 219 544 225 557 220 551 b 229 523 217 536 219 528 z m 260 326 b 269 330 263 327 266 329 b 269 330 269 330 269 330 b 265 323 267 327 265 325 b 260 326 263 324 262 325 z m 288 305 b 277 314 285 308 281 311 b 278 315 277 314 278 314 b 280 315 279 315 280 315 b 288 305 283 312 286 308 z "},"c":{"ha":394,"x_min":0,"x_max":0,"o":"m 366 173 b 364 186 366 177 365 182 b 363 190 364 187 364 188 l 362 194 b 359 201 361 196 360 198 b 350 213 357 205 354 210 b 325 228 344 221 334 226 b 297 228 316 231 306 231 b 259 201 279 224 265 212 b 253 170 252 189 252 177 b 259 159 255 163 257 159 b 264 167 261 158 263 161 b 277 189 266 172 269 181 b 296 199 283 194 289 197 b 274 161 282 194 270 180 b 275 146 274 156 275 151 b 267 159 273 154 269 158 b 257 146 262 161 259 156 b 246 108 254 136 251 123 b 237 86 244 101 241 93 b 224 67 233 79 229 73 b 216 60 222 65 219 63 b 211 58 214 59 213 59 b 209 56 210 57 210 57 l 206 55 b 200 53 204 55 202 54 b 195 52 199 53 197 52 b 184 51 191 51 187 51 b 163 61 176 52 169 55 b 146 84 156 67 150 75 b 126 146 136 102 131 124 b 115 213 121 168 117 190 b 134 495 104 306 110 404 b 146 528 137 506 140 518 b 154 542 148 533 151 538 b 165 554 157 547 161 551 b 218 558 180 566 202 567 b 227 551 222 556 225 553 b 234 541 230 548 232 545 b 240 514 237 533 239 524 b 240 499 241 509 241 504 l 240 497 l 240 496 b 240 495 240 496 240 496 b 240 487 240 492 240 489 b 244 471 241 482 242 476 b 253 458 246 467 249 462 b 265 447 256 454 260 450 b 297 438 274 441 285 438 b 305 438 299 438 302 438 b 314 440 308 439 311 439 b 330 447 320 442 325 444 b 344 459 336 451 340 455 b 353 475 348 464 351 469 b 357 493 355 481 357 487 l 357 495 l 357 497 l 358 500 b 358 506 358 502 358 504 b 356 529 357 513 357 521 b 322 614 352 559 341 588 b 314 624 320 617 317 620 b 305 633 312 627 309 630 b 285 648 299 639 292 644 b 241 666 271 657 256 663 b 194 671 225 670 210 671 b 147 661 179 670 163 667 b 108 637 133 656 119 647 b 80 602 96 627 87 615 b 54 527 66 578 59 552 b 45 452 49 502 46 477 b 41 376 43 427 42 402 b 41 242 40 333 40 287 b 42 172 42 216 42 194 b 42 141 41 162 41 152 b 42 125 42 136 42 130 b 43 108 42 120 42 114 b 57 44 45 87 49 66 b 95 -18 65 23 77 1 b 127 -41 104 -27 115 -35 b 166 -55 139 -48 153 -52 b 206 -56 180 -57 193 -57 b 244 -48 219 -55 232 -52 b 293 -20 260 -43 277 -33 b 332 27 308 -7 322 9 b 354 81 342 45 349 64 b 364 127 359 98 361 114 b 367 163 366 138 367 151 z "},"d":{"ha":410,"x_min":0,"x_max":0,"o":"m 43 54 b 40 31 42 46 41 39 b 40 25 40 29 40 28 b 41 14 40 22 41 18 b 44 4 42 11 43 7 b 50 -6 46 1 47 -3 b 82 -29 57 -18 70 -26 b 113 -28 94 -32 105 -31 b 132 -16 122 -25 128 -20 b 134 -12 133 -15 134 -13 b 137 -13 135 -13 136 -13 b 171 -15 145 -16 157 -17 b 217 0 185 -13 202 -9 b 236 12 223 3 230 7 b 255 26 242 16 249 21 b 287 61 267 36 278 48 b 332 145 306 86 321 115 b 372 335 356 205 366 271 b 380 435 375 369 379 402 b 379 485 381 451 380 468 b 370 538 378 503 375 520 b 347 594 365 557 358 576 b 306 641 337 611 323 628 b 251 672 290 655 271 665 b 190 681 230 678 210 681 b 128 673 168 681 148 678 l 114 670 l 100 666 b 95 665 99 666 97 665 b 90 663 93 664 92 663 b 80 657 87 661 83 659 b 67 639 75 652 70 646 b 60 612 62 631 60 621 b 61 590 60 605 61 597 b 63 544 62 575 63 560 b 62 453 64 515 65 483 b 47 363 60 417 53 393 b 41 187 38 308 38 249 b 43 54 42 150 50 86 z m 270 475 b 291 417 279 458 287 438 b 301 348 296 395 299 372 b 299 277 302 325 302 301 b 280 208 296 253 289 229 b 241 149 270 185 256 166 b 191 113 226 132 209 119 b 176 109 187 111 181 110 b 168 107 174 108 171 107 l 164 106 b 164 106 164 106 164 106 b 164 107 163 107 164 107 b 163 107 164 107 163 107 b 163 107 163 107 163 107 b 163 107 163 107 163 107 b 163 107 163 107 163 107 l 163 108 l 162 113 b 158 153 161 126 160 139 b 137 303 152 204 142 251 b 136 370 136 325 135 348 b 151 437 138 397 145 415 b 160 499 156 457 159 477 b 161 532 161 510 161 521 b 162 549 161 537 162 543 l 162 553 l 162 555 l 161 556 l 161 558 b 161 562 161 559 161 561 b 160 564 160 563 160 563 l 160 565 b 160 566 160 566 160 566 l 160 566 b 166 568 162 567 164 568 b 169 569 166 568 168 568 l 172 569 b 178 569 174 569 176 569 b 183 568 179 568 181 568 b 188 567 185 568 187 567 b 198 564 192 567 195 565 b 205 560 200 563 203 562 b 224 546 212 555 218 550 b 243 535 231 542 237 538 b 258 531 249 532 254 530 b 261 537 260 532 261 534 b 261 542 262 538 262 540 b 260 548 261 544 261 546 b 255 558 259 552 257 555 b 270 539 261 553 266 546 b 274 532 272 537 273 534 b 273 533 273 532 273 533 b 265 535 269 535 267 535 b 257 524 260 534 258 530 b 270 475 256 512 260 494 z m 109 -7 b 94 -3 104 -7 99 -5 b 125 4 105 -6 117 -3 b 136 5 129 4 132 5 b 127 -3 131 3 128 0 b 127 -6 126 -4 126 -5 b 109 -7 122 -6 116 -7 z "},"e":{"ha":360,"x_min":0,"x_max":0,"o":"m 114 -31 b 140 -34 124 -32 133 -32 b 205 -35 161 -37 184 -36 b 259 -29 226 -33 245 -31 b 284 -19 273 -26 283 -23 b 259 -7 286 -16 279 -11 b 238 -4 252 -6 245 -5 b 286 -5 254 -3 270 -4 b 300 -3 291 -6 296 -5 b 297 -5 299 -4 298 -4 b 286 -12 292 -8 288 -10 b 287 -18 284 -14 284 -16 b 305 -21 290 -20 296 -22 b 320 -15 310 -20 315 -18 b 334 -1 325 -12 330 -7 b 340 42 341 11 343 26 b 328 64 338 49 334 57 b 306 81 323 71 315 77 b 292 84 301 82 297 84 b 282 84 287 85 285 84 b 265 84 276 84 270 84 b 204 75 244 81 224 78 b 149 67 186 72 167 70 l 143 66 b 142 67 142 66 142 66 l 142 68 l 142 71 b 140 82 141 74 141 78 l 140 88 l 139 96 b 138 113 139 102 138 107 b 134 180 136 135 135 158 b 131 249 133 203 132 226 b 131 283 131 260 131 272 l 131 288 l 130 291 b 131 291 131 291 130 291 l 131 291 l 140 292 l 157 293 b 226 294 180 295 203 296 b 260 289 238 293 249 291 b 279 288 266 287 273 287 b 296 298 285 290 291 294 b 308 328 303 306 308 317 b 305 344 309 333 308 339 b 294 357 303 349 299 354 b 287 361 292 359 290 360 b 279 364 284 362 281 363 l 271 366 l 265 367 b 237 372 256 369 247 371 b 183 377 219 375 201 376 l 169 378 l 166 378 b 163 378 165 378 163 378 l 161 378 b 153 380 158 379 155 379 b 156 389 154 384 155 387 b 157 395 156 389 157 393 l 158 404 b 159 420 158 409 159 415 b 164 495 161 445 163 470 b 166 533 165 508 166 520 l 166 542 l 166 542 b 167 542 166 542 167 542 b 167 542 167 542 166 542 l 167 542 l 167 542 b 167 542 167 542 167 542 l 168 542 l 173 543 b 211 544 186 543 198 543 l 249 546 l 268 547 l 277 547 l 281 547 b 285 548 282 548 284 548 b 294 550 288 549 291 549 b 331 588 312 555 326 571 b 333 602 332 593 333 597 b 332 615 333 606 333 610 b 322 639 331 623 327 632 b 279 660 312 653 295 661 b 277 660 278 660 278 660 l 276 660 l 271 660 l 263 659 l 248 658 b 189 652 228 656 209 654 b 129 647 169 651 149 649 l 128 647 b 126 647 127 647 127 647 b 123 648 125 648 124 648 b 98 650 115 651 106 652 b 77 638 90 648 83 644 b 73 633 75 636 74 634 b 70 627 72 631 71 629 b 68 622 69 626 69 624 b 67 617 68 620 68 619 b 65 605 66 613 65 609 b 66 599 65 603 65 601 b 66 597 66 599 66 598 b 67 595 66 596 66 595 b 67 584 67 592 67 588 l 66 573 b 66 550 66 565 66 558 b 64 506 65 535 65 520 b 47 377 60 454 53 420 b 41 127 37 300 37 215 b 45 64 42 109 44 87 b 47 28 46 52 47 40 l 47 26 l 48 23 b 49 16 48 20 48 18 b 54 1 50 11 52 6 b 73 -18 59 -7 66 -14 b 95 -29 80 -24 88 -27 b 101 -30 97 -29 99 -29 b 106 -30 103 -30 105 -30 b 114 -31 109 -30 111 -31 z "},"f":{"ha":346,"x_min":0,"x_max":0,"o":"m 229 272 b 244 273 234 273 239 273 b 251 273 246 273 249 273 b 260 273 254 273 255 273 b 284 278 268 273 277 274 b 302 294 291 282 298 288 b 309 338 311 307 314 324 b 295 355 306 345 301 351 b 285 360 292 357 289 359 b 280 361 283 360 281 361 b 275 362 278 361 276 361 b 256 363 268 362 262 363 b 238 364 250 363 244 363 b 202 363 226 364 214 363 b 165 360 190 362 178 361 b 129 356 153 359 141 357 b 132 443 129 384 130 414 b 138 530 133 472 135 501 l 139 538 l 140 545 b 141 556 140 549 140 552 l 142 561 l 142 564 l 142 564 b 143 565 142 565 142 565 l 144 565 b 155 563 148 564 152 564 b 166 562 159 563 162 563 b 180 561 171 562 176 561 b 210 558 190 560 200 559 b 268 553 229 556 249 555 l 276 552 b 282 552 278 552 280 552 b 289 553 284 552 286 553 b 312 564 297 555 305 558 b 328 585 319 569 325 577 b 333 612 332 593 334 603 b 316 653 333 627 327 642 b 296 665 310 658 304 662 b 285 668 293 666 289 667 b 279 669 283 668 281 668 l 276 669 l 275 669 b 225 670 258 669 242 670 b 175 669 209 670 192 670 l 151 669 l 138 668 l 132 668 l 130 668 b 129 668 130 668 129 668 l 130 668 b 129 668 129 668 129 668 l 129 668 b 129 667 129 668 129 668 l 129 667 l 129 667 l 129 667 b 105 672 121 671 113 672 b 83 667 98 672 90 670 b 62 654 75 665 68 660 b 49 634 56 649 51 641 b 47 627 48 632 47 629 b 46 626 47 627 46 626 l 46 626 b 46 625 46 626 46 626 b 44 613 45 621 44 617 b 44 601 43 609 43 605 b 45 595 44 599 44 597 l 45 593 b 45 593 45 593 45 593 l 45 593 b 45 592 45 593 45 592 b 46 591 45 592 46 591 l 46 589 l 46 582 b 46 569 46 578 46 573 b 48 542 47 560 47 551 b 51 488 49 524 50 506 b 57 378 54 452 56 415 b 58 267 59 342 60 304 b 46 158 57 224 50 195 b 40 55 42 125 40 91 b 41 28 40 46 40 37 b 42 18 41 27 41 21 b 45 5 42 13 43 9 b 59 -15 48 -2 53 -9 b 81 -28 65 -21 73 -25 b 92 -30 85 -29 88 -30 b 105 -31 96 -31 101 -31 b 148 -7 122 -30 138 -21 b 157 23 153 1 157 12 b 157 30 157 27 157 28 b 156 35 157 31 157 33 b 156 46 156 39 156 42 b 153 90 154 60 153 75 b 155 168 151 120 151 149 b 152 272 161 203 158 247 b 179 270 160 271 169 270 b 229 272 195 270 212 271 z m 133 277 b 131 269 133 275 132 272 b 128 252 130 263 129 257 b 128 292 128 265 128 278 b 140 293 132 292 136 292 b 133 277 127 287 126 282 z "},"g":{"ha":407,"x_min":0,"x_max":0,"o":"m 235 -57 b 280 -40 251 -54 266 -48 b 314 -11 294 -32 305 -21 b 333 20 323 0 329 10 b 340 55 341 39 342 52 b 331 51 338 56 335 55 b 314 30 327 47 322 40 b 297 12 309 24 303 18 b 326 61 309 26 319 43 b 332 77 328 66 330 72 b 333 59 331 68 331 62 b 349 70 335 54 342 58 b 371 124 357 81 366 100 b 376 203 376 147 379 175 b 371 244 375 216 373 230 b 368 266 370 251 369 258 l 367 271 b 366 273 366 272 366 272 l 366 274 l 365 277 l 364 279 l 364 280 b 364 280 364 280 364 280 b 365 282 365 281 365 282 l 367 286 b 369 300 368 291 369 295 b 369 307 369 302 369 305 b 367 312 368 308 368 310 b 364 323 367 316 365 319 b 349 341 360 330 355 337 b 328 351 343 346 335 349 b 307 352 321 352 313 352 b 288 350 301 351 294 351 b 250 347 275 349 263 348 l 240 347 l 238 346 l 235 346 b 230 345 233 346 231 346 b 220 341 226 344 223 343 b 212 333 217 339 214 336 b 208 293 203 322 202 305 b 223 279 211 287 217 281 b 233 276 226 277 230 277 b 244 277 237 276 240 276 b 263 277 250 277 257 277 b 283 278 270 278 276 278 l 284 278 b 284 277 284 278 284 278 l 284 276 l 285 272 l 286 264 b 287 249 286 259 287 254 b 288 218 288 239 288 228 b 283 155 288 197 286 176 b 267 95 280 134 275 114 b 253 68 263 85 259 76 b 233 47 247 59 241 52 b 169 62 211 31 181 43 b 156 97 163 73 159 85 b 150 137 153 110 152 123 b 148 301 145 190 146 245 b 168 475 151 360 156 419 b 173 496 170 482 171 489 l 174 501 b 176 506 175 503 175 505 b 179 515 177 509 178 512 b 194 541 183 526 188 536 b 213 547 199 546 204 548 l 216 547 b 219 547 217 547 218 547 b 225 545 221 546 223 545 b 236 538 229 543 233 541 b 250 513 242 532 247 523 b 251 504 250 510 251 507 b 252 500 252 503 252 502 l 252 494 b 266 461 253 482 258 470 b 298 445 274 452 286 446 b 307 444 301 444 304 444 b 315 445 310 444 312 445 b 332 451 321 446 326 448 b 354 475 342 456 350 465 b 357 492 356 481 357 486 b 358 496 358 493 358 495 l 357 499 l 357 505 b 325 592 354 536 343 566 b 309 610 320 598 315 604 b 291 625 304 616 297 621 b 247 643 277 634 262 640 b 167 640 221 649 193 649 b 104 590 141 630 120 611 b 82 551 95 577 88 564 b 68 514 77 538 72 526 b 48 442 60 490 54 468 b 31 295 37 396 31 346 b 43 137 30 243 35 190 b 56 81 46 121 50 102 b 83 18 61 61 70 38 b 106 -11 90 7 97 -2 b 133 -32 114 -19 124 -26 b 162 -47 143 -38 152 -43 b 188 -55 171 -50 180 -53 b 235 -57 202 -59 219 -59 z "},"h":{"ha":385,"x_min":0,"x_max":0,"o":"m 234 263 b 247 265 239 263 243 264 b 244 136 241 238 238 187 b 252 63 247 113 250 88 b 253 44 252 57 253 51 b 254 35 254 41 254 38 b 254 24 254 32 254 28 b 257 11 255 20 256 16 b 263 0 259 7 261 3 b 285 -14 269 -7 277 -12 b 311 -12 294 -16 303 -15 b 331 2 319 -10 326 -5 b 338 25 336 9 338 17 b 338 46 338 32 338 39 b 336 129 337 73 336 101 b 333 470 333 241 329 358 b 337 558 334 500 336 529 b 340 601 338 572 339 586 l 340 611 l 341 617 l 341 619 b 341 623 341 620 341 622 b 330 652 341 633 337 644 b 302 667 323 660 313 665 b 270 663 292 669 280 668 b 246 640 259 659 251 650 b 241 623 243 635 242 629 l 241 619 l 241 616 l 241 611 b 236 524 239 582 238 553 b 234 436 235 495 235 465 l 234 392 l 234 382 b 234 382 234 382 234 382 b 234 382 234 382 234 382 b 234 382 234 382 234 382 l 234 382 l 234 382 l 232 382 b 200 383 221 382 210 382 b 164 385 189 384 176 385 l 160 385 b 159 385 159 385 160 385 l 159 385 l 158 384 b 157 386 157 384 157 385 l 155 417 b 142 595 151 478 147 536 l 141 617 l 141 620 l 140 624 b 138 632 140 627 139 629 b 131 646 137 637 134 642 b 104 662 124 654 115 660 b 89 662 99 663 94 663 b 74 658 84 662 79 660 b 54 637 65 654 58 646 b 51 622 52 632 52 627 b 52 619 51 621 51 620 l 52 616 l 52 610 b 54 564 53 595 54 580 b 58 404 57 513 59 457 b 46 246 57 341 50 299 b 40 97 42 198 40 148 b 39 58 40 84 40 71 b 39 39 39 52 39 45 l 39 29 l 39 26 b 39 24 39 25 39 24 l 39 21 b 40 12 39 18 40 15 b 46 -5 41 6 43 1 b 58 -18 49 -10 53 -14 b 91 -32 67 -26 79 -31 b 109 -30 97 -32 104 -32 b 118 -28 112 -30 115 -29 b 126 -24 121 -27 124 -26 b 151 2 137 -18 146 -9 b 156 24 154 9 155 17 b 156 38 156 29 156 33 b 156 68 156 48 156 58 b 155 133 155 89 155 111 b 157 247 154 177 154 219 b 158 256 157 250 157 253 b 158 257 158 257 158 257 l 158 258 l 158 258 l 159 259 b 159 261 159 260 159 260 b 160 261 160 261 160 261 b 160 261 160 261 160 261 l 161 261 l 161 261 b 162 261 162 261 162 261 l 162 261 l 162 261 l 163 261 l 164 261 b 182 260 170 260 176 260 b 191 260 185 260 188 260 b 201 259 194 259 198 259 b 234 263 215 260 225 261 z m 233 284 b 208 287 225 285 216 286 b 266 286 227 287 247 288 b 266 268 266 280 266 274 b 252 281 262 288 256 290 b 233 284 247 282 241 283 z "},"i":{"ha":201,"x_min":0,"x_max":0,"o":"m 136 -15 b 151 15 144 -7 150 4 b 152 24 152 18 152 21 b 151 27 152 25 151 26 l 151 29 l 150 40 b 142 126 147 68 144 96 b 140 202 140 150 139 177 b 152 277 141 232 148 252 b 156 423 160 323 159 372 b 154 534 154 454 147 508 b 131 603 168 581 144 651 b 128 591 130 599 129 595 b 128 619 128 601 128 610 b 127 628 128 622 127 625 b 128 626 127 627 127 627 b 134 620 130 623 132 621 b 141 621 137 619 139 619 b 145 631 143 623 144 626 b 141 651 145 636 145 644 b 121 670 137 658 130 666 b 92 676 113 675 103 677 b 61 663 81 675 69 670 b 53 651 58 659 55 655 b 47 638 50 647 48 643 b 46 624 46 633 46 629 b 48 613 46 619 47 617 b 54 577 50 601 52 589 b 63 499 58 552 61 525 b 61 337 66 446 66 390 b 41 173 56 280 46 229 b 38 84 38 144 37 114 b 38 40 38 69 38 55 l 39 29 l 39 25 b 39 20 39 24 39 22 b 41 10 39 17 40 13 b 65 -22 45 -4 54 -15 b 103 -30 77 -29 90 -32 b 120 -25 109 -29 115 -28 b 136 -15 126 -23 131 -19 z "},"j":{"ha":371,"x_min":0,"x_max":0,"o":"m 325 511 b 301 605 338 576 313 670 b 298 589 300 600 299 595 b 297 627 298 602 298 614 b 295 638 297 631 296 635 b 297 636 296 637 296 637 b 304 628 300 632 302 629 b 310 629 306 626 308 627 b 313 643 312 632 313 636 b 302 668 313 650 309 660 b 270 683 294 676 283 682 b 229 673 257 685 241 682 b 210 633 217 664 210 648 b 210 628 210 631 210 630 b 211 626 210 627 211 627 l 211 625 l 212 619 b 214 607 213 615 213 611 b 218 582 215 599 217 591 b 225 533 221 566 223 550 b 236 427 230 499 234 464 b 235 207 241 355 242 280 b 225 153 233 189 230 170 b 203 108 220 136 212 121 b 186 94 198 102 192 97 b 168 87 181 90 174 88 b 151 87 162 86 155 86 b 146 90 149 88 147 89 b 142 95 145 91 143 93 b 132 125 138 101 134 112 b 131 145 131 132 131 138 b 131 155 131 148 131 152 b 132 160 131 157 132 158 l 132 166 b 132 184 133 172 133 178 b 126 201 131 190 128 195 b 100 225 120 211 111 219 b 34 222 80 237 52 236 b 13 195 24 215 17 206 b 9 180 11 190 9 185 b 8 177 8 179 8 178 b 8 174 8 176 8 174 l 7 168 b 9 128 6 155 7 141 b 29 65 12 106 19 84 b 70 15 39 45 52 28 b 129 -10 88 1 108 -7 b 192 -4 150 -13 172 -11 b 237 24 208 2 224 12 b 273 63 251 35 263 49 b 302 111 285 80 294 96 b 321 160 310 127 316 142 b 331 258 329 191 331 225 b 328 361 331 291 330 326 b 325 511 326 403 318 475 z "},"k":{"ha":414,"x_min":0,"x_max":0,"o":"m 362 -33 b 376 -27 367 -31 372 -30 b 388 -19 381 -25 384 -22 b 403 1 395 -14 400 -7 b 407 23 406 8 407 16 b 403 39 407 29 405 35 b 393 49 399 47 394 50 b 391 47 391 49 391 48 b 391 39 390 45 391 43 b 390 26 391 36 391 31 b 383 10 390 21 387 15 b 362 -3 378 3 370 -2 b 380 42 379 3 392 22 b 371 57 377 47 374 52 b 388 66 389 39 393 46 b 325 179 381 91 358 137 b 235 296 296 216 266 255 b 212 326 227 306 220 316 l 207 333 l 205 336 l 204 338 b 203 339 203 338 203 338 l 203 339 b 210 354 206 344 208 349 b 229 390 216 366 222 378 b 238 408 232 396 235 402 b 248 426 241 414 244 420 b 334 567 275 473 305 520 b 356 603 341 579 348 591 l 361 612 b 365 621 363 615 364 618 b 364 643 367 628 367 636 b 349 659 361 650 355 655 b 327 665 343 663 335 666 b 307 656 320 665 312 661 b 303 651 305 654 304 653 b 300 647 302 650 301 648 l 294 638 b 199 504 264 590 231 548 b 176 471 192 493 184 482 l 173 467 l 171 465 l 171 464 b 170 463 170 463 170 463 l 167 460 b 163 455 165 458 164 457 b 155 451 158 450 156 449 l 155 451 l 155 452 b 158 468 156 462 157 466 b 159 468 158 468 158 468 l 159 491 l 158 536 l 158 582 l 157 605 l 157 616 b 155 635 157 618 156 628 b 129 670 151 649 142 662 b 109 678 123 674 116 676 b 88 679 101 679 95 680 b 50 661 73 678 60 671 b 35 622 40 650 35 636 l 35 620 l 35 618 l 35 616 l 35 610 b 36 599 36 606 36 603 b 37 577 36 592 37 584 b 40 534 38 562 39 548 b 47 448 43 505 45 476 b 59 273 51 391 56 333 b 61 196 60 248 61 222 b 62 118 62 170 62 143 b 56 37 61 87 59 61 b 55 28 56 34 55 31 l 54 25 l 54 22 b 54 16 54 20 54 18 b 65 -8 55 7 59 -1 b 88 -22 71 -14 79 -19 b 102 -23 92 -23 97 -23 b 117 -21 107 -23 112 -22 b 140 -6 126 -18 134 -13 b 153 20 147 1 151 11 l 153 24 l 153 27 l 154 31 l 155 40 b 156 58 155 46 156 52 b 160 133 158 83 159 107 b 160 171 160 145 160 158 b 160 190 160 177 160 183 l 160 200 l 160 204 l 160 204 b 163 212 160 206 162 209 l 164 216 l 165 219 l 165 219 b 166 219 165 219 166 219 l 166 219 b 169 216 167 218 168 217 b 171 213 169 215 170 214 l 172 212 l 173 211 l 175 208 b 210 156 186 192 198 174 b 264 61 233 121 254 86 b 281 27 269 50 275 38 b 290 10 284 21 287 16 b 295 1 292 7 293 4 l 297 -3 b 301 -8 298 -4 299 -5 b 329 -31 308 -19 318 -27 b 362 -33 339 -35 351 -35 z "},"l":{"ha":338,"x_min":0,"x_max":0,"o":"m 176 -31 b 222 -35 191 -34 207 -35 b 262 -31 237 -34 251 -33 b 281 -22 272 -29 279 -26 b 263 -9 282 -19 277 -14 b 248 -5 258 -8 253 -6 b 282 -8 259 -6 271 -6 b 293 -7 286 -8 289 -8 b 285 -12 290 -9 287 -11 b 285 -22 281 -15 280 -18 b 297 -25 287 -23 291 -25 b 315 -19 302 -24 309 -23 b 332 -4 321 -16 327 -11 b 341 24 337 4 340 13 b 331 56 341 35 338 46 b 318 68 327 61 323 65 b 310 72 316 70 313 71 b 306 74 309 73 308 73 b 302 75 305 74 303 75 b 286 77 297 77 292 77 b 283 77 285 77 284 77 l 280 77 l 274 77 b 251 74 267 76 259 75 b 205 68 236 73 220 70 b 181 66 197 67 189 66 b 169 64 177 65 173 65 b 159 64 166 64 163 64 b 148 63 156 63 152 63 l 143 63 b 140 63 142 63 141 63 l 140 66 b 139 87 139 72 139 80 b 140 290 137 153 136 223 b 149 392 142 325 145 358 b 158 494 152 425 156 459 b 162 605 161 531 162 568 l 161 619 l 161 620 l 161 621 l 161 625 b 160 632 161 627 161 630 b 156 645 159 636 158 641 b 115 678 148 662 133 674 b 89 679 106 681 98 681 b 64 670 80 678 71 675 b 46 651 57 665 51 659 b 39 627 42 644 40 635 b 39 620 39 625 39 622 b 39 617 39 619 39 618 l 40 610 b 41 597 40 605 41 601 b 44 570 42 588 43 579 b 50 518 46 552 48 535 b 61 411 54 483 58 448 b 63 316 63 380 65 348 b 51 222 62 279 56 254 b 44 134 47 194 45 164 b 44 87 44 119 44 103 b 45 41 45 72 45 56 b 45 33 45 38 45 35 b 46 27 46 31 46 29 b 46 24 46 26 46 25 b 46 20 46 23 46 22 b 59 -10 47 9 51 -2 b 89 -27 67 -19 78 -25 b 107 -27 95 -28 101 -28 l 112 -27 b 115 -26 113 -27 114 -26 l 117 -26 b 117 -25 117 -25 117 -25 l 118 -25 b 119 -25 118 -25 119 -25 l 122 -25 b 131 -26 125 -25 128 -26 b 148 -27 137 -26 143 -27 b 176 -31 159 -28 168 -29 z "},"m":{"ha":497,"x_min":0,"x_max":0,"o":"m 36 617 l 36 613 b 36 607 36 611 36 609 b 37 602 36 605 36 604 l 37 600 b 37 600 37 600 37 600 b 48 390 41 529 45 460 b 59 175 52 320 56 249 b 62 64 60 139 61 101 b 62 35 62 54 62 45 b 61 20 62 31 61 26 b 67 5 62 15 64 10 b 94 -10 72 -4 83 -10 b 110 -9 99 -11 105 -10 b 124 -1 115 -7 120 -4 b 135 15 129 4 133 9 b 136 25 136 18 136 22 b 137 33 137 27 137 30 b 139 62 138 43 139 53 b 143 117 141 82 142 100 b 150 208 146 148 148 177 b 174 120 158 179 166 150 b 198 30 181 95 189 64 b 204 7 198 22 201 14 b 223 -12 209 -1 216 -8 b 247 -21 230 -17 239 -20 b 260 -22 251 -22 256 -22 b 274 -19 265 -21 269 -20 b 286 -13 278 -17 282 -15 b 291 -8 288 -11 290 -10 b 296 -4 293 -7 295 -5 b 300 1 297 -2 299 0 b 302 4 301 2 301 3 l 303 6 b 308 15 305 9 307 12 b 319 50 314 27 317 39 b 324 81 321 62 322 72 b 328 108 325 90 327 99 b 340 153 332 125 336 140 b 357 212 345 172 351 192 b 358 192 357 205 358 199 b 366 89 361 159 364 125 b 369 36 368 72 369 54 l 370 29 l 370 25 l 370 20 b 376 3 371 14 373 8 b 407 -15 383 -7 394 -14 b 440 -5 419 -16 431 -13 b 450 10 445 -1 448 4 b 454 26 453 15 454 21 b 453 84 454 45 453 64 b 450 200 452 122 451 161 b 444 440 447 279 444 359 b 444 560 443 480 443 520 b 445 620 444 580 444 600 b 441 637 444 626 443 632 b 429 649 438 642 434 646 b 426 651 428 650 427 650 b 423 653 425 652 424 652 b 419 655 421 654 420 654 b 415 656 417 656 416 656 b 398 658 409 658 403 659 b 381 651 392 657 386 655 b 371 636 376 647 373 642 b 369 632 370 635 370 633 l 368 628 l 366 620 b 362 605 365 615 363 610 b 344 547 356 586 350 567 b 305 435 332 509 319 472 b 266 321 292 397 279 360 l 261 307 l 260 303 l 260 301 l 259 301 l 259 301 l 259 301 l 258 299 b 256 293 257 297 256 295 b 252 288 254 290 253 288 b 251 288 252 288 252 288 b 251 288 251 288 251 288 l 251 289 l 251 291 l 251 294 b 250 299 250 296 250 297 b 250 303 250 301 250 302 l 242 333 l 234 364 b 216 425 228 384 222 405 b 178 547 204 466 191 506 b 157 607 171 567 164 587 l 155 615 l 154 615 l 154 616 l 154 616 b 154 616 154 616 154 616 b 154 618 154 616 154 616 l 154 620 l 154 624 b 151 638 153 629 152 633 b 134 663 147 648 142 656 b 108 676 127 669 118 673 b 94 677 103 677 98 677 b 79 675 89 677 84 677 b 53 661 69 673 60 668 b 38 637 46 655 41 646 b 36 623 37 632 36 627 b 36 619 36 622 36 620 z m 379 380 b 377 392 378 385 377 389 b 380 402 378 396 379 399 b 380 381 380 395 380 388 b 379 380 380 380 379 380 z "},"n":{"ha":454,"x_min":0,"x_max":0,"o":"m 130 -26 b 150 -10 138 -22 145 -16 b 158 7 154 -4 157 2 b 158 20 159 12 159 17 b 156 25 158 22 157 24 b 153 23 155 25 154 25 b 149 15 152 22 150 19 b 139 3 147 12 144 7 b 120 -7 135 -1 128 -5 b 91 -1 110 -9 99 -7 b 141 26 110 -11 140 -3 b 142 46 142 33 142 39 b 148 27 144 36 146 29 b 161 45 152 22 157 29 b 166 202 169 75 174 138 b 148 401 160 264 153 331 b 183 318 160 373 171 346 b 234 195 200 277 217 236 b 286 70 251 154 268 112 b 313 9 294 50 301 28 b 317 1 314 6 315 4 l 319 -2 l 322 -6 b 337 -17 325 -11 331 -15 b 356 -18 343 -19 349 -19 b 373 -10 362 -16 368 -14 b 384 5 378 -6 381 -1 b 390 18 386 9 388 14 b 391 25 390 21 391 23 l 391 32 b 393 56 392 40 393 48 b 397 105 394 73 396 89 b 402 201 399 137 401 169 b 409 395 405 265 407 329 b 411 505 409 431 410 468 b 411 615 411 541 411 578 l 411 618 l 411 620 l 410 624 b 408 637 410 628 409 633 b 395 661 406 646 401 654 b 373 676 389 667 381 673 b 360 680 369 678 364 679 b 347 681 355 681 351 681 b 299 660 329 681 310 674 b 286 637 293 653 289 645 b 285 623 285 632 285 628 l 284 620 l 284 618 l 285 615 b 289 505 286 578 287 541 b 307 208 294 403 301 307 b 299 224 304 213 302 219 b 228 398 275 280 249 340 b 199 491 216 433 207 463 b 179 577 191 519 187 546 b 156 638 174 597 167 618 b 154 645 155 641 155 643 b 148 653 152 648 150 651 b 142 661 146 656 144 658 b 134 667 139 663 136 665 b 97 675 122 673 110 676 b 61 658 85 674 72 669 b 50 640 56 653 52 646 b 47 630 49 636 48 633 b 46 620 47 626 46 623 l 46 623 b 46 612 46 619 46 616 b 49 411 45 547 47 480 b 52 137 51 335 59 202 b 49 91 50 122 49 107 b 48 45 48 75 48 60 b 48 34 48 41 48 38 b 48 27 48 32 48 30 b 48 18 48 25 48 21 b 66 -17 50 4 56 -9 b 99 -31 76 -26 88 -30 b 116 -31 105 -32 110 -32 b 130 -26 121 -30 125 -28 z "},"o":{"ha":413,"x_min":0,"x_max":0,"o":"m 46 112 b 63 75 50 97 56 84 b 79 62 69 65 76 61 b 83 67 81 62 82 64 b 82 83 83 71 83 76 b 81 97 82 88 81 92 b 92 68 84 87 88 77 b 97 59 94 65 95 62 b 86 64 92 62 89 64 b 80 50 82 64 80 59 b 96 17 81 42 86 29 b 140 -9 107 6 122 -5 b 231 -3 170 -16 202 -13 b 306 47 259 6 286 24 b 329 87 316 59 323 73 b 343 131 335 101 339 116 b 360 222 350 161 354 192 b 374 315 365 254 370 284 b 379 362 376 331 377 346 b 381 410 380 378 380 394 b 374 514 381 443 381 478 b 356 568 370 532 364 550 b 349 581 354 572 352 577 b 341 594 347 585 344 590 b 321 617 335 602 329 610 b 281 643 309 628 296 637 b 259 651 274 646 267 649 b 248 653 256 652 252 653 b 245 654 247 653 246 653 b 243 654 244 654 243 654 b 241 654 242 654 241 654 l 240 654 l 240 654 b 239 654 240 654 240 654 b 234 656 237 655 236 656 b 223 658 230 657 226 658 b 212 657 219 658 216 658 b 207 656 211 657 209 657 b 204 655 206 656 205 656 b 176 645 194 652 185 649 b 124 612 157 637 139 626 b 96 577 113 602 104 589 b 77 537 89 564 83 550 b 59 494 70 521 65 507 b 45 454 54 481 49 468 b 32 372 37 428 34 400 b 32 286 30 344 30 315 b 39 220 33 268 36 244 b 41 157 41 196 43 173 b 46 112 40 143 42 127 z m 123 365 b 141 364 128 354 136 356 b 148 416 148 374 152 395 b 145 502 142 442 140 472 b 160 546 148 517 152 532 b 176 563 164 552 170 558 b 198 572 183 567 191 571 b 208 573 202 572 205 572 b 218 573 212 573 215 574 b 236 567 225 573 231 571 b 259 538 247 560 255 550 b 265 522 262 533 263 527 b 267 506 266 517 266 511 b 267 472 268 494 268 483 b 263 404 267 450 264 428 b 262 367 262 391 262 379 b 262 330 262 355 262 343 b 265 257 263 306 264 282 b 269 187 267 234 268 211 l 269 170 b 268 152 269 164 268 158 b 266 135 268 146 267 140 b 263 117 266 129 265 123 b 249 91 260 108 256 99 b 238 82 246 88 242 85 b 224 77 234 80 229 78 b 194 78 212 74 202 75 b 184 84 190 79 186 82 b 177 92 181 87 179 89 b 170 110 174 98 172 104 l 167 123 b 164 137 166 127 165 132 b 151 195 159 155 155 174 b 145 241 149 207 146 224 b 147 285 143 257 143 274 b 147 344 154 305 152 329 b 125 344 142 359 133 364 b 122 334 124 341 123 337 b 122 357 122 342 122 350 b 123 365 122 360 122 362 z "},"p":{"ha":406,"x_min":0,"x_max":0,"o":"m 37 607 b 45 596 40 601 43 598 b 38 511 37 584 31 548 b 60 119 61 398 70 254 b 56 66 59 101 58 83 b 53 41 55 58 54 49 l 51 28 b 50 24 51 27 51 26 b 50 20 50 23 50 21 b 51 10 50 16 51 13 b 59 -7 53 4 55 -2 b 74 -20 63 -12 68 -17 b 94 -26 80 -23 87 -25 b 105 -26 97 -26 101 -26 b 115 -24 108 -26 111 -25 b 149 3 129 -21 142 -11 b 155 25 153 9 155 18 b 157 38 156 29 157 34 b 163 151 161 76 163 113 b 162 208 163 170 163 189 l 161 222 l 160 228 l 160 229 b 158 233 159 230 159 231 l 158 234 l 158 234 l 158 234 b 161 236 158 235 159 235 b 163 236 161 236 163 236 l 165 236 l 165 236 l 167 236 b 182 236 172 236 177 236 b 237 247 201 237 219 241 b 327 309 272 259 303 281 b 374 395 348 334 364 364 b 388 446 380 414 385 430 b 391 494 391 461 392 477 b 279 658 388 558 347 625 b 242 670 269 663 256 667 b 200 675 229 673 214 674 b 127 675 171 676 145 674 b 115 676 123 675 119 676 b 112 676 114 676 113 675 l 112 676 b 112 676 112 676 112 676 l 111 677 b 111 677 111 677 112 677 l 110 677 l 109 678 l 108 678 b 93 680 103 679 98 680 b 66 674 84 680 74 678 b 44 655 57 670 49 663 b 35 631 38 647 36 638 l 37 637 b 37 607 33 624 35 614 z m 244 553 b 249 539 244 548 246 543 b 262 528 251 535 256 531 b 291 505 273 523 283 515 b 309 466 300 494 306 481 b 309 422 312 452 313 436 b 300 401 307 414 304 407 b 287 383 297 394 292 388 b 251 360 277 372 264 364 b 231 355 244 357 238 356 b 212 353 225 353 219 353 b 195 353 206 352 200 352 b 178 355 189 353 183 354 b 161 358 172 355 166 357 b 159 358 159 359 159 358 b 158 358 159 358 159 358 b 156 357 158 358 157 357 b 155 357 156 357 156 357 b 153 359 155 357 154 358 b 152 360 153 359 153 359 l 152 362 l 150 368 b 144 392 148 376 146 384 b 134 439 140 407 136 423 b 132 482 132 453 130 468 b 145 524 133 498 140 510 b 150 543 147 530 149 537 b 151 553 150 547 151 550 l 151 556 l 152 557 b 152 557 152 557 152 557 l 152 558 b 152 561 152 559 152 560 b 155 563 153 562 154 562 b 156 564 155 563 156 563 b 156 564 156 564 156 564 l 157 564 l 159 564 b 162 565 160 565 161 565 b 178 568 167 566 173 567 b 203 563 188 569 198 567 b 232 553 212 554 222 552 b 242 572 241 554 250 559 b 238 578 241 574 240 576 b 251 570 243 576 247 573 b 255 567 253 569 254 568 b 244 553 246 567 243 560 z m 56 621 b 59 627 57 623 58 625 l 59 626 b 64 634 61 629 62 632 b 61 626 63 632 62 629 b 61 601 58 618 58 609 b 61 590 61 597 61 594 b 51 601 58 598 54 601 b 51 602 51 601 51 601 b 56 621 52 606 52 613 z "},"q":{"ha":407,"x_min":0,"x_max":0,"o":"m 367 388 b 366 408 367 395 366 401 b 365 427 365 414 365 421 b 365 460 364 439 364 451 b 362 513 367 476 366 495 b 344 557 358 530 351 546 b 326 573 337 568 330 574 b 323 567 324 573 323 571 b 323 559 323 565 323 562 b 324 549 323 556 324 553 b 326 533 325 543 326 538 b 313 567 323 544 319 556 b 308 577 311 570 309 573 b 319 570 312 573 316 571 b 324 586 324 570 326 576 b 304 622 322 595 316 609 b 254 651 292 635 274 647 b 241 654 250 652 245 653 b 234 655 238 654 236 654 b 231 654 232 655 232 654 l 230 654 b 228 655 230 654 229 655 l 226 656 b 218 658 223 656 221 657 b 201 657 212 658 206 658 b 197 656 200 657 198 656 b 194 655 196 656 195 655 l 188 653 b 177 649 185 652 181 650 b 134 626 162 643 147 636 b 98 591 120 617 107 605 b 85 570 93 584 89 577 b 75 546 81 562 78 554 b 53 448 63 515 57 482 b 43 348 48 415 46 381 b 34 238 39 310 36 274 b 35 126 32 202 30 166 b 51 64 38 105 43 84 l 54 56 b 58 48 55 54 56 51 b 67 32 60 42 64 37 b 93 4 74 22 83 12 b 108 -7 97 0 103 -3 b 125 -15 114 -10 119 -13 b 160 -25 136 -20 148 -23 b 196 -26 172 -27 184 -27 l 205 -25 l 206 -25 b 206 -25 206 -25 206 -25 l 206 -24 l 207 -24 b 209 -23 207 -24 208 -23 b 209 -23 209 -23 209 -23 b 211 -24 210 -23 210 -23 l 212 -25 l 212 -25 l 212 -26 l 213 -27 l 215 -30 b 231 -54 221 -38 226 -46 b 262 -101 241 -70 251 -86 l 264 -104 b 266 -109 264 -105 265 -107 b 274 -116 269 -111 271 -114 b 291 -125 279 -120 285 -123 b 328 -116 304 -128 318 -123 b 340 -101 333 -112 337 -107 b 346 -84 344 -96 345 -90 b 343 -66 346 -78 345 -71 b 335 -52 340 -60 338 -56 b 310 -9 327 -38 318 -24 b 298 14 306 -1 302 6 b 293 24 297 17 295 21 b 289 33 292 27 291 30 b 288 35 289 34 289 34 l 288 35 b 289 36 288 36 289 36 b 298 43 292 38 295 41 b 302 46 299 44 300 45 b 307 51 303 48 305 49 b 323 70 313 57 318 64 b 348 114 333 84 341 98 b 370 209 360 143 366 176 b 373 233 371 217 372 225 b 374 259 373 242 374 250 b 374 311 375 276 375 293 b 367 388 373 332 370 360 z m 266 136 b 264 129 266 134 265 131 b 261 136 264 132 263 134 b 251 137 258 139 255 139 b 250 137 251 137 250 137 l 247 140 b 225 153 241 147 233 151 b 180 140 208 158 191 151 b 173 131 178 138 175 134 b 169 121 171 128 170 124 b 168 110 168 117 168 113 b 170 99 168 106 169 102 b 175 90 172 96 174 92 l 180 82 b 189 68 183 77 186 73 b 159 75 179 68 168 70 b 137 103 149 81 142 92 b 124 172 129 125 125 149 b 139 320 121 224 132 269 b 143 361 141 333 142 347 b 145 400 144 374 145 387 b 150 476 146 426 147 452 b 152 490 151 481 151 485 b 154 504 152 495 153 499 b 160 528 156 512 157 521 b 165 539 162 532 163 536 b 171 548 167 543 169 546 b 180 556 173 551 176 554 b 185 559 181 557 183 558 b 190 561 187 560 188 561 b 199 563 191 561 196 562 l 203 564 b 207 565 204 565 206 565 b 222 564 211 566 217 565 b 235 556 226 562 231 559 b 246 544 239 553 242 549 b 259 514 252 535 257 525 b 262 479 262 501 262 489 b 257 446 261 468 259 458 b 255 415 256 436 255 425 b 254 382 254 404 254 392 b 258 314 255 360 257 337 b 261 263 259 301 261 282 b 254 216 261 245 259 227 b 245 155 245 196 243 171 b 266 151 247 139 255 131 b 271 161 268 154 270 158 b 266 136 270 153 268 144 z "},"r":{"ha":426,"x_min":0,"x_max":0,"o":"m 38 482 b 62 234 50 407 58 322 b 65 99 64 189 65 144 b 63 31 65 76 65 54 b 64 13 63 25 62 19 b 68 5 65 10 66 7 b 74 -2 69 2 72 0 b 110 -8 84 -10 98 -12 b 127 3 117 -6 123 -2 b 136 22 132 8 135 15 b 138 31 137 26 137 28 l 138 40 b 140 57 139 45 140 51 b 147 124 143 79 145 102 b 153 192 149 147 151 169 b 155 226 154 203 154 215 l 155 228 l 155 229 l 156 230 l 156 231 b 157 233 157 232 157 233 l 158 233 l 158 233 b 158 233 158 233 158 233 b 162 231 160 232 161 231 b 162 230 162 231 162 231 l 165 230 l 170 229 b 179 228 173 229 176 229 b 179 228 179 228 179 228 b 179 227 179 228 179 227 l 179 227 b 180 226 179 227 179 227 l 183 220 l 195 196 b 219 147 203 180 211 163 b 268 50 235 115 252 83 b 284 19 273 40 278 29 l 288 11 b 293 0 289 9 291 4 b 302 -11 296 -4 298 -7 b 314 -20 305 -14 309 -17 b 369 -18 331 -30 353 -29 b 379 -9 373 -16 376 -13 b 387 3 382 -6 385 -2 b 392 29 391 11 393 20 b 388 41 391 33 390 37 l 386 44 l 385 46 l 383 50 l 375 66 b 359 97 370 76 365 87 b 326 161 348 118 337 140 b 297 217 316 180 306 198 b 282 246 292 227 287 236 b 276 258 280 250 278 254 b 271 270 274 262 272 266 b 270 271 271 270 270 270 b 271 271 271 271 271 271 b 285 277 276 273 281 275 b 291 280 287 278 289 279 b 294 282 292 280 293 281 b 298 284 296 282 297 283 b 312 292 303 287 307 289 b 318 297 314 294 316 295 b 325 301 320 298 323 300 b 369 347 341 314 356 328 b 402 473 392 381 406 426 b 385 540 400 496 395 519 b 348 600 376 562 364 582 b 312 634 339 611 326 623 b 261 662 297 645 279 655 b 207 674 243 668 224 672 b 163 679 190 676 175 677 b 133 679 154 680 143 680 b 118 678 128 679 123 679 b 111 677 115 678 113 677 l 111 677 l 111 677 l 111 677 b 107 678 110 678 110 678 b 99 679 104 679 102 679 b 92 680 97 680 94 680 b 64 672 82 679 73 677 b 44 653 56 668 49 661 b 36 631 39 646 37 637 l 38 637 b 39 606 34 623 36 612 b 46 596 41 600 44 597 b 38 482 37 582 31 533 z m 243 553 b 248 539 244 548 245 543 b 261 528 251 535 255 531 b 291 505 272 523 282 515 b 309 466 299 494 306 481 b 308 422 312 452 312 436 b 300 401 307 414 303 407 b 287 383 296 394 292 388 b 250 360 276 372 263 364 b 231 355 244 357 237 356 b 212 353 225 353 218 353 b 194 353 206 352 200 352 b 177 355 188 353 183 354 b 160 358 172 355 166 357 b 159 358 159 359 159 358 b 158 358 158 358 158 358 b 156 357 157 358 157 357 b 155 357 155 357 155 357 b 153 359 154 357 153 358 b 152 360 152 359 152 359 l 151 362 l 150 368 b 144 392 148 376 146 384 b 133 439 140 407 136 423 b 131 482 131 453 130 468 b 144 524 133 498 139 510 b 149 543 146 530 148 537 b 151 553 150 547 150 550 l 151 556 l 151 557 b 151 557 151 557 151 557 l 152 558 b 152 561 152 559 152 560 b 154 563 153 562 153 562 b 156 564 155 563 155 563 b 156 564 156 564 156 564 l 157 564 l 158 564 b 162 565 160 565 161 565 b 177 568 167 566 172 567 b 202 563 187 569 197 567 b 231 553 212 554 222 552 b 242 572 240 554 249 559 b 238 578 241 574 239 576 b 251 570 242 576 247 573 b 255 567 252 569 254 568 b 243 553 246 567 243 560 z m 52 614 b 58 627 53 618 55 623 l 57 627 b 58 627 58 627 58 627 b 66 640 60 632 63 637 b 71 643 68 641 69 642 b 61 626 66 639 62 633 b 60 601 57 618 57 609 b 60 587 60 596 60 591 b 50 600 57 598 53 602 b 50 604 50 601 50 603 b 52 614 51 607 51 610 z "},"s":{"ha":375,"x_min":0,"x_max":0,"o":"m 345 214 b 340 232 344 220 342 226 b 334 249 338 238 337 244 b 326 266 332 255 329 261 b 287 315 315 287 299 304 b 277 322 283 318 280 320 b 270 327 275 324 272 325 b 260 329 265 329 262 330 b 260 320 258 328 258 325 b 264 312 261 318 262 315 b 271 300 266 309 268 305 b 281 283 274 294 278 289 b 250 318 272 295 261 307 b 239 328 246 322 243 325 b 254 324 246 325 251 323 b 252 342 259 325 258 332 b 220 377 246 352 234 364 b 174 416 206 390 190 403 b 139 455 160 427 147 440 b 135 508 131 471 129 490 b 171 557 141 527 154 545 b 201 567 180 562 190 566 b 232 557 212 567 222 563 b 252 531 241 551 248 542 b 257 497 257 521 258 509 b 256 488 256 494 256 491 b 256 480 255 485 256 482 b 264 464 257 474 260 468 b 297 453 273 455 285 451 b 313 461 303 454 309 457 b 320 477 317 466 319 472 b 323 495 321 483 322 489 b 323 504 323 498 323 501 l 323 513 b 323 518 323 515 323 516 l 323 522 l 322 531 l 320 540 l 319 544 l 318 549 l 316 557 l 312 566 l 311 570 l 309 574 l 304 582 b 294 598 301 587 298 593 b 287 605 292 600 290 603 l 281 612 b 249 634 271 621 261 629 b 213 646 238 640 226 644 b 174 647 200 648 187 649 b 101 618 147 644 122 633 l 92 611 b 85 605 90 609 87 607 b 78 598 82 602 80 600 l 71 590 b 64 582 68 588 66 585 l 58 574 b 52 565 56 571 54 568 b 46 556 50 562 48 560 b 37 536 43 550 39 543 b 30 514 34 529 32 522 b 25 468 26 499 24 484 b 34 422 26 452 29 437 b 43 401 37 415 39 407 b 48 391 44 397 46 394 l 54 381 b 60 372 55 378 58 375 b 66 363 62 369 64 366 b 80 346 71 357 75 352 b 109 317 89 336 99 326 b 140 291 119 308 129 299 b 155 279 145 287 150 283 b 169 268 160 275 165 272 b 195 245 179 261 187 253 b 207 233 199 241 203 237 l 212 226 l 217 220 b 222 213 219 218 221 216 b 227 207 224 211 225 209 b 234 193 229 202 232 197 b 245 163 239 183 242 173 l 246 155 b 246 147 246 152 246 150 b 246 131 247 142 246 137 b 244 123 246 128 245 126 b 243 115 244 120 243 118 b 237 100 241 110 239 105 b 216 76 232 91 225 82 b 201 69 212 73 207 71 b 185 67 196 68 190 67 b 170 68 180 66 175 67 b 157 73 166 69 161 71 b 135 94 148 78 141 86 b 127 124 130 103 127 113 b 127 127 127 125 127 126 l 128 131 l 128 136 b 129 140 129 137 129 139 b 124 159 129 147 127 153 b 89 182 117 172 103 180 b 69 178 82 182 75 181 b 54 164 63 175 58 170 b 50 155 52 161 51 158 l 47 146 l 46 141 l 46 139 l 45 137 l 44 128 b 43 120 44 126 43 123 b 43 111 43 117 43 114 b 43 102 43 108 43 105 b 44 93 43 99 43 96 b 68 28 46 71 55 48 b 127 -20 83 8 103 -9 b 136 -23 130 -21 133 -22 b 145 -26 139 -24 142 -25 l 155 -28 b 159 -29 156 -29 158 -29 l 164 -30 l 174 -31 b 184 -31 177 -31 180 -31 b 193 -31 187 -31 190 -32 l 203 -30 b 276 -2 229 -28 255 -17 b 314 37 289 7 303 21 b 339 92 325 53 334 72 b 345 121 342 102 344 112 b 347 135 346 126 346 131 b 348 149 347 140 347 145 b 347 196 348 167 347 183 b 345 214 347 202 346 208 z "},"t":{"ha":369,"x_min":0,"x_max":0,"o":"m 17 556 b 47 544 27 548 38 544 b 53 544 49 544 51 544 b 58 544 55 544 56 544 b 65 547 61 545 63 546 b 71 553 69 549 71 551 b 64 558 70 555 68 556 b 57 560 62 558 60 559 b 47 565 54 562 50 563 b 35 577 42 568 38 572 b 69 566 43 568 56 565 b 80 568 72 567 76 567 b 70 560 74 565 71 562 b 81 549 69 555 73 552 b 116 546 90 547 102 546 b 122 546 118 546 120 546 b 127 546 124 546 125 546 b 129 547 127 546 128 546 b 132 548 130 547 131 547 b 135 549 133 548 135 549 b 139 543 137 548 138 546 b 140 541 139 543 140 542 b 140 540 140 541 140 541 l 141 539 l 141 536 b 143 524 142 532 142 528 b 149 475 145 508 147 492 b 158 372 153 442 156 408 b 157 157 162 302 162 228 b 153 102 156 139 155 120 b 147 49 151 84 150 67 l 146 36 l 145 29 l 144 25 b 144 20 144 23 144 21 b 149 -1 144 13 146 5 b 163 -18 152 -8 157 -14 b 184 -28 169 -23 176 -26 b 207 -28 191 -30 200 -30 b 230 -20 214 -27 223 -24 b 247 -1 237 -15 243 -9 b 255 24 252 6 254 16 l 256 39 b 259 69 257 49 258 59 b 261 128 260 89 261 109 b 255 247 261 168 259 208 b 231 472 248 324 236 394 b 228 522 230 488 229 505 l 228 534 l 228 546 b 228 567 228 553 228 561 l 228 568 b 229 569 228 569 228 570 b 232 569 230 569 231 569 b 238 568 234 569 236 569 b 249 567 242 568 245 567 b 254 566 250 567 252 566 l 256 565 l 259 565 b 271 562 263 564 267 563 b 294 557 279 561 286 559 b 305 554 297 556 301 555 b 314 552 308 553 311 552 b 319 551 316 552 317 552 b 324 552 320 551 322 551 b 355 568 336 552 348 558 b 367 605 363 578 367 591 b 362 625 366 612 365 619 b 351 643 359 632 356 638 b 333 656 346 648 340 653 b 323 659 330 657 326 658 b 318 660 321 660 319 660 l 315 661 l 313 661 b 211 665 280 665 246 666 b 134 659 190 664 162 662 b 61 655 106 657 79 654 l 56 656 l 53 656 b 51 656 52 656 51 656 l 48 656 b 43 655 46 656 44 655 b 37 654 41 654 39 654 b 27 649 34 653 30 651 b 10 634 21 646 15 640 b 1 613 6 628 3 621 b -1 591 -1 606 -2 598 b 17 556 1 576 8 564 z "},"u":{"ha":403,"x_min":0,"x_max":0,"o":"m 91 4 b 128 -22 102 -7 115 -16 b 165 -33 141 -29 154 -32 b 191 -32 176 -35 185 -34 b 202 -27 198 -30 202 -28 b 195 -21 203 -25 200 -23 b 190 -20 193 -20 192 -20 b 184 -18 188 -19 186 -18 b 168 -12 179 -16 174 -14 b 147 -1 161 -9 154 -5 b 201 -12 164 -9 182 -13 b 218 -10 207 -12 213 -11 b 218 -10 218 -10 218 -10 b 205 -17 212 -13 207 -15 b 211 -27 199 -21 202 -25 b 256 -22 220 -29 237 -29 b 271 -16 261 -20 266 -18 b 272 -15 271 -15 272 -15 l 273 -14 l 273 -14 b 275 -14 274 -14 274 -14 b 277 -13 275 -14 276 -13 l 277 -12 b 277 -13 277 -12 277 -12 b 278 -14 277 -13 277 -13 b 279 -15 278 -14 278 -15 l 279 -15 l 279 -15 b 279 -15 279 -15 279 -15 l 278 -14 l 279 -15 l 280 -15 l 282 -17 b 290 -21 284 -18 287 -20 b 324 -23 301 -25 313 -26 b 350 -10 333 -21 343 -16 b 365 15 357 -3 362 6 b 366 29 366 20 366 25 b 366 38 366 32 366 35 b 365 57 365 44 365 51 b 360 133 363 82 361 107 b 350 292 356 184 353 238 b 345 459 347 347 345 403 b 346 542 345 487 345 515 b 347 584 346 556 346 570 b 347 605 347 591 347 598 b 342 628 348 612 346 621 b 322 643 337 635 330 640 b 309 645 318 644 314 645 b 296 643 305 645 301 645 b 275 628 288 641 280 636 b 270 616 273 624 271 620 b 269 609 269 613 269 611 l 269 607 l 269 606 l 268 603 b 264 520 267 575 265 548 b 254 352 260 465 257 410 b 252 261 253 322 253 291 l 252 215 l 252 193 l 251 185 b 250 175 251 181 250 178 b 240 137 248 161 245 149 b 233 120 238 131 236 125 b 223 104 230 114 227 109 b 212 91 220 99 216 94 b 202 83 208 87 205 84 b 194 80 199 81 196 80 b 185 82 192 80 189 80 b 177 89 182 84 179 86 b 172 94 175 90 174 92 b 169 98 171 95 169 98 b 169 98 169 98 169 98 b 169 99 169 99 169 99 l 168 100 l 168 102 b 165 110 167 105 166 107 b 161 128 163 116 162 122 b 158 146 160 133 159 140 b 155 165 157 152 156 158 b 146 240 151 190 149 215 b 140 397 142 291 141 343 b 144 554 140 448 140 502 b 147 597 144 569 146 583 b 148 607 147 600 148 603 b 149 612 148 608 148 610 l 149 614 l 149 617 b 142 640 149 625 147 634 b 123 656 138 647 131 653 b 98 659 115 659 106 660 b 73 648 89 658 80 654 b 58 623 65 642 60 633 b 56 616 57 621 57 619 l 56 611 l 55 602 b 53 585 54 596 54 591 b 50 549 52 573 51 561 b 45 475 48 525 46 500 b 42 320 42 425 41 373 b 46 202 42 288 44 244 b 49 139 47 180 48 159 b 53 87 51 119 52 102 b 65 43 54 73 58 57 b 91 4 71 29 80 15 z "},"v":{"ha":392,"x_min":0,"x_max":0,"o":"m 358 647 b 336 662 351 654 344 659 b 311 665 328 665 319 666 b 289 659 303 665 295 663 b 273 645 282 655 277 650 b 268 631 270 640 268 635 b 269 618 266 623 268 619 b 277 624 271 617 273 619 b 285 632 279 626 281 629 b 299 640 288 635 293 638 b 320 637 306 641 314 640 b 284 616 305 642 287 636 b 281 600 283 610 282 605 b 239 496 277 651 242 578 b 224 321 236 442 231 382 b 219 274 223 306 221 290 b 211 227 216 259 214 243 b 194 134 206 196 200 165 b 164 313 180 193 171 254 b 152 458 159 363 155 411 b 146 530 150 482 148 506 b 143 566 145 542 144 554 b 141 584 142 572 142 578 l 140 593 l 139 598 l 139 603 l 136 626 b 118 657 133 638 127 649 b 85 670 109 665 97 670 b 48 662 72 671 59 668 b 33 650 43 659 37 655 b 22 635 29 646 25 641 b 16 598 16 623 14 609 b 17 592 16 594 17 593 l 18 587 l 19 577 l 22 558 b 52 404 31 506 41 455 b 87 258 63 354 75 306 b 126 111 99 210 111 161 b 135 79 129 101 132 90 b 145 47 138 68 141 57 b 161 15 149 36 154 25 b 190 -7 168 5 178 -3 b 195 -8 192 -7 194 -8 l 197 -16 l 199 -8 b 213 -6 203 -9 208 -8 b 223 -2 216 -5 220 -4 b 231 5 226 0 228 3 b 249 37 240 15 245 26 b 261 66 253 47 257 56 b 272 97 264 76 268 86 b 290 156 278 116 284 136 b 304 219 295 177 299 197 b 327 350 313 261 320 305 b 342 450 332 377 337 414 b 362 543 348 486 354 521 b 371 575 365 553 368 564 b 375 591 372 580 374 586 l 375 594 l 375 597 b 376 605 376 600 376 602 b 374 621 376 610 375 616 b 358 647 371 631 365 640 z "},"w":{"ha":631,"x_min":0,"x_max":0,"o":"m 600 647 b 567 664 590 657 578 662 b 535 660 556 666 544 664 b 515 642 526 656 519 649 b 510 627 512 636 511 631 b 512 620 510 623 511 621 b 515 622 512 620 513 620 b 521 631 516 624 518 627 b 537 643 525 635 530 640 b 564 642 545 645 554 646 b 581 629 571 639 577 635 b 587 615 584 625 587 620 b 526 617 581 644 533 653 b 521 592 524 609 522 600 b 503 597 522 630 514 625 b 459 405 488 560 469 485 b 430 221 451 347 441 285 b 371 531 407 320 386 424 b 365 577 369 546 367 562 l 363 601 b 361 612 362 604 362 608 b 357 623 361 616 359 620 b 339 638 352 630 346 635 b 315 639 331 641 323 642 b 299 623 307 637 302 630 b 297 611 298 619 297 615 l 294 599 b 257 416 282 538 270 477 b 242 353 252 395 247 374 b 234 322 239 343 237 332 b 230 306 233 317 232 312 l 228 299 l 227 293 b 221 273 225 286 223 278 b 216 256 219 267 218 261 b 207 233 213 247 210 239 b 206 229 207 232 206 230 l 204 240 l 202 258 b 199 286 200 269 199 278 b 198 296 198 290 198 293 b 193 327 196 306 195 316 b 182 391 189 348 185 369 b 141 607 169 463 154 535 l 140 611 l 140 614 l 140 614 l 140 615 l 139 617 b 139 617 139 617 139 617 b 139 617 139 617 139 617 l 139 617 l 138 618 b 137 622 138 620 137 621 b 133 631 136 625 135 628 b 121 648 130 637 126 643 b 85 666 112 658 99 664 b 45 657 71 668 57 664 b 18 627 33 650 24 640 b 14 607 16 621 14 614 b 14 597 14 604 14 600 l 15 591 b 23 548 17 576 20 562 b 42 466 28 520 35 493 b 52 426 45 453 48 440 l 61 386 b 127 131 83 298 105 215 b 159 3 138 88 148 46 b 170 -16 161 -4 165 -11 b 190 -26 176 -21 183 -24 b 212 -25 197 -27 205 -27 b 230 -14 218 -23 225 -19 b 241 4 235 -9 239 -3 b 245 21 242 10 244 15 b 253 54 248 32 251 43 b 307 285 272 128 289 208 b 320 340 311 305 316 323 b 325 291 321 324 323 308 b 344 154 330 247 337 201 b 356 84 348 131 352 108 b 369 11 360 60 365 36 l 370 9 b 371 6 370 8 370 7 l 372 2 b 376 -7 373 -2 375 -4 b 382 -15 378 -10 380 -13 b 389 -22 384 -17 387 -20 b 407 -31 394 -26 400 -29 b 411 -32 408 -31 410 -32 b 416 -33 413 -33 415 -33 b 425 -34 419 -34 422 -34 b 463 -23 438 -35 452 -31 b 470 -17 465 -21 468 -19 b 473 -13 471 -15 472 -14 l 476 -9 l 477 -7 b 478 -6 477 -6 477 -6 l 478 -4 b 481 0 479 -3 480 -2 b 483 6 482 2 482 4 b 495 52 489 23 492 38 b 505 94 498 66 502 80 b 522 176 510 118 516 146 b 540 269 528 206 534 237 b 579 432 553 332 567 393 b 607 546 590 467 599 508 b 612 574 609 555 610 565 b 614 587 613 578 614 583 b 615 594 615 590 615 592 l 616 596 l 616 599 b 616 605 616 601 616 603 b 612 628 616 613 615 621 b 600 647 609 635 605 642 z m 108 608 b 109 607 108 608 109 608 b 108 608 109 608 108 608 l 108 610 b 108 608 108 610 108 609 z "},"x":{"ha":413,"x_min":0,"x_max":0,"o":"m 379 676 b 356 688 372 682 364 686 b 331 689 347 690 339 691 b 312 681 324 688 317 685 b 301 670 307 678 303 674 b 298 656 297 663 297 658 b 307 660 299 655 302 656 b 318 666 310 661 313 664 b 334 668 322 667 328 669 b 356 658 343 667 350 663 b 310 649 342 668 321 668 b 302 635 308 644 305 639 b 304 652 305 643 305 649 b 287 645 302 657 295 654 b 227 538 269 627 243 586 b 218 512 224 529 221 521 l 216 505 l 216 505 l 216 504 l 216 503 l 215 501 b 213 494 215 499 214 496 b 203 457 211 485 207 472 b 202 457 203 456 202 457 l 202 457 l 201 458 l 200 460 l 198 464 b 192 475 196 467 194 471 b 186 487 190 479 188 483 l 183 493 b 179 501 181 495 180 498 b 145 576 167 525 156 550 b 128 614 139 588 134 601 b 120 633 125 620 123 627 b 115 643 119 636 117 640 b 109 651 113 646 111 649 b 89 660 103 656 97 660 b 69 655 82 661 75 659 b 56 639 63 651 58 645 b 56 618 53 632 53 624 b 109 471 75 569 93 520 b 132 403 117 448 125 426 b 143 370 135 392 139 381 b 148 353 144 364 146 358 l 149 349 l 150 346 l 151 342 l 148 337 b 147 335 148 336 148 336 l 146 333 l 144 328 l 134 309 b 115 271 128 296 122 284 b 78 192 103 245 91 219 b 46 119 67 168 57 144 l 30 83 l 14 44 b 12 38 13 42 12 40 b 10 32 11 36 11 34 b 10 25 10 29 10 27 b 10 19 10 23 10 21 b 17 -6 11 10 13 2 b 25 -16 19 -10 22 -13 b 34 -26 27 -20 31 -23 b 57 -38 41 -31 49 -35 b 88 -38 67 -41 78 -41 b 115 -23 98 -36 108 -30 b 131 0 123 -15 128 -8 l 133 3 l 133 5 l 135 9 l 138 16 b 159 77 145 37 152 57 b 185 155 168 103 177 129 b 191 174 187 161 189 168 l 193 182 b 198 202 194 187 196 194 l 199 208 l 200 211 l 201 213 b 201 214 201 213 201 214 b 205 207 203 212 204 209 b 215 189 208 202 212 196 l 218 183 l 220 180 l 221 178 l 222 176 b 230 157 225 170 227 164 b 248 119 236 145 242 132 b 276 53 257 98 267 75 b 290 19 281 42 285 30 b 294 10 291 16 292 13 b 301 1 296 7 298 4 b 319 -8 306 -4 312 -7 b 362 6 336 -12 353 -7 b 369 27 367 12 369 19 b 368 32 369 29 369 31 l 368 35 b 367 38 368 36 367 37 b 365 46 366 40 366 43 b 347 112 359 68 354 89 b 309 229 337 150 323 189 b 285 290 301 249 293 269 b 273 320 281 300 277 310 b 267 336 271 326 269 331 l 265 339 l 265 340 l 264 341 l 265 342 l 265 343 b 265 344 265 343 265 343 b 270 357 267 348 269 353 b 311 458 281 385 295 422 b 358 549 326 494 343 528 b 378 578 365 558 371 568 b 387 593 381 583 384 588 b 391 601 388 596 390 599 l 392 602 l 393 604 l 395 608 b 398 616 396 611 397 614 b 397 650 401 628 400 639 b 379 676 393 660 387 669 z "},"y":{"ha":349,"x_min":0,"x_max":0,"o":"m 330 663 b 310 679 324 670 317 676 b 287 686 302 683 294 685 b 249 674 272 686 258 682 b 234 651 239 666 235 657 b 235 639 232 644 234 641 b 243 643 237 638 239 640 b 261 656 246 647 252 653 b 279 658 267 658 273 659 b 249 635 266 658 253 651 b 245 623 248 631 246 627 b 228 629 245 642 237 642 b 195 542 216 614 201 580 b 190 509 194 531 192 520 b 186 493 189 504 187 498 b 185 482 186 490 185 486 b 179 455 183 474 182 465 b 171 422 177 444 174 433 b 171 420 171 421 171 420 l 170 421 l 169 424 l 165 429 b 159 442 163 433 161 437 b 144 472 154 451 149 461 b 137 490 142 477 139 484 b 129 508 134 496 131 502 b 114 546 124 521 119 533 b 88 623 105 571 96 597 l 85 633 b 82 643 84 636 83 639 b 68 659 79 649 74 655 b 46 663 61 663 54 664 b 25 656 39 663 31 660 b 14 641 20 652 16 647 b 12 623 11 636 11 629 l 12 618 l 13 615 l 15 607 b 19 592 16 602 18 597 b 33 533 23 572 28 553 b 67 415 43 494 53 455 b 86 361 73 397 79 379 b 97 334 90 352 93 343 l 102 320 l 105 314 l 106 313 b 107 310 106 312 107 311 b 109 306 108 309 108 308 b 110 305 110 305 110 305 l 110 305 b 110 305 110 305 110 305 l 110 305 b 110 305 110 305 110 305 l 110 303 l 110 285 b 111 248 111 273 111 260 b 115 174 112 223 113 199 b 123 49 117 131 121 90 b 125 17 124 38 125 28 l 126 15 l 126 13 b 126 7 126 11 126 9 b 130 -3 127 4 128 0 b 144 -19 133 -10 138 -15 b 184 -24 156 -27 171 -28 b 201 -13 190 -21 196 -18 b 210 5 205 -8 208 -1 b 210 14 210 8 210 11 b 210 21 210 16 210 18 b 210 35 210 25 210 30 b 210 63 210 44 210 53 b 211 119 210 82 210 101 b 225 231 214 164 220 194 b 230 283 228 248 229 265 b 232 309 231 291 231 300 b 232 323 232 314 232 318 l 232 324 b 232 325 232 325 232 325 l 232 325 b 232 326 232 326 232 326 l 233 327 l 233 327 l 234 327 l 234 327 l 234 328 l 236 331 l 241 338 l 245 345 b 258 373 250 354 255 364 b 276 428 266 392 271 411 b 300 510 283 450 291 480 b 328 585 309 539 318 567 b 334 597 330 589 332 593 b 336 604 334 600 336 602 l 338 608 l 339 610 b 339 612 339 610 339 611 b 341 639 342 621 343 630 b 330 663 339 648 335 656 z "},"z":{"ha":422,"x_min":0,"x_max":0,"o":"m 404 623 b 398 643 403 629 401 636 b 364 672 391 656 378 666 b 343 678 357 675 350 677 b 332 679 339 679 335 679 b 326 680 330 679 328 679 l 323 680 l 321 679 b 284 677 309 679 296 678 b 164 666 246 672 205 669 b 100 661 143 665 121 663 b 83 660 94 661 89 660 b 65 654 77 659 71 657 b 49 622 54 647 48 634 b 65 591 49 609 54 597 b 83 587 71 588 77 587 b 100 588 89 588 94 588 b 168 590 122 589 145 590 b 237 589 191 590 214 589 b 303 587 259 588 281 588 l 304 587 b 303 586 304 587 304 587 l 302 584 l 300 578 l 294 569 l 283 550 b 260 511 276 537 268 524 b 214 432 244 484 230 458 b 192 394 207 419 199 406 l 181 375 b 177 369 178 371 178 370 l 174 365 b 166 365 171 365 168 365 b 149 366 160 366 154 366 l 140 366 l 137 366 l 134 366 b 127 365 132 366 129 365 b 100 351 117 363 108 358 b 85 325 93 344 88 334 b 85 293 83 315 83 303 b 103 266 88 283 94 273 b 111 261 105 264 108 262 b 55 144 92 222 73 183 l 38 106 b 29 89 36 101 32 95 b 19 67 26 82 23 75 b 13 38 16 59 14 50 b 19 3 12 27 13 14 b 42 -24 24 -8 32 -17 b 73 -35 52 -30 62 -34 b 87 -36 79 -36 82 -36 b 99 -36 91 -36 95 -36 b 121 -35 106 -36 114 -35 b 142 -32 128 -34 135 -33 b 163 -30 149 -31 156 -30 b 245 -20 191 -27 218 -23 b 328 -11 273 -16 300 -13 l 333 -10 l 335 -10 l 339 -10 b 352 -5 344 -9 348 -8 b 371 14 361 -1 367 6 b 374 41 374 23 375 32 b 360 64 372 50 367 58 b 340 72 355 68 347 71 b 334 72 338 72 336 72 l 330 71 b 320 71 327 71 323 71 b 283 68 308 70 295 69 b 207 65 257 67 232 65 b 186 65 200 65 193 64 b 176 65 182 65 179 65 b 171 65 174 65 172 65 b 167 65 169 65 168 65 b 144 67 157 65 150 66 b 139 68 142 68 141 68 b 139 69 139 68 139 68 l 140 70 l 141 73 b 148 83 144 76 146 80 b 154 91 150 86 152 88 b 157 94 155 92 156 93 b 158 96 157 94 157 95 l 159 98 l 161 102 b 227 225 184 140 206 182 b 242 257 232 236 237 246 l 244 259 l 246 260 b 283 261 258 260 271 261 l 292 262 l 297 262 l 301 262 b 305 263 302 263 303 263 b 335 278 316 265 327 270 b 348 296 340 283 345 289 b 351 307 349 299 351 303 b 353 318 352 311 353 314 b 334 363 353 334 347 352 b 310 375 327 369 319 373 b 304 376 308 375 306 376 b 297 376 302 376 299 376 b 295 376 296 376 296 376 b 327 432 306 398 317 418 b 346 463 334 441 340 452 b 364 494 352 473 358 484 b 392 555 376 515 386 537 b 395 589 397 573 398 586 b 372 563 391 591 385 583 b 358 544 367 557 363 550 b 381 593 367 560 375 576 b 384 609 383 599 384 604 b 385 606 384 608 384 607 b 388 592 386 599 386 595 b 394 592 389 590 391 590 b 398 598 395 593 397 595 b 403 608 400 600 401 604 b 404 615 403 610 403 612 b 404 623 404 618 404 620 z "},"{":{"ha":403,"x_min":0,"x_max":0,"o":"m 332 684 b 330 694 331 688 331 691 b 307 725 326 708 317 719 b 283 732 298 731 289 732 b 273 727 277 731 273 729 b 278 721 272 725 274 723 b 294 708 282 718 289 715 b 301 692 298 703 300 697 b 272 713 297 703 287 712 b 261 713 268 713 264 713 b 262 713 261 713 262 713 b 272 720 267 715 270 717 b 260 731 274 724 270 728 b 216 729 250 734 234 734 b 166 694 197 723 179 710 b 141 651 156 680 148 666 b 126 605 135 636 129 621 b 116 556 122 589 118 573 b 110 507 114 540 113 523 b 94 406 106 474 101 440 b 77 358 91 390 86 373 b 41 324 69 343 56 331 b 25 307 34 320 29 314 b 23 283 22 300 21 292 b 35 261 24 275 29 267 b 41 257 37 260 39 258 b 47 254 43 256 45 255 b 53 253 49 254 51 253 b 60 253 55 253 58 252 l 64 253 l 67 253 b 71 253 68 253 70 253 b 72 252 72 253 72 252 l 72 252 b 73 249 72 252 72 251 b 73 244 73 248 73 246 b 75 233 74 241 74 237 b 79 189 77 218 78 204 b 81 96 80 159 80 129 b 83 64 82 85 82 75 b 84 56 84 61 84 59 b 86 47 85 53 85 50 b 90 30 87 41 88 35 b 120 -36 96 7 105 -15 b 148 -64 128 -46 137 -56 b 185 -83 158 -72 171 -79 b 227 -87 199 -87 213 -88 b 246 -83 233 -86 240 -85 l 251 -82 b 254 -81 252 -81 253 -81 l 257 -80 b 270 -73 262 -78 266 -75 b 293 -26 286 -62 294 -43 b 291 -13 293 -21 292 -17 b 287 -1 290 -9 289 -5 b 271 19 283 7 278 14 b 225 27 258 29 240 32 l 224 27 l 223 26 l 222 26 b 220 25 222 26 221 25 b 218 25 219 25 218 25 b 215 25 217 24 216 25 b 212 26 214 25 213 25 b 198 42 207 28 202 34 b 187 67 194 49 190 58 b 175 124 182 85 178 104 b 171 150 173 133 172 141 b 168 177 170 159 170 168 b 161 230 166 194 164 212 b 153 276 158 247 156 262 b 150 287 152 280 151 283 b 147 298 149 291 148 294 l 145 301 l 145 302 l 144 305 b 142 309 143 306 143 308 b 144 311 142 309 143 310 l 146 312 b 149 315 147 313 148 315 l 150 316 b 150 316 150 316 150 316 l 151 317 l 152 319 l 155 324 b 162 336 158 328 160 332 b 173 360 166 343 170 352 b 188 411 180 377 185 394 b 198 462 192 428 195 445 b 200 476 199 466 199 471 b 202 489 201 480 201 485 b 205 515 203 498 204 506 b 221 587 208 536 212 564 b 229 603 224 593 226 598 b 239 614 232 607 236 611 b 250 620 243 617 246 619 b 259 622 253 622 256 622 b 267 621 262 621 264 621 b 272 620 269 620 271 620 b 279 620 274 620 277 620 b 285 621 281 620 283 620 b 308 630 293 622 301 625 b 325 649 315 635 321 641 b 332 672 329 656 331 664 b 332 684 332 676 332 680 z m 76 255 l 76 255 l 75 255 b 75 254 75 254 75 254 b 76 255 77 256 75 255 z "},"}":{"ha":443,"x_min":0,"x_max":0,"o":"m 430 309 b 420 325 428 316 424 321 b 409 332 416 329 412 331 b 396 333 402 335 398 335 b 400 325 395 332 396 329 b 405 316 401 323 403 320 b 409 303 407 313 409 308 b 405 284 410 296 408 289 b 391 320 410 297 407 313 b 378 326 386 322 382 324 b 381 325 379 326 380 325 b 393 327 387 325 391 325 b 388 342 396 329 394 335 b 364 368 382 349 374 358 b 357 377 362 371 359 374 b 349 386 355 380 352 383 b 342 396 347 389 345 393 b 334 407 339 400 337 403 b 309 452 325 420 316 435 b 291 506 302 469 297 487 b 277 564 286 524 281 544 b 259 624 272 584 267 604 b 224 676 252 643 240 662 b 168 705 209 691 189 700 b 136 709 157 707 147 709 b 120 710 131 710 125 710 b 104 710 115 710 109 711 b 78 689 92 708 82 699 b 80 654 74 678 74 665 b 94 641 83 648 88 644 b 103 638 97 639 100 638 b 113 637 106 637 110 637 b 128 636 118 637 123 636 b 143 633 133 635 138 634 b 167 621 152 630 161 626 b 180 601 173 616 177 609 b 181 595 180 599 181 597 b 183 588 182 593 182 591 b 185 573 183 583 184 578 b 188 543 186 563 187 553 b 194 478 190 522 191 501 b 218 375 197 444 205 409 b 243 326 225 358 233 342 b 251 315 246 322 248 318 b 255 309 252 313 254 311 l 257 306 l 258 305 b 258 305 258 305 258 305 b 259 305 258 305 259 305 b 259 304 259 305 259 305 b 260 304 259 304 259 304 l 256 300 b 250 290 254 296 252 293 b 231 250 242 277 236 263 b 212 181 222 227 216 204 b 207 148 210 170 208 159 b 204 114 205 136 204 125 b 197 49 202 92 201 70 b 190 18 196 39 193 28 b 175 -9 186 8 182 -1 b 128 -39 163 -22 146 -32 b 114 -43 123 -40 119 -42 b 99 -46 109 -44 104 -45 b 83 -52 93 -47 88 -49 b 72 -65 78 -55 74 -60 b 76 -103 67 -78 70 -92 b 88 -117 79 -108 83 -113 b 105 -124 93 -120 99 -123 b 123 -125 111 -126 118 -125 b 137 -124 127 -125 132 -124 b 168 -118 147 -123 157 -121 b 223 -93 186 -113 205 -105 b 236 -84 227 -90 231 -87 b 248 -73 240 -80 244 -77 b 269 -46 256 -64 263 -55 b 293 15 280 -27 288 -6 b 304 75 298 36 301 56 b 319 162 308 99 312 132 b 333 203 323 177 328 191 b 351 229 338 215 345 225 b 358 233 354 231 356 233 b 358 233 358 233 358 233 b 358 233 358 233 358 232 l 359 232 l 363 231 b 392 233 372 229 383 230 b 415 248 402 237 409 242 b 428 267 421 254 425 261 b 430 309 434 281 435 296 z "},"":{"ha":243,"x_min":0,"x_max":0,"o":""},"":{"ha":0,"x_min":0,"x_max":0,"o":""},"":{"ha":240,"x_min":0,"x_max":0,"o":"m 224 695 b 220 706 223 699 221 702 b 214 716 218 710 216 713 b 206 726 212 720 209 723 b 197 734 203 728 200 731 b 164 747 189 739 177 745 b 131 751 152 749 140 750 b 117 751 126 753 122 752 b 105 746 113 750 109 748 b 91 728 97 741 93 734 b 94 714 90 722 91 717 b 107 714 97 712 102 712 b 113 715 110 714 111 715 b 106 706 111 712 108 710 b 104 703 105 705 104 704 b 100 710 103 706 102 708 b 88 713 97 713 93 714 b 71 684 78 711 68 699 b 75 664 72 677 73 671 b 83 644 77 657 79 650 b 98 629 87 637 92 632 b 113 623 103 626 108 624 b 91 601 107 614 100 607 b 59 591 81 595 70 592 b 38 582 51 590 44 587 b 24 561 32 577 27 569 b 22 533 21 553 20 543 b 37 505 24 523 29 513 b 70 492 46 497 58 493 b 79 493 73 492 76 492 b 84 494 81 493 82 493 l 86 494 l 88 495 b 95 497 90 495 93 496 l 97 497 l 98 498 l 100 499 b 138 523 114 504 127 512 b 164 556 148 533 157 544 b 181 593 170 568 176 581 b 197 623 186 603 191 614 b 219 654 203 635 213 642 b 224 695 225 666 227 680 z "},"":{"ha":408,"x_min":0,"x_max":0,"o":"m 219 654 b 224 695 225 666 227 680 b 220 706 223 699 221 702 b 214 716 218 710 216 713 b 206 726 212 720 209 723 b 197 734 203 728 200 731 b 164 747 189 739 177 745 b 131 751 152 749 140 750 b 117 751 126 753 122 752 b 105 746 113 750 109 748 b 91 728 97 741 93 734 b 94 714 90 722 91 717 b 107 714 97 712 102 712 b 113 715 110 714 111 715 b 106 706 111 712 108 710 b 104 703 105 705 104 704 b 100 710 103 706 102 708 b 88 713 97 713 93 714 b 71 684 78 711 68 699 b 75 664 72 677 73 671 b 83 644 77 657 79 650 b 98 629 87 637 92 632 b 113 623 103 626 108 624 b 91 601 107 614 100 607 b 59 591 81 595 70 592 b 38 582 51 590 44 587 b 24 561 32 577 27 569 b 22 533 21 553 20 543 b 37 505 24 523 29 513 b 70 492 46 497 58 493 b 79 493 73 492 76 492 b 84 494 81 493 82 493 l 86 494 l 88 495 b 95 497 90 495 93 496 l 97 497 l 98 498 l 100 499 b 138 523 114 504 127 512 b 164 556 148 533 157 544 b 181 593 170 568 176 581 b 197 623 186 603 191 613 b 219 654 203 635 213 642 z m 390 690 b 386 700 389 693 388 697 b 381 711 385 704 383 707 b 373 720 378 714 376 717 b 364 728 370 723 367 726 b 331 741 356 734 343 739 b 297 746 319 744 307 744 b 284 746 293 747 288 747 b 272 740 280 745 275 743 b 258 722 264 735 259 728 b 260 709 256 716 257 711 b 274 708 263 706 268 706 b 280 709 276 709 278 709 b 272 701 277 707 275 704 b 270 697 272 700 271 698 b 266 704 269 700 268 702 b 254 707 264 707 259 708 b 237 678 245 705 235 693 b 241 658 238 672 240 665 b 250 638 243 652 246 645 b 265 623 253 632 259 627 b 280 617 269 620 275 619 b 258 596 274 609 266 601 b 225 585 248 590 237 586 b 205 576 218 584 211 581 b 190 555 198 571 193 564 b 189 527 187 547 187 537 b 204 500 191 517 196 507 b 237 487 212 492 224 487 b 246 487 240 487 243 487 b 250 488 247 487 249 488 l 253 489 l 255 489 b 262 491 257 490 259 490 l 263 492 l 264 492 l 267 493 b 305 517 281 499 294 507 b 330 551 315 527 323 539 b 348 587 337 563 342 575 b 363 618 353 597 357 608 b 386 649 370 629 379 636 b 390 690 392 660 394 675 z "}}}
